<svg width="712" height="560" viewBox="0 0 712 560" fill="none" xmlns="http://www.w3.org/2000/svg">
<g clip-path="url(#clip0_1_2)">
<path d="M60.0001 551.5C18.1432 541.059 5.84194 510.495 3.50006 412.5C11.9352 296.307 29.2117 235.764 77.0001 134C78.8651 133.216 87.8031 129.126 89.0001 126.5C91.509 120.996 85.6182 115.134 89.0001 112C101.52 100.396 116.564 96.0365 131 93.5001C139.36 92.0313 166.169 88.001 176 93.5001C182.154 96.9425 170.53 109.592 178 112C188.344 115.334 202.011 111.727 214 112H229C322.852 91.9294 378.955 93.3065 483.5 112C500.408 111.443 515.125 111.314 528.5 111.725C531.22 111.809 527.884 93.8706 530.5 94.0001C559.211 86.6907 591.556 94.3182 616 111C617.817 111.555 615.649 126.32 617.5 126.915C622.351 128.472 627.333 130.165 632.5 132C678.282 226.127 690.219 281.144 704 380.5C710.777 447.349 708.921 482.812 683 538L647.5 552.5L520.5 388L402 392.5L201.5 388L145.5 412.5L80.0001 551.5H60.0001Z" fill="#5FFFD8"/>
<path d="M108.5 16.5C97.5914 38.294 93.6531 53.2063 88 81.5002L181.5 83.0002L178 39.5001C174.989 27.3104 171.772 21.651 163 12C152.484 2.26257 146.686 -0.0951702 133.5 1.00003C122.35 4.41977 116.937 7.92906 108.5 16.5Z" fill="#5FFFD8"/>
<path d="M528.5 80.0001L620 82.0001C616.114 58.9652 613.191 46.1717 604 24C603.099 11.2204 576.931 -0.789802 572 1C569.455 -0.419362 553 3 549 10C546.125 10.7945 533.166 23.7397 531 40L528.5 80.0001Z" fill="#5FFFD8"/>
<path fill-rule="evenodd" clip-rule="evenodd" d="M157.409 345.689C159.742 340.762 162.128 335.722 164.575 330.549C178.364 306.235 188.993 291.786 218.476 263.046C223.737 256.575 226.862 247.638 232.581 227.28C239.967 243.645 246.651 250.391 265.829 255.49H443.149C461.373 250.494 470.018 244.614 481.937 227.28L493.02 263.046C525.643 297.858 542.101 317.38 559.515 352.21C595.811 428.373 614.975 471.386 643.137 549.68L629.536 555.725C614.163 559.148 606.394 556.329 594.274 541.62C586.232 521.479 580.042 504.632 573.853 487.792C567.288 469.926 560.725 452.067 551.959 430.291C534.353 396.215 519.384 393.369 481.937 399.059H232.581C194.757 393.553 179.942 399.943 164.575 427.773L118.23 528.523C107.565 551.971 101.733 557.234 91.5313 555.725L66.8475 552.199C100.174 466.576 122.941 418.488 157.409 345.689ZM189.133 326.917C189.133 299.095 211.686 276.542 239.508 276.542C267.329 276.542 289.883 299.095 289.883 326.917C289.883 354.738 267.329 377.292 239.508 377.292C211.686 377.292 189.133 354.738 189.133 326.917ZM422.495 327.023C422.495 299.201 444.823 276.647 472.366 276.647C499.91 276.647 522.237 299.201 522.237 327.023C522.237 354.844 499.91 377.398 472.366 377.398C444.823 377.398 422.495 354.844 422.495 327.023Z" fill="black"/>
<path fill-rule="evenodd" clip-rule="evenodd" d="M383.704 335.764C382.581 337.179 379.833 338.189 379.833 338.189L359.385 345.533V340.117L374.433 334.755C376.141 334.143 376.403 333.278 375.015 332.824C373.63 332.369 371.121 332.499 369.412 333.114L359.385 336.645V331.024L359.963 330.828C359.963 330.828 362.86 329.803 366.934 329.352C371.009 328.903 375.997 329.413 379.914 330.897C384.327 332.292 384.824 334.348 383.704 335.764ZM361.331 326.54V312.688C361.331 311.061 361.031 309.564 359.505 309.14C358.336 308.765 357.61 309.85 357.61 311.476V346.165L348.255 343.196V301.835C352.233 302.573 358.028 304.319 361.143 305.369C369.066 308.089 371.752 311.475 371.752 319.103C371.752 326.537 367.163 329.355 361.331 326.54ZM331.089 339.551C326.558 338.275 325.804 335.616 327.869 334.085C329.778 332.67 333.024 331.606 333.024 331.606L346.438 326.836V332.274L336.785 335.728C335.08 336.34 334.818 337.206 336.203 337.66C337.59 338.114 340.1 337.985 341.808 337.372L346.438 335.692V340.556C346.144 340.608 345.817 340.661 345.514 340.711C340.883 341.468 335.95 341.153 331.089 339.551Z" fill="white"/>
<g clip-path="url(#clip1_1_2)">
<path fill-rule="evenodd" clip-rule="evenodd" d="M554.858 292.675C554.858 278.982 565.959 267.881 579.652 267.881C593.346 267.881 604.446 278.982 604.446 292.675C604.446 306.368 593.346 317.469 579.652 317.469C565.959 317.469 554.858 306.368 554.858 292.675Z" fill="black"/>
<rect x="571" y="282" width="28.3359" height="3" transform="rotate(45 571 282)" fill="#1BE4D8"/>
<rect x="569" y="302" width="28.3359" height="3" transform="rotate(-45 569 302)" fill="#1BE4D8"/>
</g>
<g clip-path="url(#clip2_1_2)">
<path fill-rule="evenodd" clip-rule="evenodd" d="M605.858 241.675C605.858 227.982 616.959 216.881 630.652 216.881C644.346 216.881 655.446 227.982 655.446 241.675C655.446 255.368 644.346 266.469 630.652 266.469C616.959 266.469 605.858 255.368 605.858 241.675Z" fill="black"/>
<circle cx="630.5" cy="241.5" r="12.5" stroke="#FF3333" stroke-width="2.5"/>
</g>
<g clip-path="url(#clip3_1_2)">
<path fill-rule="evenodd" clip-rule="evenodd" d="M554.858 190.675C554.858 176.982 565.959 165.881 579.652 165.881C593.346 165.881 604.446 176.982 604.446 190.675C604.446 204.368 593.346 215.469 579.652 215.469C565.959 215.469 554.858 204.368 554.858 190.675Z" fill="black"/>
<path d="M569.175 197.25L580 178.5L590.825 197.25H569.175Z" stroke="#70FF00" stroke-width="2.5"/>
</g>
<g clip-path="url(#clip4_1_2)">
<path fill-rule="evenodd" clip-rule="evenodd" d="M503.858 241.675C503.858 227.982 514.959 216.881 528.652 216.881C542.346 216.881 553.446 227.982 553.446 241.675C553.446 255.368 542.346 266.469 528.652 266.469C514.959 266.469 503.858 255.368 503.858 241.675Z" fill="black"/>
<rect x="517.25" y="230.25" width="22.5" height="22.5" stroke="#F12AA2" stroke-width="2.5"/>
</g>
<path fill-rule="evenodd" clip-rule="evenodd" d="M248.055 103.269C275.943 97.0166 331.296 93.9323 361.938 93.9323C393.925 93.9323 436.365 95.7943 469.702 103.269C483.882 106.449 491.472 111.725 494.962 118.47C498.363 125.041 497.375 132.21 496.605 137.65C493.542 159.279 489.258 185.217 484.371 214.801L484.356 214.889C481.804 230.341 475.356 241.11 466.866 247.997C458.408 254.858 448.185 257.651 438.42 257.651H273.218C260.452 257.651 250.55 254.425 243.38 248.893C236.199 243.352 232.018 235.697 230.36 227.335C227.166 211.224 222.54 185.525 217.345 156.669C216.592 152.486 215.827 148.236 215.053 143.94C212.437 129.428 214.734 120.025 221.509 113.816C224.762 110.836 228.835 108.802 233.294 107.221C237.747 105.643 242.786 104.451 248.055 103.269ZM361.938 100.229C331.395 100.229 276.614 103.319 249.433 109.413C244.144 110.599 239.449 111.72 235.397 113.157C231.352 114.59 228.151 116.271 225.764 118.459C221.26 122.586 218.819 129.337 221.25 142.823C222.024 147.121 222.789 151.371 223.542 155.553C228.74 184.425 233.355 210.059 236.537 226.11C237.939 233.181 241.406 239.417 247.227 243.908C253.058 248.407 261.512 251.354 273.218 251.354H438.42C447.012 251.354 455.757 248.9 462.9 243.106C470.012 237.337 475.801 228.043 478.144 213.863L478.148 213.835C483.043 184.202 487.318 158.323 490.37 136.767C491.175 131.078 491.717 125.901 489.37 121.363C487.112 117 481.677 112.407 468.324 109.413C435.688 102.096 393.814 100.229 361.938 100.229Z" fill="black"/>
<g filter="url(#filter0_i_1_2)">
<path d="M267.364 130.438C266.645 127.974 265.413 126.331 263.668 125.51C261.923 124.586 260.177 124.432 258.432 125.048C256.687 125.561 255.352 126.639 254.428 128.282C253.504 129.925 253.401 131.978 254.12 134.442C254.839 136.598 255.66 139.319 256.584 142.604C257.611 145.787 258.689 149.123 259.818 152.614C260.947 156.105 261.974 159.39 262.898 162.47C264.13 166.679 265.362 170.889 266.594 175.098C267.826 179.205 269.007 183.209 270.136 187.11C271.368 191.011 272.497 194.707 273.524 198.198C274.037 199.943 274.551 201.689 275.064 203.434C275.577 205.077 276.091 206.719 276.604 208.362C277.117 210.005 277.631 211.699 278.144 213.444C278.76 215.087 279.325 216.832 279.838 218.68C280.454 220.528 281.07 222.479 281.686 224.532C282.302 226.585 283.226 228.279 284.458 229.614C285.69 230.846 287.076 231.667 288.616 232.078C290.156 232.489 291.645 232.489 293.082 232.078C294.622 231.667 296.008 230.795 297.24 229.46C298.472 228.125 299.396 226.329 300.012 224.07C300.628 221.811 301.193 219.707 301.706 217.756C302.219 215.805 302.733 213.957 303.246 212.212C303.759 210.467 304.221 208.773 304.632 207.13C305.145 205.487 305.607 203.845 306.018 202.202C306.531 200.559 306.993 198.865 307.404 197.12C307.917 194.964 308.482 192.603 309.098 190.036C309.817 187.367 310.535 184.492 311.254 181.412C312.075 178.332 312.948 174.995 313.872 171.402C314.796 167.809 315.771 163.959 316.798 159.852C317.517 156.875 318.441 154.359 319.57 152.306C320.699 150.253 321.726 148.405 322.65 146.762C323.574 145.119 324.241 143.374 324.652 141.526C325.063 139.575 324.96 137.265 324.344 134.596C323.728 131.927 322.65 129.925 321.11 128.59C319.673 127.255 318.133 126.588 316.49 126.588C314.847 126.588 313.256 127.255 311.716 128.59C310.279 129.822 309.252 131.773 308.636 134.442C308.02 137.009 307.917 139.267 308.328 141.218C308.739 143.169 309.406 145.017 310.33 146.762C311.357 148.507 312.435 150.458 313.564 152.614C314.693 154.667 315.617 157.183 316.336 160.16C317.363 164.267 318.338 168.117 319.262 171.71C320.186 175.303 321.007 178.64 321.726 181.72C322.547 184.8 323.317 187.675 324.036 190.344C324.755 192.911 325.371 195.272 325.884 197.428C326.295 199.173 326.705 200.919 327.116 202.664C327.629 204.409 328.091 206.155 328.502 207.9C328.913 209.645 329.323 211.442 329.734 213.29C330.247 215.035 330.709 216.883 331.12 218.834C331.633 220.682 332.095 222.633 332.506 224.686C333.019 226.637 333.841 228.228 334.97 229.46C336.202 230.692 337.588 231.462 339.128 231.77C340.771 232.181 342.413 232.181 344.056 231.77C345.699 231.359 347.187 230.538 348.522 229.306C349.959 228.074 351.037 226.431 351.756 224.378C352.577 222.325 353.296 220.323 353.912 218.372C354.528 216.421 355.144 214.573 355.76 212.828C356.376 210.98 356.941 209.235 357.454 207.592C357.967 205.847 358.429 204.153 358.84 202.51C359.353 200.867 359.867 199.276 360.38 197.736C361.304 194.759 362.228 191.781 363.152 188.804C364.076 185.827 365 182.798 365.924 179.718C366.848 176.638 367.823 173.404 368.85 170.016C369.877 166.525 370.955 162.829 372.084 158.928C373.008 156.053 373.881 153.179 374.702 150.304C375.626 147.327 376.499 144.503 377.32 141.834C378.141 139.062 378.86 136.598 379.476 134.442C380.297 131.978 380.195 129.925 379.168 128.282C378.244 126.639 376.909 125.561 375.164 125.048C373.419 124.432 371.673 124.586 369.928 125.51C368.285 126.331 367.053 127.974 366.232 130.438C365.616 132.594 364.846 135.058 363.922 137.83C363.101 140.499 362.228 143.374 361.304 146.454C360.38 149.534 359.456 152.665 358.532 155.848C357.505 159.441 356.427 163.137 355.298 166.936C354.169 170.632 353.091 174.225 352.064 177.716C351.037 181.104 350.113 184.133 349.292 186.802C348.471 189.369 347.855 191.371 347.444 192.808C347.136 193.732 346.828 194.656 346.52 195.58C346.212 196.504 345.904 197.479 345.596 198.506C345.288 199.43 344.98 200.354 344.672 201.278C344.467 202.099 344.261 202.869 344.056 203.588C343.851 204.307 343.645 204.923 343.44 205.436C343.337 205.949 343.235 206.36 343.132 206.668C343.029 206.873 342.927 207.027 342.824 207.13C342.824 207.233 342.773 207.233 342.67 207.13C342.67 207.027 342.619 206.822 342.516 206.514C342.516 206.206 342.465 205.847 342.362 205.436C342.259 205.025 342.105 204.512 341.9 203.896C341.695 203.177 341.489 202.407 341.284 201.586C341.079 200.662 340.822 199.738 340.514 198.814C340.309 197.787 340.052 196.812 339.744 195.888C339.436 194.861 339.179 193.835 338.974 192.808C338.563 191.268 337.845 188.701 336.818 185.108C335.894 181.412 334.867 177.459 333.738 173.25C332.711 168.938 331.787 165.139 330.966 161.854C330.555 160.211 330.093 158.363 329.58 156.31C329.169 154.257 328.656 152.101 328.04 149.842C327.527 147.481 326.911 145.017 326.192 142.45C325.576 139.883 324.96 137.265 324.344 134.596C323.728 131.927 322.65 129.925 321.11 128.59C319.673 127.255 318.133 126.588 316.49 126.588C314.847 126.588 313.256 127.255 311.716 128.59C310.279 129.822 309.252 131.773 308.636 134.442C308.02 137.009 307.353 139.575 306.634 142.142C306.018 144.709 305.402 147.173 304.786 149.534C304.273 151.895 303.759 154.154 303.246 156.31C302.733 158.466 302.219 160.417 301.706 162.162C301.193 164.421 300.525 167.09 299.704 170.17C298.985 173.147 298.267 176.176 297.548 179.256C296.829 182.336 296.162 185.057 295.546 187.418C294.93 189.779 294.519 191.473 294.314 192.5C294.006 193.527 293.698 194.553 293.39 195.58C293.185 196.504 292.979 197.428 292.774 198.352C292.569 199.173 292.363 199.995 292.158 200.816C291.953 201.535 291.747 202.202 291.542 202.818C291.439 203.434 291.337 203.947 291.234 204.358C291.131 204.769 291.029 205.128 290.926 205.436C290.823 205.641 290.721 205.795 290.618 205.898C290.618 205.898 290.567 205.847 290.464 205.744C290.361 205.641 290.259 205.436 290.156 205.128C290.053 204.82 289.951 204.461 289.848 204.05C289.745 203.639 289.591 203.177 289.386 202.664C289.181 202.048 288.975 201.432 288.77 200.816C288.565 200.097 288.308 199.379 288 198.66C287.795 197.839 287.538 196.966 287.23 196.042C287.025 195.118 286.768 194.143 286.46 193.116C285.947 191.473 285.074 188.753 283.842 184.954C282.713 181.053 281.429 176.689 279.992 171.864C278.657 167.039 277.323 162.47 275.988 158.158C275.167 155.181 274.191 151.947 273.062 148.456C271.933 144.965 270.855 141.629 269.828 138.446C268.904 135.161 268.083 132.491 267.364 130.438Z" fill="white"/>
<path d="M446.881 187.11C449.448 187.11 451.347 186.443 452.579 185.108C453.914 183.671 454.581 182.028 454.581 180.18C454.581 178.332 453.914 176.741 452.579 175.406C451.347 173.969 449.448 173.25 446.881 173.25C443.493 173.25 440.208 173.25 437.025 173.25C433.842 173.25 430.557 173.25 427.169 173.25C423.884 173.25 420.239 173.25 416.235 173.25C413.155 173.25 410.434 173.763 408.073 174.79C405.712 175.714 403.761 177.151 402.221 179.102C400.681 181.053 399.5 183.517 398.679 186.494C397.858 189.369 397.447 192.757 397.447 196.658C397.447 198.609 397.447 200.816 397.447 203.28C397.447 205.744 397.447 208.311 397.447 210.98C397.447 213.547 397.447 216.062 397.447 218.526C397.447 220.887 397.447 222.992 397.447 224.84C397.447 226.893 397.909 228.587 398.833 229.922C399.757 231.154 400.886 231.975 402.221 232.386C403.658 232.797 405.044 232.797 406.379 232.386C407.816 231.975 408.997 231.154 409.921 229.922C410.845 228.587 411.307 226.893 411.307 224.84C411.307 220.939 411.307 216.267 411.307 210.826C411.307 205.385 411.307 199.635 411.307 193.578C411.307 187.418 411.307 181.361 411.307 175.406C411.307 169.451 411.307 163.959 411.307 158.928C411.307 153.795 411.307 149.585 411.307 146.3C411.307 144.452 411.358 143.117 411.461 142.296C411.666 141.372 412.18 140.807 413.001 140.602C413.925 140.294 415.414 140.14 417.467 140.14C420.136 140.14 423.473 140.14 427.477 140.14C431.481 140.14 435.536 140.14 439.643 140.14C443.75 140.14 447.292 140.14 450.269 140.14C452.836 140.14 454.735 139.473 455.967 138.138C457.302 136.701 457.969 135.058 457.969 133.21C457.969 131.362 457.302 129.771 455.967 128.436C454.735 126.999 452.836 126.28 450.269 126.28C445.854 126.28 441.44 126.28 437.025 126.28C432.713 126.28 428.812 126.28 425.321 126.28C421.933 126.28 419.315 126.28 417.467 126.28C412.539 126.28 408.586 127.05 405.609 128.59C402.734 130.027 400.63 132.235 399.295 135.212C398.063 138.189 397.447 141.885 397.447 146.3C397.447 148.148 397.447 151.023 397.447 154.924C397.447 158.825 397.447 163.343 397.447 168.476C397.447 173.609 397.447 178.999 397.447 184.646C397.447 190.19 397.447 195.631 397.447 200.97C397.447 206.206 397.447 210.929 397.447 215.138C397.447 219.347 397.447 222.581 397.447 224.84C397.447 226.893 397.909 228.587 398.833 229.922C399.757 231.154 400.886 231.975 402.221 232.386C403.658 232.797 405.044 232.797 406.379 232.386C407.816 231.975 408.997 231.154 409.921 229.922C410.845 228.587 411.307 226.893 411.307 224.84C411.307 222.068 411.307 219.245 411.307 216.37C411.307 213.393 411.307 210.569 411.307 207.9C411.307 205.128 411.307 202.664 411.307 200.508C411.307 198.249 411.307 196.453 411.307 195.118C411.307 193.065 411.358 191.473 411.461 190.344C411.666 189.112 412.128 188.291 412.847 187.88C413.566 187.367 414.695 187.11 416.235 187.11C418.904 187.11 422.19 187.11 426.091 187.11C429.992 187.11 433.842 187.11 437.641 187.11C441.542 187.11 444.622 187.11 446.881 187.11Z" fill="white"/>
</g>
<path fill-rule="evenodd" clip-rule="evenodd" d="M154.424 109.754C181.74 106.658 207.658 106.187 223.229 106.709C224.796 106.762 226.087 107.961 226.254 109.522C226.42 111.082 225.412 112.526 223.891 112.909C220.83 113.679 218.646 116.893 217.485 122.311C216.383 127.455 216.502 133.381 216.977 137.293C219.059 147.779 224.394 176.496 229.321 208.711C234.416 242.028 220.882 265.571 213.014 273.487L213.007 273.494C202.498 284.066 191.599 295.031 176.322 316.547C160.77 338.451 138.534 387.754 118.531 435.832C103.504 471.952 89.8557 507.08 81.3851 528.882C78.6094 536.027 76.3898 541.74 74.8597 545.588C74.8275 545.669 74.7923 545.749 74.7532 545.826C74.604 546.127 74.4453 546.462 74.2734 546.823C73.7143 548.002 73.0197 549.466 72.0846 550.946L91.7372 553.603C95.152 553.578 97.7494 552.917 99.9256 551.714C102.164 550.482 104.181 548.557 106.222 545.696C109.751 540.747 112.965 533.609 117.425 523.7C118.284 521.794 119.188 519.784 120.149 517.669C127.755 500.935 135.546 480.909 142.284 463.588L142.869 462.084C146.296 453.277 149.44 445.217 152.116 438.775C154.748 432.438 157.047 427.359 158.788 424.732C163.201 418.072 169.673 408.378 180.779 401.578C191.95 394.738 207.449 391.025 229.602 395.386H481.915C499.583 391.013 515.164 393.15 528.016 400.487C540.913 407.851 550.762 420.28 557.259 435.904C564.748 453.914 569.494 467.365 573.937 480.224C574.357 481.443 574.776 482.657 575.194 483.868C579.177 495.425 583.091 506.777 588.758 520.95C589.35 522.422 589.916 523.886 590.483 525.334C593.399 532.825 596.15 539.884 600.382 545.243C602.831 548.344 605.703 550.744 609.279 552.23C612.843 553.704 617.333 554.359 623.158 553.634L639.825 550.807C638.937 549.372 638.27 547.964 637.728 546.823C637.552 546.462 637.395 546.127 637.244 545.826C637.206 545.749 637.174 545.669 637.143 545.588C635.613 541.74 633.39 536.028 630.613 528.884C622.144 507.082 608.498 471.953 593.468 435.832C573.466 387.754 551.23 338.451 535.678 316.547C520.401 295.031 509.502 284.066 498.993 273.494L498.986 273.487C491.118 265.571 477.584 242.028 482.679 208.711C487.606 176.497 492.941 147.779 495.023 137.293C495.498 133.381 495.617 127.455 494.515 122.311C493.354 116.893 491.17 113.679 488.109 112.909C486.588 112.526 485.58 111.082 485.746 109.522C485.913 107.961 487.204 106.762 488.772 106.709C504.342 106.187 530.26 106.658 557.576 109.754C584.828 112.844 613.788 118.581 635.241 128.739C635.858 129.029 636.356 129.51 636.677 130.11C653.269 161.403 690.018 248.033 704.891 345.289C714.179 406.055 713.442 453.786 706.402 488.403C699.4 522.838 686 545.021 669.251 553.446C658.395 558.905 650.99 559.465 645.688 556.619C645.493 556.512 645.304 556.405 645.121 556.292L624.146 559.856C624.102 559.862 624.052 559.868 624.008 559.875C617.276 560.718 611.641 560.019 606.868 558.042C602.101 556.071 598.411 552.904 595.445 549.147C590.565 542.974 587.41 534.847 584.514 527.379C583.978 525.987 583.443 524.618 582.914 523.289C577.184 508.967 573.224 497.478 569.242 485.924C568.824 484.711 568.405 483.498 567.985 482.28C563.56 469.469 558.861 456.158 551.444 438.321C545.347 423.656 536.305 412.471 524.894 405.956C513.529 399.467 499.516 397.437 483.073 401.587C482.822 401.651 482.563 401.683 482.303 401.683H229.293C229.086 401.683 228.88 401.663 228.677 401.622C207.685 397.43 193.751 401.019 184.067 406.948C174.268 412.947 168.454 421.546 164.037 428.21C162.693 430.239 160.617 434.722 157.931 441.19C155.288 447.554 152.171 455.543 148.738 464.367L148.125 465.942C141.408 483.21 133.562 503.378 125.882 520.274C124.962 522.298 124.084 524.251 123.239 526.13C118.801 536.001 115.272 543.851 111.348 549.352C108.95 552.715 106.275 555.404 102.965 557.23C99.6354 559.062 95.8856 559.9 91.5313 559.9C91.3902 559.9 91.2492 559.894 91.1094 559.875L66.4533 556.537C66.4061 556.569 66.3589 556.594 66.3116 556.619C61.0116 559.465 53.6058 558.905 42.75 553.446C26.0003 545.021 12.5974 522.838 5.59624 488.403C-1.44216 453.786 -2.18047 406.055 7.11221 345.289C21.9854 248.033 58.7334 161.403 75.3231 130.11C75.6411 129.51 76.1442 129.029 76.7582 128.739C98.2148 118.581 127.17 112.844 154.424 109.754ZM64.0681 550.616C64.0152 550.65 63.9629 550.686 63.9119 550.725C63.7249 550.845 63.5309 550.965 63.3288 551.072C60.8 552.432 55.8639 552.992 45.5798 547.821C31.4736 540.725 18.65 521.003 11.7669 487.149C4.92071 453.477 4.11647 406.533 13.3367 346.241C27.9385 250.757 63.8458 165.547 80.3971 133.988C100.817 124.55 128.498 119.03 155.134 116.011C177.568 113.468 199.049 112.72 214.439 112.834C212.88 115.331 211.917 118.245 211.328 120.992C210.023 127.077 210.199 133.814 210.742 138.181C210.751 138.257 210.763 138.332 210.778 138.407C212.827 148.711 218.167 177.43 223.096 209.662C227.874 240.909 215.078 262.478 208.548 269.048C197.943 279.717 186.763 290.966 171.188 312.902C155.144 335.499 132.64 385.526 112.717 433.413C97.655 469.617 83.9467 504.901 75.4818 526.69C72.7502 533.719 70.5652 539.344 69.0558 543.142C68.8871 543.483 68.7227 543.819 68.5615 544.149C67.2304 546.875 66.0988 549.193 64.0681 550.616ZM647.829 550.543C648.093 550.738 648.377 550.914 648.672 551.072C651.198 552.432 656.134 552.992 666.423 547.821C680.528 540.725 693.349 521.003 700.231 487.149C707.082 453.477 707.882 406.533 698.663 346.241C684.061 250.757 648.156 165.547 631.602 133.988C611.181 124.55 583.5 119.03 556.866 116.011C534.432 113.468 512.952 112.72 497.561 112.834C499.12 115.331 500.083 118.245 500.672 120.992C501.977 127.077 501.8 133.814 501.258 138.181C501.254 138.218 501.248 138.254 501.243 138.29C501.236 138.329 501.229 138.368 501.222 138.407C499.173 148.711 493.833 177.43 488.904 209.662C484.126 240.909 496.922 262.478 503.452 269.048C514.057 279.717 525.237 290.966 540.812 312.902C556.856 335.499 579.36 385.526 599.28 433.413C614.342 469.617 628.05 504.9 636.52 526.689C639.252 533.719 641.437 539.344 642.942 543.143C643.112 543.483 643.276 543.82 643.44 544.149C644.699 546.734 645.782 548.951 647.621 550.388C647.696 550.437 647.766 550.489 647.829 550.543Z" fill="black"/>
<path fill-rule="evenodd" clip-rule="evenodd" d="M472.492 282.839C448.148 282.839 428.414 302.573 428.414 326.917C428.414 351.26 448.148 370.995 472.492 370.995C496.836 370.995 516.57 351.26 516.57 326.917C516.57 302.573 496.836 282.839 472.492 282.839ZM422.117 326.917C422.117 299.095 444.671 276.542 472.492 276.542C500.314 276.542 522.867 299.095 522.867 326.917C522.867 354.738 500.314 377.292 472.492 377.292C444.671 377.292 422.117 354.738 422.117 326.917Z" fill="white"/>
<path fill-rule="evenodd" clip-rule="evenodd" d="M239.508 282.839C215.164 282.839 195.43 302.573 195.43 326.917C195.43 351.26 215.164 370.995 239.508 370.995C263.852 370.995 283.586 351.26 283.586 326.917C283.586 302.573 263.852 282.839 239.508 282.839ZM189.133 326.917C189.133 299.095 211.686 276.542 239.508 276.542C267.329 276.542 289.883 299.095 289.883 326.917C289.883 354.738 267.329 377.292 239.508 377.292C211.686 377.292 189.133 354.738 189.133 326.917Z" fill="white"/>
<path fill-rule="evenodd" clip-rule="evenodd" d="M616.867 114.027V119.534C586.082 110.076 551.058 107.188 533.683 106.871V96.3271C550.726 92.3418 567.987 94.314 582.889 98.5927C597.542 102.798 609.714 109.177 616.867 114.027ZM584.627 92.5401C568.33 87.8615 548.953 85.6992 529.723 90.8274C528.345 91.1951 527.386 92.4431 527.386 93.8694V109.989C527.386 111.728 528.796 113.138 530.535 113.138C546.802 113.138 586.195 115.956 619.02 126.831C619.984 127.149 621.035 126.987 621.854 126.395C622.679 125.803 623.164 124.854 623.164 123.843V112.382C623.164 111.366 622.673 110.411 621.841 109.821C614.354 104.473 600.917 97.2174 584.627 92.5401Z" fill="black"/>
<path fill-rule="evenodd" clip-rule="evenodd" d="M92.9027 114.027V119.534C123.689 110.076 158.709 107.188 176.084 106.871V96.3271C159.041 92.3418 141.781 94.314 126.877 98.5927C112.228 102.798 100.054 109.177 92.9027 114.027ZM125.14 92.5401C141.438 87.8615 160.815 85.6992 180.045 90.8274C181.422 91.1951 182.381 92.4431 182.381 93.8694V109.989C182.381 111.728 180.972 113.138 179.233 113.138C162.966 113.138 123.572 115.956 90.7441 126.831C89.7845 127.149 88.7304 126.987 87.9105 126.395C87.0913 125.803 86.6058 124.854 86.6058 123.843V112.382C86.6058 111.366 87.097 110.411 87.9244 109.821C95.4114 104.473 108.849 97.2174 125.14 92.5401Z" fill="black"/>
<path fill-rule="evenodd" clip-rule="evenodd" d="M555.692 109.719C528.044 106.656 501.81 106.191 486.053 106.707C484.48 106.759 483.187 107.962 483.024 109.527C482.861 111.091 483.877 112.536 485.404 112.912C488.542 113.683 490.737 116.875 491.905 122.2C493.017 127.273 492.897 133.122 492.417 136.985C490.309 147.364 484.908 175.778 479.921 207.649C474.757 240.656 488.476 263.974 496.443 271.807L496.449 271.813C507.089 282.274 518.122 293.123 533.588 314.411C549.329 336.079 571.838 384.855 592.089 432.427C607.302 468.164 621.117 502.92 629.694 524.492C632.502 531.561 634.75 537.215 636.299 541.024C636.331 541.106 636.368 541.186 636.412 541.264C636.564 541.561 636.721 541.893 636.897 542.251C638.27 545.084 640.455 549.58 644.951 551.947C650.278 554.743 657.734 554.207 668.722 548.805C685.66 540.476 699.243 518.524 706.333 484.427C713.461 450.16 714.21 402.919 704.803 342.787C689.741 246.543 652.532 160.82 635.739 129.852C635.411 129.257 634.907 128.781 634.29 128.496C612.579 118.451 583.279 112.776 555.692 109.719ZM630.701 133.778C647.457 165.002 683.803 249.301 698.581 343.76C707.913 403.409 707.101 449.844 700.168 483.145C693.204 516.617 680.239 536.127 665.938 543.155C655.523 548.275 650.486 547.738 647.885 546.371C645.335 545.03 644.082 542.529 642.583 539.526C642.42 539.2 642.256 538.867 642.086 538.529C640.556 534.773 638.346 529.209 635.581 522.255C627.011 500.697 613.133 465.783 597.882 429.96C577.713 382.58 554.928 333.073 538.682 310.71C522.913 289.004 511.594 277.873 500.858 267.317C494.247 260.817 481.311 239.499 486.143 208.623C491.132 176.732 496.538 148.318 498.612 138.124C498.627 138.047 498.64 137.97 498.65 137.893C499.2 133.564 499.379 126.886 498.056 120.851C497.462 118.144 496.496 115.288 494.946 112.834C510.532 112.721 532.283 113.461 554.999 115.978C581.974 118.967 610.016 124.431 630.701 133.778Z" fill="black"/>
<path fill-rule="evenodd" clip-rule="evenodd" d="M156.308 109.719C183.956 106.656 210.19 106.191 225.947 106.707C227.52 106.759 228.813 107.962 228.976 109.527C229.139 111.091 228.123 112.536 226.596 112.912C223.458 113.683 221.263 116.875 220.095 122.2C218.983 127.273 219.103 133.122 219.583 136.985C221.691 147.364 227.092 175.777 232.079 207.649C237.243 240.656 223.524 263.974 215.557 271.807L215.551 271.813C204.912 282.274 193.878 293.123 178.412 314.411C162.671 336.079 140.162 384.855 119.911 432.427C104.698 468.164 90.8821 502.919 82.307 524.491C79.4967 531.561 77.2487 537.215 75.6997 541.024C75.6663 541.106 75.6298 541.186 75.5895 541.264C75.4383 541.561 75.2778 541.893 75.1033 542.251C73.7275 545.084 71.5431 549.58 67.0459 551.947C61.7218 554.743 54.267 554.207 43.2808 548.805C26.3385 540.476 12.758 518.524 5.66481 484.427C-1.46395 450.16 -2.21032 402.919 7.19866 342.787C22.2581 246.543 59.4657 160.82 76.2632 129.852C76.5863 129.257 77.0932 128.781 77.7084 128.496C99.4187 118.451 128.72 112.776 156.308 109.719ZM81.3001 133.778C64.5454 165.002 28.1998 249.301 13.4198 343.76C4.08662 403.409 4.90194 449.844 11.8297 483.145C18.7929 516.617 31.7638 536.127 46.059 543.155C56.4753 548.275 61.5153 547.738 64.1159 546.371C66.6662 545.03 67.9155 542.529 69.4154 539.527C69.5791 539.2 69.7453 538.867 69.916 538.529C71.4436 534.773 73.6551 529.209 76.4194 522.255C84.9894 500.697 98.8684 465.783 114.118 429.96C134.287 382.58 157.072 333.073 173.318 310.71C189.087 289.004 200.406 277.873 211.142 267.317C217.753 260.817 230.689 239.5 225.857 208.623C220.868 176.732 215.462 148.318 213.388 138.124C213.373 138.047 213.36 137.97 213.35 137.893C212.8 133.564 212.621 126.886 213.944 120.851C214.538 118.144 215.504 115.288 217.054 112.834C201.468 112.721 179.717 113.461 157.001 115.978C130.026 118.967 101.986 124.431 81.3001 133.778Z" fill="black"/>
<path fill-rule="evenodd" clip-rule="evenodd" d="M333.961 361.55C333.961 359.811 335.371 358.401 337.109 358.401H374.891C376.629 358.401 378.039 359.811 378.039 361.55C378.039 363.288 376.629 364.698 374.891 364.698H337.109C335.371 364.698 333.961 363.288 333.961 361.55Z" fill="white"/>
<path fill-rule="evenodd" clip-rule="evenodd" d="M128.719 244.656C132.45 240.675 138.769 240.675 142.5 244.656L155.094 258.089C156.735 259.84 157.648 262.15 157.648 264.549V285.987C157.648 291.203 153.419 295.432 148.203 295.432H123.016C117.799 295.432 113.57 291.203 113.57 285.987V264.549C113.57 262.15 114.484 259.84 116.125 258.089L128.719 244.656Z" fill="black"/>
<path fill-rule="evenodd" clip-rule="evenodd" d="M142.5 213.975C138.769 217.955 132.45 217.955 128.719 213.975L116.125 200.541C114.484 198.79 113.57 196.481 113.57 194.081V172.643C113.57 167.427 117.799 163.198 123.016 163.198H148.203C153.419 163.198 157.648 167.427 157.648 172.643V194.081C157.648 196.481 156.735 198.79 155.094 200.541L142.5 213.975Z" fill="black"/>
<path fill-rule="evenodd" clip-rule="evenodd" d="M120.269 222.424C124.249 226.156 124.249 232.474 120.269 236.206L106.836 248.8C105.085 250.441 102.775 251.354 100.375 251.354H78.9375C73.7212 251.354 69.4922 247.125 69.4922 241.909V216.721C69.4922 211.505 73.7212 207.276 78.9375 207.276H100.375C102.775 207.276 105.085 208.189 106.836 209.831L120.269 222.424Z" fill="black"/>
<path fill-rule="evenodd" clip-rule="evenodd" d="M150.95 236.206C146.97 232.474 146.97 226.156 150.95 222.424L164.383 209.831C166.134 208.189 168.444 207.276 170.844 207.276H192.281C197.498 207.276 201.727 211.505 201.727 216.721V241.909C201.727 247.125 197.498 251.354 192.281 251.354H170.844C168.444 251.354 166.134 250.441 164.383 248.8L150.95 236.206Z" fill="black"/>
<path fill-rule="evenodd" clip-rule="evenodd" d="M527.543 128.753C524.169 127.91 520.75 129.961 519.907 133.335L513.61 158.522C512.766 161.896 514.818 165.315 518.192 166.159C521.566 167.002 524.984 164.95 525.828 161.577L532.125 136.39C532.968 133.016 530.916 129.597 527.543 128.753Z" fill="black"/>
<path fill-rule="evenodd" clip-rule="evenodd" d="M184.457 128.753C187.831 127.91 191.25 129.961 192.093 133.335L198.39 158.522C199.234 161.896 197.182 165.315 193.808 166.159C190.434 167.002 187.016 164.95 186.172 161.577L179.875 136.39C179.032 133.016 181.084 129.597 184.457 128.753Z" fill="black"/>
<path fill-rule="evenodd" clip-rule="evenodd" d="M327.664 285.987C327.664 284.248 329.074 282.839 330.812 282.839H381.188C382.926 282.839 384.336 284.248 384.336 285.987C384.336 287.726 382.926 289.135 381.188 289.135H330.812C329.074 289.135 327.664 287.726 327.664 285.987Z" fill="white"/>
<path fill-rule="evenodd" clip-rule="evenodd" d="M315.07 273.393C315.07 271.655 316.48 270.245 318.219 270.245H393.781C395.52 270.245 396.93 271.655 396.93 273.393C396.93 275.132 395.52 276.542 393.781 276.542H318.219C316.48 276.542 315.07 275.132 315.07 273.393Z" fill="white"/>
<path d="M527.082 86.4432C527.102 86.1665 527.126 85.8279 527.154 85.4328C527.24 84.2286 527.364 82.5004 527.519 80.4043C527.828 76.2118 528.257 70.5483 528.738 64.663C529.218 58.7771 529.751 52.6726 530.266 47.5971C530.784 42.4988 531.279 38.4973 531.68 36.7765C532.491 33.2919 534.341 28.1682 537.099 23.1215C539.861 18.0684 543.496 13.1606 547.848 10.0385C549.227 9.04939 550.448 8.14048 551.565 7.30878C554.133 5.39688 556.153 3.89303 558.284 2.76089C561.271 1.17376 564.457 0.340616 569.62 0.340616C579.874 0.340616 593.856 6.43508 602.683 20.8282C604.872 24.396 607.175 30.3703 609.402 37.3907C611.624 44.3919 613.751 52.3686 615.6 59.8985C617.448 67.4268 619.017 74.5002 620.124 79.6919C620.678 82.2876 621.116 84.4125 621.415 85.888C621.52 86.4061 621.608 86.8442 621.678 87.1944C621.557 87.183 621.426 87.1705 621.285 87.1572C620.379 87.0719 619.065 86.95 617.434 86.8038C614.173 86.5113 609.643 86.1213 604.567 85.7314C594.422 84.9519 582.073 84.1704 573.322 84.1704C564.578 84.1704 552.795 84.7562 543.209 85.3408C538.414 85.6333 534.164 85.9258 531.113 86.1451C529.588 86.2548 528.362 86.3462 527.517 86.4102C527.359 86.4222 527.214 86.4332 527.082 86.4432Z" stroke="black" stroke-width="1.51125"/>
<path d="M526.755 80.6395C526.755 80.6395 552.182 76.3529 574.491 76.3529C596.8 76.3529 621.156 80.6395 621.156 80.6395C622.13 85.2183 622.715 88.0435 622.715 88.0435C622.715 88.0435 590.858 84.926 573.419 84.926C555.981 84.926 526.365 87.2641 526.365 87.2641C526.365 87.2641 526.365 84.6337 526.755 80.6395Z" fill="black"/>
<path d="M575.465 63.5908L572.348 66.1237C571.166 67.2853 570.47 68.8523 570.399 70.5077H579.947V67.9747H573.809C574.352 67.2192 575.049 66.5882 575.855 66.1237C576.821 65.5659 577.707 64.8774 578.485 64.0779C579.305 63.2089 579.758 62.0576 579.752 60.863C579.774 60.2599 579.664 59.6592 579.428 59.1035C579.192 58.5479 578.837 58.051 578.388 57.6481C577.436 56.8478 576.221 56.431 574.978 56.479C571.958 56.479 570.399 58.1352 570.399 61.3501H573.03C573.03 59.5965 573.712 58.7197 575.076 58.7197C575.347 58.6912 575.621 58.7253 575.878 58.8195C576.134 58.9138 576.365 59.0656 576.553 59.2632C576.741 59.4609 576.882 59.6991 576.963 59.9596C577.045 60.2201 577.066 60.4958 577.024 60.7656C577.018 61.3286 576.872 61.8813 576.6 62.3742C576.328 62.8672 575.938 63.2852 575.465 63.5908Z" fill="black"/>
<path d="M558.319 65.0521H561.242C562.703 65.0521 563.482 65.6366 563.58 66.9031C563.677 68.1696 563.775 69.3386 563.872 70.6051H567.087V70.2154C566.6 70.0206 566.405 69.5335 566.405 68.7541C566.4 68.491 566.433 68.2285 566.502 67.9747V67.2928C566.578 66.615 566.452 65.93 566.14 65.3235C565.828 64.7171 565.344 64.216 564.749 63.883C565.428 63.655 566.01 63.2032 566.399 62.6015C566.789 61.9998 566.962 61.2839 566.892 60.5707C566.932 60.0176 566.837 59.4632 566.617 58.9544C566.396 58.4456 566.056 57.9975 565.626 57.6481C564.741 56.9528 563.632 56.6062 562.508 56.6739H555.396V70.6051H558.319V65.0521ZM558.319 58.9146H561.924C563.288 58.9146 563.97 59.4991 563.97 60.7656C563.97 62.032 563.19 62.6166 561.729 62.6166H558.319V58.9146Z" fill="black"/>
<path d="M181.632 86.8583C181.612 86.5815 181.588 86.2429 181.56 85.8478C181.475 84.6436 181.35 82.9154 181.196 80.8193C180.887 76.6268 180.458 70.9633 179.977 65.078C179.496 59.1921 178.964 53.0876 178.448 48.0121C177.931 42.9138 177.436 38.9123 177.035 37.1915C176.223 33.707 174.374 28.5832 171.616 23.5365C168.854 18.4834 165.218 13.5756 160.866 10.4535C159.487 9.4644 158.267 8.55549 157.15 7.72379C154.582 5.81189 152.562 4.30804 150.431 3.1759C147.443 1.58876 144.258 0.755625 139.095 0.755625C128.84 0.755625 114.859 6.85009 106.031 21.2432C103.843 24.811 101.54 30.7853 99.312 37.8057C97.0905 44.8069 94.964 52.7836 93.1149 60.3135C91.2663 67.8418 89.6971 74.9152 88.59 80.107C88.0365 82.7026 87.5987 84.8275 87.2992 86.303C87.1941 86.8211 87.106 87.2592 87.036 87.6094C87.1571 87.598 87.2883 87.5855 87.4295 87.5723C88.3356 87.4869 89.6493 87.365 91.2801 87.2188C94.5414 86.9263 99.0718 86.5363 104.148 86.1464C114.292 85.3669 126.642 84.5854 135.393 84.5854C144.137 84.5854 155.92 85.1712 165.505 85.7559C170.3 86.0483 174.55 86.3408 177.601 86.5601C179.127 86.6698 180.353 86.7612 181.198 86.8252C181.356 86.8372 181.501 86.8482 181.632 86.8583Z" stroke="black" stroke-width="1.51125"/>
<path d="M181.96 81.0545C181.96 81.0545 156.533 76.7679 134.223 76.7679C111.914 76.7679 87.5587 81.0545 87.5587 81.0545C86.5845 85.6333 85.9999 88.4585 85.9999 88.4585C85.9999 88.4585 117.857 85.341 135.295 85.341C152.734 85.341 182.35 87.6791 182.35 87.6791C182.35 87.6791 182.35 85.0487 181.96 81.0545Z" fill="black"/>
<path d="M148.795 64.0324L145.734 66.5196C144.573 67.6602 143.89 69.1989 143.821 70.8244H153.195V68.3372H147.264C147.797 67.5953 148.482 66.9757 149.273 66.5196C150.222 65.9718 151.091 65.2958 151.856 64.5107C152.661 63.6574 153.106 62.5269 153.1 61.3539C153.122 60.7617 153.013 60.1718 152.782 59.6262C152.55 59.0806 152.202 58.5927 151.76 58.1971C150.826 57.4112 149.632 57.002 148.412 57.0491C145.447 57.0491 143.916 58.6754 143.916 61.8322H146.499C146.499 60.1103 147.169 59.2493 148.508 59.2493C148.774 59.2213 149.044 59.2548 149.295 59.3473C149.547 59.4399 149.774 59.5889 149.959 59.783C150.144 59.9771 150.282 60.2111 150.362 60.4668C150.442 60.7226 150.462 60.9934 150.421 61.2582C150.394 61.8175 150.232 62.3619 149.949 62.8449C149.665 63.328 149.27 63.7354 148.795 64.0324Z" fill="#020202"/>
<path d="M140.664 68.2415H133.872V57.1448H131.002V70.8244H140.664V68.2415Z" fill="#020202"/>
</g>
<defs>
<filter id="filter0_i_1_2" x="253.648" y="124.678" width="204.321" height="112.016" filterUnits="userSpaceOnUse" color-interpolation-filters="sRGB">
<feFlood flood-opacity="0" result="BackgroundImageFix"/>
<feBlend mode="normal" in="SourceGraphic" in2="BackgroundImageFix" result="shape"/>
<feColorMatrix in="SourceAlpha" type="matrix" values="0 0 0 0 0 0 0 0 0 0 0 0 0 0 0 0 0 0 127 0" result="hardAlpha"/>
<feOffset dy="4"/>
<feGaussianBlur stdDeviation="2"/>
<feComposite in2="hardAlpha" operator="arithmetic" k2="-1" k3="1"/>
<feColorMatrix type="matrix" values="0 0 0 0 0 0 0 0 0 0 0 0 0 0 0 0 0 0 0.5 0"/>
<feBlend mode="normal" in2="shape" result="effect1_innerShadow_1_2"/>
</filter>
<clipPath id="clip0_1_2">
<rect width="712" height="560" fill="white"/>
</clipPath>
<clipPath id="clip1_1_2">
<rect width="49.8713" height="49.8713" fill="white" transform="translate(555 268)"/>
</clipPath>
<clipPath id="clip2_1_2">
<rect width="49.8713" height="49.8713" fill="white" transform="translate(606 217)"/>
</clipPath>
<clipPath id="clip3_1_2">
<rect width="49.8713" height="49.8713" fill="white" transform="translate(555 166)"/>
</clipPath>
<clipPath id="clip4_1_2">
<rect width="49.8713" height="49.8713" fill="white" transform="translate(504 217)"/>
</clipPath>
</defs>
</svg>
