<svg width="806" height="806" viewBox="0 0 806 806" fill="none" xmlns="http://www.w3.org/2000/svg">
<path d="M52 491.5C54.3419 589.495 66.6431 620.059 108.5 630.5H128.5L194 491.5L250 467L450.5 471.5L569 467L696 631.5L731.5 617C757.421 561.812 759.277 526.349 752.5 459.5C738.719 360.144 726.782 305.127 681 211C675.833 209.165 670.851 207.472 666 205.915C664.149 205.32 666.317 190.555 664.5 190C640.056 173.318 607.711 165.691 579 173C576.384 172.871 579.72 190.809 577 190.725C563.625 190.314 548.908 190.443 532 191C427.455 172.306 371.352 170.929 277.5 191H262.5C250.511 190.727 236.844 194.334 226.5 191C219.03 188.592 230.654 175.942 224.5 172.5C214.669 167.001 187.86 171.031 179.5 172.5C165.064 175.036 150.02 179.396 137.5 191C134.118 194.134 140.009 199.995 137.5 205.5C136.303 208.126 127.365 212.216 125.5 213C77.7117 314.764 60.4351 375.307 52 491.5Z" fill="white"/>
<path fill-rule="evenodd" clip-rule="evenodd" d="M204.409 424.689C206.742 419.762 209.128 414.722 211.575 409.549C225.364 385.235 235.993 370.786 265.476 342.046C270.737 335.575 273.862 326.638 279.581 306.28C286.967 322.645 293.651 329.391 312.829 334.49H490.149C508.373 329.494 517.018 323.614 528.937 306.28L540.02 342.046C572.643 376.858 589.101 396.38 606.515 431.21C642.811 507.373 661.975 550.386 690.137 628.68L676.536 634.725C661.163 638.148 653.394 635.329 641.274 620.62C633.232 600.479 627.042 583.632 620.853 566.792C614.288 548.926 607.725 531.067 598.959 509.291C581.353 475.215 566.384 472.369 528.937 478.059H279.581C241.757 472.553 226.942 478.943 211.575 506.773L165.23 607.523C154.565 630.971 148.733 636.234 138.531 634.725L113.848 631.199C147.174 545.576 169.941 497.488 204.409 424.689ZM236.133 405.917C236.133 378.095 258.686 355.542 286.508 355.542C314.329 355.542 336.883 378.095 336.883 405.917C336.883 433.738 314.329 456.292 286.508 456.292C258.686 456.292 236.133 433.738 236.133 405.917ZM469.495 406.023C469.495 378.201 491.823 355.647 519.366 355.647C546.91 355.647 569.237 378.201 569.237 406.023C569.237 433.844 546.91 456.398 519.366 456.398C491.823 456.398 469.495 433.844 469.495 406.023Z" fill="black"/>
<path fill-rule="evenodd" clip-rule="evenodd" d="M430.704 414.764C429.581 416.179 426.833 417.189 426.833 417.189L406.385 424.533V419.117L421.433 413.755C423.141 413.143 423.403 412.278 422.015 411.824C420.63 411.369 418.121 411.499 416.412 412.114L406.385 415.645V410.024L406.963 409.828C406.963 409.828 409.86 408.803 413.934 408.352C418.009 407.903 422.997 408.413 426.914 409.897C431.327 411.292 431.824 413.348 430.704 414.764ZM408.331 405.54V391.688C408.331 390.061 408.031 388.564 406.505 388.14C405.336 387.765 404.61 388.85 404.61 390.476V425.165L395.255 422.196V380.835C399.233 381.573 405.028 383.319 408.143 384.369C416.066 387.089 418.752 390.475 418.752 398.103C418.752 405.537 414.163 408.355 408.331 405.54ZM378.089 418.551C373.558 417.275 372.804 414.616 374.869 413.085C376.778 411.67 380.024 410.606 380.024 410.606L393.438 405.836V411.274L383.785 414.728C382.08 415.34 381.818 416.206 383.203 416.66C384.59 417.114 387.1 416.985 388.808 416.372L393.438 414.692V419.556C393.144 419.608 392.817 419.661 392.514 419.711C387.883 420.468 382.95 420.153 378.089 418.551Z" fill="white"/>
<g clip-path="url(#clip0_1_2)">
<rect x="616.59" y="341.543" width="25.1875" height="5.0375" transform="rotate(45 616.59 341.543)" fill="#1BE4D8"/>
<rect x="612.56" y="359.678" width="25.1875" height="5.0375" transform="rotate(-45 612.56 359.678)" fill="#1BE4D8"/>
<path fill-rule="evenodd" clip-rule="evenodd" d="M623.391 336.651C614.697 336.651 607.648 343.699 607.648 352.393C607.648 361.087 614.697 368.135 623.391 368.135C632.087 368.135 639.133 361.087 639.133 352.393C639.133 343.699 632.087 336.651 623.391 336.651ZM601.352 352.393C601.352 340.221 611.219 330.354 623.391 330.354C635.562 330.354 645.43 340.221 645.43 352.393C645.43 364.565 635.562 374.432 623.391 374.432C611.219 374.432 601.352 364.565 601.352 352.393Z" fill="black"/>
</g>
<g clip-path="url(#clip1_1_2)">
<circle cx="674.018" cy="302.25" r="10.075" stroke="#FF3333" stroke-width="3.0225"/>
<path fill-rule="evenodd" clip-rule="evenodd" d="M673.766 286.276C665.07 286.276 658.023 293.324 658.023 302.018C658.023 310.712 665.07 317.76 673.766 317.76C682.462 317.76 689.508 310.712 689.508 302.018C689.508 293.324 682.462 286.276 673.766 286.276ZM651.727 302.018C651.727 289.846 661.594 279.979 673.766 279.979C685.937 279.979 695.805 289.846 695.805 302.018C695.805 314.19 685.937 324.057 673.766 324.057C661.594 324.057 651.727 314.19 651.727 302.018Z" fill="black"/>
</g>
<g clip-path="url(#clip2_1_2)">
<path d="M615.722 256.661L623.139 243.815L630.555 256.661H615.722Z" stroke="#70FF00" stroke-width="3.0225"/>
<path fill-rule="evenodd" clip-rule="evenodd" d="M623.391 235.901C614.697 235.901 607.648 242.949 607.648 251.643C607.648 260.337 614.697 267.385 623.391 267.385C632.087 267.385 639.133 260.337 639.133 251.643C639.133 242.949 632.087 235.901 623.391 235.901ZM601.352 251.643C601.352 239.471 611.219 229.604 623.391 229.604C635.562 229.604 645.43 239.471 645.43 251.643C645.43 263.815 635.562 273.682 623.391 273.682C611.219 273.682 601.352 263.815 601.352 251.643Z" fill="black"/>
</g>
<g clip-path="url(#clip3_1_2)">
<rect x="565.459" y="294.442" width="14.6088" height="14.6088" stroke="#F12AA2" stroke-width="2.51875"/>
<path fill-rule="evenodd" clip-rule="evenodd" d="M573.016 286.276C564.322 286.276 557.273 293.324 557.273 302.018C557.273 310.712 564.322 317.76 573.016 317.76C581.71 317.76 588.758 310.712 588.758 302.018C588.758 293.324 581.71 286.276 573.016 286.276ZM550.977 302.018C550.977 289.846 560.844 279.979 573.016 279.979C585.187 279.979 595.055 289.846 595.055 302.018C595.055 314.19 585.187 324.057 573.016 324.057C560.844 324.057 550.977 314.19 550.977 302.018Z" fill="black"/>
</g>
<path fill-rule="evenodd" clip-rule="evenodd" d="M295.379 182.269C323.266 176.017 378.62 172.932 409.262 172.932C441.249 172.932 483.689 174.794 517.025 182.269C531.206 185.449 538.796 190.725 542.286 197.47C545.686 204.041 544.699 211.21 543.929 216.65C540.866 238.279 536.581 264.217 531.694 293.801L531.68 293.889C529.127 309.341 522.68 320.11 514.19 326.997C505.731 333.858 495.508 336.651 485.744 336.651H320.542C307.776 336.651 297.874 333.425 290.703 327.893C283.522 322.352 279.341 314.697 277.683 306.335C274.49 290.224 269.863 264.525 264.668 235.669C263.915 231.486 263.15 227.236 262.376 222.94C259.761 208.428 262.058 199.025 268.833 192.816C272.085 189.836 276.159 187.802 280.618 186.221C285.07 184.643 290.109 183.451 295.379 182.269ZM409.262 179.229C378.718 179.229 323.938 182.319 296.757 188.413C291.468 189.599 286.773 190.72 282.721 192.157C278.675 193.59 275.474 195.271 273.087 197.459C268.583 201.586 266.142 208.337 268.573 221.823C269.348 226.121 270.113 230.371 270.866 234.553C276.063 263.425 280.678 289.059 283.86 305.11C285.262 312.181 288.729 318.417 294.55 322.908C300.382 327.407 308.835 330.354 320.542 330.354H485.744C494.335 330.354 503.08 327.9 510.223 322.106C517.336 316.337 523.125 307.043 525.467 292.863L525.472 292.835C530.366 263.202 534.641 237.323 537.693 215.767C538.499 210.078 539.041 204.901 536.693 200.363C534.435 196 529.001 191.407 515.647 188.413C483.011 181.096 441.137 179.229 409.262 179.229Z" fill="black"/>
<path fill-rule="evenodd" clip-rule="evenodd" d="M201.424 188.754C228.74 185.658 254.658 185.187 270.229 185.709C271.796 185.762 273.087 186.961 273.254 188.522C273.42 190.082 272.412 191.526 270.891 191.909C267.83 192.679 265.646 195.893 264.485 201.311C263.383 206.455 263.502 212.381 263.977 216.293C266.059 226.779 271.394 255.496 276.321 287.711C281.416 321.028 267.882 344.571 260.014 352.487L260.007 352.494C249.498 363.066 238.599 374.031 223.322 395.547C207.77 417.451 185.534 466.754 165.531 514.832C150.504 550.952 136.856 586.08 128.385 607.882C125.609 615.027 123.39 620.74 121.86 624.588C121.828 624.669 121.792 624.749 121.753 624.826C121.604 625.127 121.445 625.462 121.273 625.823C120.714 627.002 120.02 628.466 119.085 629.946L138.737 632.603C142.152 632.578 144.749 631.917 146.926 630.714C149.164 629.482 151.181 627.557 153.222 624.696C156.751 619.747 159.965 612.609 164.425 602.7C165.284 600.794 166.188 598.784 167.149 596.669C174.755 579.935 182.546 559.909 189.284 542.588L189.869 541.084C193.296 532.277 196.44 524.217 199.116 517.775C201.748 511.438 204.047 506.359 205.788 503.732C210.201 497.072 216.673 487.378 227.779 480.578C238.95 473.738 254.449 470.025 276.602 474.386H528.915C546.583 470.013 562.164 472.15 575.016 479.487C587.913 486.851 597.762 499.28 604.259 514.904C611.748 532.914 616.494 546.365 620.937 559.224C621.357 560.443 621.776 561.657 622.194 562.868C626.177 574.425 630.091 585.777 635.758 599.95C636.35 601.422 636.916 602.886 637.483 604.334C640.399 611.825 643.15 618.884 647.382 624.243C649.831 627.344 652.703 629.744 656.279 631.23C659.843 632.704 664.333 633.359 670.158 632.634L686.825 629.807C685.937 628.372 685.27 626.964 684.728 625.823C684.552 625.462 684.395 625.127 684.244 624.826C684.206 624.749 684.174 624.669 684.143 624.588C682.613 620.74 680.39 615.028 677.613 607.884C669.144 586.082 655.498 550.953 640.468 514.832C620.466 466.754 598.23 417.451 582.678 395.547C567.401 374.031 556.502 363.066 545.993 352.494L545.986 352.487C538.118 344.571 524.584 321.028 529.679 287.711C534.606 255.497 539.941 226.779 542.023 216.293C542.498 212.381 542.617 206.455 541.515 201.311C540.354 195.893 538.17 192.679 535.109 191.909C533.588 191.526 532.58 190.082 532.746 188.522C532.913 186.961 534.204 185.762 535.772 185.709C551.342 185.187 577.26 185.658 604.576 188.754C631.828 191.844 660.788 197.581 682.241 207.739C682.858 208.029 683.356 208.51 683.677 209.11C700.269 240.403 737.018 327.033 751.891 424.289C761.179 485.055 760.442 532.786 753.402 567.403C746.4 601.838 733 624.021 716.251 632.446C705.395 637.905 697.99 638.465 692.688 635.619C692.493 635.512 692.304 635.405 692.121 635.292L671.146 638.856C671.102 638.862 671.052 638.868 671.008 638.875C664.276 639.718 658.641 639.019 653.868 637.042C649.101 635.071 645.411 631.904 642.445 628.147C637.565 621.974 634.41 613.847 631.514 606.379C630.978 604.987 630.443 603.618 629.914 602.289C624.184 587.967 620.224 576.478 616.242 564.924C615.824 563.711 615.405 562.498 614.985 561.28C610.56 548.469 605.861 535.158 598.444 517.321C592.347 502.656 583.305 491.471 571.894 484.956C560.529 478.467 546.516 476.437 530.073 480.587C529.822 480.651 529.563 480.683 529.303 480.683H276.293C276.086 480.683 275.88 480.663 275.677 480.622C254.685 476.43 240.751 480.019 231.067 485.948C221.268 491.947 215.454 500.546 211.037 507.21C209.693 509.239 207.617 513.722 204.931 520.19C202.288 526.554 199.171 534.543 195.738 543.367L195.125 544.942C188.408 562.21 180.562 582.378 172.882 599.274C171.962 601.298 171.084 603.251 170.239 605.13C165.801 615.001 162.272 622.851 158.348 628.352C155.95 631.715 153.275 634.404 149.965 636.23C146.635 638.062 142.886 638.9 138.531 638.9C138.39 638.9 138.249 638.894 138.109 638.875L113.453 635.537C113.406 635.569 113.359 635.594 113.312 635.619C108.012 638.465 100.606 637.905 89.75 632.446C73.0003 624.021 59.5974 601.838 52.5962 567.403C45.5578 532.786 44.8195 485.055 54.1122 424.289C68.9854 327.033 105.733 240.403 122.323 209.11C122.641 208.51 123.144 208.029 123.758 207.739C145.215 197.581 174.17 191.844 201.424 188.754ZM111.068 629.616C111.015 629.65 110.963 629.686 110.912 629.725C110.725 629.845 110.531 629.965 110.329 630.072C107.8 631.432 102.864 631.992 92.5798 626.821C78.4736 619.725 65.65 600.003 58.7669 566.149C51.9207 532.477 51.1165 485.533 60.3367 425.241C74.9385 329.757 110.846 244.547 127.397 212.988C147.817 203.55 175.498 198.03 202.134 195.011C224.568 192.468 246.049 191.72 261.439 191.834C259.88 194.331 258.917 197.245 258.328 199.992C257.023 206.077 257.199 212.814 257.742 217.181C257.751 217.257 257.763 217.332 257.778 217.407C259.827 227.711 265.167 256.43 270.096 288.662C274.874 319.909 262.078 341.478 255.548 348.048C244.943 358.717 233.763 369.966 218.188 391.902C202.144 414.499 179.64 464.526 159.717 512.413C144.655 548.617 130.947 583.901 122.482 605.69C119.75 612.719 117.565 618.344 116.056 622.142C115.887 622.483 115.723 622.819 115.562 623.149C114.23 625.875 113.099 628.193 111.068 629.616ZM694.829 629.543C695.093 629.738 695.377 629.914 695.672 630.072C698.198 631.432 703.134 631.992 713.423 626.821C727.528 619.725 740.349 600.003 747.231 566.149C754.082 532.477 754.882 485.533 745.663 425.241C731.061 329.757 695.156 244.547 678.602 212.988C658.181 203.55 630.5 198.03 603.866 195.011C581.432 192.468 559.952 191.72 544.561 191.834C546.12 194.331 547.083 197.245 547.672 199.992C548.977 206.077 548.8 212.814 548.258 217.181C548.254 217.218 548.248 217.254 548.243 217.29C548.236 217.329 548.229 217.368 548.222 217.407C546.173 227.711 540.833 256.43 535.904 288.662C531.126 319.909 543.922 341.478 550.452 348.048C561.057 358.717 572.237 369.966 587.812 391.902C603.856 414.499 626.36 464.526 646.28 512.413C661.342 548.617 675.05 583.9 683.52 605.689C686.252 612.719 688.437 618.344 689.942 622.143C690.112 622.483 690.276 622.82 690.44 623.149C691.699 625.734 692.782 627.951 694.621 629.388C694.696 629.437 694.766 629.489 694.829 629.543Z" fill="black"/>
<path fill-rule="evenodd" clip-rule="evenodd" d="M519.492 361.839C495.148 361.839 475.414 381.573 475.414 405.917C475.414 430.26 495.148 449.995 519.492 449.995C543.836 449.995 563.57 430.26 563.57 405.917C563.57 381.573 543.836 361.839 519.492 361.839ZM469.117 405.917C469.117 378.095 491.671 355.542 519.492 355.542C547.314 355.542 569.867 378.095 569.867 405.917C569.867 433.738 547.314 456.292 519.492 456.292C491.671 456.292 469.117 433.738 469.117 405.917Z" fill="white"/>
<path fill-rule="evenodd" clip-rule="evenodd" d="M286.508 361.839C262.164 361.839 242.43 381.573 242.43 405.917C242.43 430.26 262.164 449.995 286.508 449.995C310.852 449.995 330.586 430.26 330.586 405.917C330.586 381.573 310.852 361.839 286.508 361.839ZM236.133 405.917C236.133 378.095 258.686 355.542 286.508 355.542C314.329 355.542 336.883 378.095 336.883 405.917C336.883 433.738 314.329 456.292 286.508 456.292C258.686 456.292 236.133 433.738 236.133 405.917Z" fill="white"/>
<path fill-rule="evenodd" clip-rule="evenodd" d="M663.867 193.027V198.534C633.082 189.076 598.058 186.188 580.683 185.871V175.327C597.726 171.342 614.987 173.314 629.889 177.593C644.542 181.798 656.714 188.177 663.867 193.027ZM631.627 171.54C615.33 166.862 595.953 164.699 576.723 169.827C575.345 170.195 574.386 171.443 574.386 172.869V188.989C574.386 190.728 575.796 192.138 577.535 192.138C593.802 192.138 633.195 194.956 666.02 205.831C666.984 206.149 668.035 205.987 668.854 205.395C669.679 204.803 670.164 203.854 670.164 202.843V191.382C670.164 190.366 669.673 189.411 668.841 188.821C661.354 183.473 647.917 176.217 631.627 171.54Z" fill="black"/>
<path fill-rule="evenodd" clip-rule="evenodd" d="M139.903 193.027V198.534C170.689 189.076 205.709 186.188 223.084 185.871V175.327C206.041 171.342 188.781 173.314 173.877 177.593C159.228 181.798 147.054 188.177 139.903 193.027ZM172.14 171.54C188.438 166.862 207.815 164.699 227.045 169.827C228.422 170.195 229.381 171.443 229.381 172.869V188.989C229.381 190.728 227.972 192.138 226.233 192.138C209.966 192.138 170.572 194.956 137.744 205.831C136.784 206.149 135.73 205.987 134.911 205.395C134.091 204.803 133.606 203.854 133.606 202.843V191.382C133.606 190.366 134.097 189.411 134.924 188.821C142.411 183.473 155.849 176.217 172.14 171.54Z" fill="black"/>
<path fill-rule="evenodd" clip-rule="evenodd" d="M602.692 188.719C575.044 185.656 548.81 185.191 533.053 185.707C531.48 185.759 530.187 186.962 530.024 188.527C529.861 190.091 530.877 191.536 532.404 191.912C535.542 192.683 537.737 195.875 538.905 201.2C540.017 206.273 539.897 212.122 539.417 215.985C537.309 226.364 531.908 254.778 526.921 286.649C521.757 319.656 535.476 342.974 543.443 350.807L543.449 350.813C554.089 361.274 565.122 372.123 580.588 393.411C596.329 415.079 618.838 463.855 639.089 511.427C654.302 547.164 668.117 581.92 676.694 603.492C679.502 610.561 681.75 616.215 683.299 620.024C683.331 620.106 683.368 620.186 683.412 620.264C683.564 620.561 683.721 620.893 683.897 621.251C685.27 624.084 687.455 628.58 691.951 630.947C697.278 633.743 704.734 633.207 715.722 627.805C732.66 619.476 746.243 597.524 753.333 563.427C760.461 529.16 761.21 481.919 751.803 421.787C736.741 325.543 699.532 239.82 682.739 208.852C682.411 208.257 681.907 207.781 681.29 207.496C659.579 197.451 630.279 191.776 602.692 188.719ZM677.701 212.778C694.457 244.002 730.803 328.301 745.581 422.76C754.913 482.409 754.101 528.844 747.168 562.145C740.204 595.617 727.239 615.127 712.938 622.155C702.523 627.275 697.486 626.738 694.885 625.371C692.335 624.03 691.082 621.529 689.583 618.526C689.42 618.2 689.256 617.867 689.086 617.529C687.556 613.773 685.346 608.209 682.581 601.255C674.011 579.697 660.133 544.783 644.882 508.96C624.713 461.58 601.928 412.073 585.682 389.71C569.913 368.004 558.594 356.873 547.858 346.317C541.247 339.817 528.311 318.499 533.143 287.623C538.132 255.732 543.538 227.318 545.612 217.124C545.627 217.047 545.64 216.97 545.65 216.893C546.2 212.564 546.379 205.886 545.056 199.851C544.462 197.144 543.496 194.288 541.946 191.834C557.532 191.721 579.283 192.461 601.999 194.978C628.974 197.967 657.016 203.431 677.701 212.778Z" fill="black"/>
<path fill-rule="evenodd" clip-rule="evenodd" d="M203.308 188.719C230.956 185.656 257.19 185.191 272.947 185.707C274.52 185.759 275.813 186.962 275.976 188.527C276.139 190.091 275.123 191.536 273.596 191.912C270.458 192.683 268.263 195.875 267.095 201.2C265.983 206.273 266.103 212.122 266.583 215.985C268.691 226.364 274.092 254.777 279.079 286.649C284.243 319.656 270.524 342.974 262.557 350.807L262.551 350.813C251.912 361.274 240.878 372.123 225.412 393.411C209.671 415.079 187.162 463.855 166.911 511.427C151.698 547.164 137.882 581.919 129.307 603.491C126.497 610.561 124.249 616.215 122.7 620.024C122.666 620.106 122.63 620.186 122.589 620.264C122.438 620.561 122.278 620.893 122.103 621.251C120.727 624.084 118.543 628.58 114.046 630.947C108.722 633.743 101.267 633.207 90.2808 627.805C73.3385 619.476 59.758 597.524 52.6648 563.427C45.5361 529.16 44.7897 481.919 54.1987 421.787C69.2581 325.543 106.466 239.82 123.263 208.852C123.586 208.257 124.093 207.781 124.708 207.496C146.419 197.451 175.72 191.776 203.308 188.719ZM128.3 212.778C111.545 244.002 75.1998 328.301 60.4198 422.76C51.0866 482.409 51.9019 528.844 58.8297 562.145C65.7929 595.617 78.7638 615.127 93.059 622.155C103.475 627.275 108.515 626.738 111.116 625.371C113.666 624.03 114.915 621.529 116.415 618.527C116.579 618.2 116.745 617.867 116.916 617.529C118.444 613.773 120.655 608.209 123.419 601.255C131.989 579.697 145.868 544.783 161.118 508.96C181.287 461.58 204.072 412.073 220.318 389.71C236.087 368.004 247.406 356.873 258.142 346.317C264.753 339.817 277.689 318.5 272.857 287.623C267.868 255.732 262.462 227.318 260.388 217.124C260.373 217.047 260.36 216.97 260.35 216.893C259.8 212.564 259.621 205.886 260.944 199.851C261.538 197.144 262.504 194.288 264.054 191.834C248.468 191.721 226.717 192.461 204.001 194.978C177.026 197.967 148.986 203.431 128.3 212.778Z" fill="black"/>
<path fill-rule="evenodd" clip-rule="evenodd" d="M380.961 440.55C380.961 438.811 382.371 437.401 384.109 437.401H421.891C423.629 437.401 425.039 438.811 425.039 440.55C425.039 442.288 423.629 443.698 421.891 443.698H384.109C382.371 443.698 380.961 442.288 380.961 440.55Z" fill="white"/>
<path fill-rule="evenodd" clip-rule="evenodd" d="M184.906 327.963C183.662 326.635 181.557 326.635 180.312 327.963L167.719 341.396C167.172 341.98 166.867 342.749 166.867 343.549V364.987C166.867 366.726 168.277 368.135 170.016 368.135H195.203C196.942 368.135 198.352 366.726 198.352 364.987V343.549C198.352 342.749 198.047 341.98 197.5 341.396L184.906 327.963ZM175.719 323.656C179.45 319.675 185.769 319.675 189.5 323.656L202.094 337.089C203.735 338.84 204.648 341.15 204.648 343.549V364.987C204.648 370.203 200.419 374.432 195.203 374.432H170.016C164.799 374.432 160.57 370.203 160.57 364.987V343.549C160.57 341.15 161.484 338.84 163.125 337.089L175.719 323.656Z" fill="black"/>
<path fill-rule="evenodd" clip-rule="evenodd" d="M180.312 288.668C181.557 289.994 183.662 289.994 184.906 288.668L197.5 275.235C198.047 274.651 198.352 273.881 198.352 273.081V251.643C198.352 249.904 196.942 248.495 195.203 248.495H170.016C168.277 248.495 166.867 249.904 166.867 251.643V273.081C166.867 273.881 167.172 274.651 167.719 275.235L180.312 288.668ZM189.5 292.975C185.769 296.955 179.45 296.955 175.719 292.975L163.125 279.541C161.484 277.79 160.57 275.481 160.57 273.081V251.643C160.57 246.427 164.799 242.198 170.016 242.198H195.203C200.419 242.198 204.648 246.427 204.648 251.643V273.081C204.648 275.481 203.735 277.79 202.094 279.541L189.5 292.975Z" fill="black"/>
<path fill-rule="evenodd" clip-rule="evenodd" d="M162.962 310.612C164.289 309.368 164.289 307.262 162.962 306.018L149.529 293.424C148.945 292.877 148.176 292.573 147.375 292.573H125.937C124.198 292.573 122.789 293.983 122.789 295.721V320.909C122.789 322.647 124.198 324.057 125.937 324.057H147.375C148.176 324.057 148.945 323.753 149.529 323.206L162.962 310.612ZM167.269 301.424C171.249 305.156 171.249 311.474 167.269 315.206L153.836 327.8C152.085 329.441 149.775 330.354 147.375 330.354H125.937C120.721 330.354 116.492 326.125 116.492 320.909V295.721C116.492 290.505 120.721 286.276 125.937 286.276H147.375C149.775 286.276 152.085 287.189 153.836 288.831L167.269 301.424Z" fill="black"/>
<path fill-rule="evenodd" clip-rule="evenodd" d="M202.257 306.018C200.93 307.262 200.93 309.368 202.257 310.612L215.69 323.206C216.274 323.753 217.043 324.057 217.844 324.057H239.281C241.02 324.057 242.43 322.647 242.43 320.909V295.721C242.43 293.983 241.02 292.573 239.281 292.573H217.844C217.043 292.573 216.274 292.877 215.69 293.424L202.257 306.018ZM197.95 315.206C193.97 311.474 193.97 305.156 197.95 301.424L211.383 288.831C213.134 287.189 215.444 286.276 217.844 286.276H239.281C244.498 286.276 248.727 290.505 248.727 295.721V320.909C248.727 326.125 244.498 330.354 239.281 330.354H217.844C215.444 330.354 213.134 329.441 211.383 327.8L197.95 315.206Z" fill="black"/>
<path fill-rule="evenodd" clip-rule="evenodd" d="M574.543 207.753C571.169 206.91 567.75 208.961 566.907 212.335L560.61 237.522C559.766 240.896 561.818 244.315 565.192 245.159C568.566 246.002 571.984 243.95 572.828 240.577L579.125 215.39C579.968 212.016 577.916 208.597 574.543 207.753Z" fill="black"/>
<path fill-rule="evenodd" clip-rule="evenodd" d="M231.457 207.753C234.831 206.91 238.25 208.961 239.093 212.335L245.39 237.522C246.234 240.896 244.182 244.315 240.808 245.159C237.434 246.002 234.016 243.95 233.172 240.577L226.875 215.39C226.032 212.016 228.084 208.597 231.457 207.753Z" fill="black"/>
<path fill-rule="evenodd" clip-rule="evenodd" d="M374.664 364.987C374.664 363.248 376.074 361.839 377.812 361.839H428.188C429.926 361.839 431.336 363.248 431.336 364.987C431.336 366.726 429.926 368.135 428.188 368.135H377.812C376.074 368.135 374.664 366.726 374.664 364.987Z" fill="white"/>
<path fill-rule="evenodd" clip-rule="evenodd" d="M362.07 352.393C362.07 350.655 363.48 349.245 365.219 349.245H440.781C442.52 349.245 443.93 350.655 443.93 352.393C443.93 354.132 442.52 355.542 440.781 355.542H365.219C363.48 355.542 362.07 354.132 362.07 352.393Z" fill="white"/>
<path d="M574.082 165.443C574.102 165.167 574.126 164.828 574.154 164.433C574.24 163.229 574.364 161.5 574.519 159.404C574.828 155.212 575.257 149.548 575.738 143.663C576.218 137.777 576.751 131.673 577.266 126.597C577.784 121.499 578.279 117.497 578.68 115.776C579.491 112.292 581.341 107.168 584.099 102.121C586.861 97.0684 590.496 92.1606 594.848 89.0385C596.227 88.0494 597.448 87.1405 598.565 86.3088C601.133 84.3969 603.153 82.893 605.284 81.7609C608.271 80.1738 611.457 79.3406 616.62 79.3406C626.874 79.3406 640.856 85.4351 649.683 99.8282C651.872 103.396 654.175 109.37 656.402 116.391C658.624 123.392 660.751 131.369 662.6 138.898C664.448 146.427 666.017 153.5 667.124 158.692C667.678 161.288 668.116 163.412 668.415 164.888C668.52 165.406 668.608 165.844 668.678 166.194C668.557 166.183 668.426 166.171 668.285 166.157C667.379 166.072 666.065 165.95 664.434 165.804C661.173 165.511 656.643 165.121 651.567 164.731C641.422 163.952 629.073 163.17 620.322 163.17C611.578 163.17 599.795 163.756 590.209 164.341C585.414 164.633 581.164 164.926 578.113 165.145C576.588 165.255 575.362 165.346 574.517 165.41C574.359 165.422 574.214 165.433 574.082 165.443Z" fill="white" stroke="black" stroke-width="1.51125"/>
<path d="M573.755 159.639C573.755 159.639 599.182 155.353 621.491 155.353C643.8 155.353 668.156 159.639 668.156 159.639C669.13 164.218 669.715 167.043 669.715 167.043C669.715 167.043 637.858 163.926 620.419 163.926C602.981 163.926 573.365 166.264 573.365 166.264C573.365 166.264 573.365 163.634 573.755 159.639Z" fill="black"/>
<path d="M622.465 142.591L619.348 145.124C618.166 146.285 617.47 147.852 617.399 149.508H626.947V146.975H620.809C621.352 146.219 622.049 145.588 622.855 145.124C623.821 144.566 624.707 143.877 625.485 143.078C626.305 142.209 626.758 141.058 626.752 139.863C626.774 139.26 626.664 138.659 626.428 138.104C626.192 137.548 625.837 137.051 625.388 136.648C624.436 135.848 623.221 135.431 621.978 135.479C618.958 135.479 617.399 137.135 617.399 140.35H620.03C620.03 138.597 620.712 137.72 622.076 137.72C622.347 137.691 622.621 137.725 622.878 137.82C623.134 137.914 623.365 138.066 623.553 138.263C623.741 138.461 623.882 138.699 623.963 138.96C624.045 139.22 624.066 139.496 624.024 139.766C624.018 140.329 623.872 140.881 623.6 141.374C623.328 141.867 622.938 142.285 622.465 142.591Z" fill="black"/>
<path d="M605.319 144.052H608.242C609.703 144.052 610.482 144.637 610.58 145.903C610.677 147.17 610.775 148.339 610.872 149.605H614.087V149.215C613.6 149.021 613.405 148.533 613.405 147.754C613.4 147.491 613.433 147.228 613.502 146.975V146.293C613.578 145.615 613.452 144.93 613.14 144.324C612.828 143.717 612.344 143.216 611.749 142.883C612.428 142.655 613.01 142.203 613.399 141.601C613.789 141 613.962 140.284 613.892 139.571C613.932 139.018 613.837 138.463 613.617 137.954C613.396 137.446 613.056 136.998 612.626 136.648C611.741 135.953 610.632 135.606 609.508 135.674H602.396V149.605H605.319V144.052ZM605.319 137.915H608.924C610.288 137.915 610.97 138.499 610.97 139.766C610.97 141.032 610.19 141.617 608.729 141.617H605.319V137.915Z" fill="black"/>
<path d="M227.887 165.457C227.763 165.448 227.626 165.437 227.477 165.426C226.647 165.363 225.443 165.274 223.945 165.166C220.949 164.95 216.776 164.663 212.067 164.376C202.655 163.802 191.084 163.227 182.498 163.227C173.904 163.227 161.778 163.994 151.816 164.76C146.832 165.142 142.383 165.525 139.181 165.813C137.58 165.956 136.29 166.076 135.4 166.16C135.268 166.172 135.145 166.184 135.032 166.194C135.1 165.854 135.185 165.43 135.287 164.93C135.581 163.481 136.011 161.394 136.554 158.846C137.641 153.748 139.182 146.802 140.997 139.41C142.813 132.016 144.901 124.184 147.082 117.31C149.269 110.416 151.53 104.551 153.678 101.049C162.344 86.9202 176.069 80.9384 186.133 80.9384C191.201 80.9384 194.327 81.7561 197.258 83.3134C199.35 84.4245 201.332 85.9003 203.853 87.7773C204.95 88.5941 206.149 89.4868 207.503 90.4586C211.774 93.5226 215.343 98.3398 218.055 103.301C220.763 108.255 222.578 113.285 223.375 116.706C223.768 118.394 224.254 122.323 224.762 127.329C225.268 132.313 225.791 138.307 226.263 144.086C226.735 149.865 227.157 155.427 227.46 159.543C227.612 161.602 227.734 163.299 227.818 164.481C227.845 164.861 227.868 165.189 227.887 165.457Z" fill="white" stroke="black" stroke-width="1.51125"/>
<path d="M228.224 159.773C228.224 159.773 203.256 155.564 181.35 155.564C159.443 155.564 135.528 159.773 135.528 159.773C134.571 164.269 133.997 167.044 133.997 167.044C133.997 167.044 165.279 163.982 182.402 163.982C199.526 163.982 228.607 166.278 228.607 166.278C228.607 166.278 228.607 163.695 228.224 159.773Z" fill="black"/>
<path d="M195.795 143.032L192.734 145.52C191.573 146.66 190.89 148.199 190.821 149.824H200.195V147.337H194.264C194.797 146.595 195.482 145.976 196.273 145.52C197.222 144.972 198.091 144.296 198.856 143.511C199.661 142.657 200.106 141.527 200.1 140.354C200.122 139.762 200.013 139.172 199.782 138.626C199.55 138.081 199.202 137.593 198.76 137.197C197.826 136.411 196.632 136.002 195.412 136.049C192.447 136.049 190.916 137.675 190.916 140.832H193.499C193.499 139.11 194.169 138.249 195.508 138.249C195.774 138.221 196.044 138.255 196.295 138.347C196.547 138.44 196.774 138.589 196.959 138.783C197.144 138.977 197.282 139.211 197.362 139.467C197.442 139.723 197.462 139.993 197.421 140.258C197.394 140.818 197.232 141.362 196.949 141.845C196.665 142.328 196.27 142.735 195.795 143.032Z" fill="#020202"/>
<path d="M187.664 147.242H180.872V136.145H178.002V149.824H187.664V147.242Z" fill="#020202"/>
<defs>
<clipPath id="clip0_1_2">
<rect width="44.33" height="44.33" fill="white" transform="translate(601.477 330.46)"/>
</clipPath>
<clipPath id="clip1_1_2">
<rect width="44.33" height="44.33" fill="white" transform="translate(651.852 280.085)"/>
</clipPath>
<clipPath id="clip2_1_2">
<rect width="44.33" height="44.33" fill="white" transform="translate(601.477 229.71)"/>
</clipPath>
<clipPath id="clip3_1_2">
<rect width="44.33" height="44.33" fill="white" transform="translate(551.102 280.085)"/>
</clipPath>
</defs>
</svg>
