<svg width="712" height="560" viewBox="0 0 712 560" fill="none" xmlns="http://www.w3.org/2000/svg">
<g clip-path="url(#clip0_1_2)">
<path d="M60.0001 551.5C18.1432 541.059 5.84194 510.495 3.50006 412.5C11.9352 296.307 29.2117 235.764 77.0001 134C78.8651 133.216 87.8031 129.126 89.0001 126.5C91.509 120.996 85.6182 115.134 89.0001 112C101.52 100.396 116.564 96.0365 131 93.5001C139.36 92.0313 166.169 88.001 176 93.5001C182.154 96.9425 170.53 109.592 178 112C188.344 115.334 202.011 111.727 214 112H229C322.852 91.9294 378.955 93.3065 483.5 112C500.408 111.443 515.125 111.314 528.5 111.725C531.22 111.809 527.884 93.8706 530.5 94.0001C559.211 86.6907 591.556 94.3182 616 111C617.817 111.555 615.649 126.32 617.5 126.915C622.351 128.472 627.333 130.165 632.5 132C678.282 226.127 690.219 281.144 704 380.5C710.777 447.349 708.921 482.812 683 538L647.5 552.5L520.5 388L402 392.5L201.5 388L145.5 412.5L80.0001 551.5H60.0001Z" fill="#5FFFD8"/>
<path d="M108.5 16.5C97.5914 38.294 93.6531 53.2063 88 81.5002L181.5 83.0002L178 39.5001C174.989 27.3104 171.772 21.651 163 12C152.484 2.26257 146.686 -0.0951702 133.5 1.00003C122.35 4.41977 116.937 7.92906 108.5 16.5Z" fill="#5FFFD8"/>
<path d="M528.5 80.0001L620 82.0001C616.114 58.9652 613.191 46.1717 604 24C603.099 11.2204 576.931 -0.789802 572 1C569.455 -0.419362 553 3 549 10C546.125 10.7945 533.166 23.7397 531 40L528.5 80.0001Z" fill="#5FFFD8"/>
<path fill-rule="evenodd" clip-rule="evenodd" d="M157.409 345.689C159.742 340.762 162.128 335.722 164.575 330.549C178.364 306.235 188.993 291.786 218.476 263.046C223.737 256.575 226.862 247.638 232.581 227.28C239.967 243.645 246.651 250.391 265.829 255.49H443.149C461.373 250.494 470.018 244.614 481.937 227.28L493.02 263.046C525.643 297.858 542.101 317.38 559.515 352.21C595.811 428.373 614.975 471.386 643.137 549.68L629.536 555.725C614.163 559.148 606.394 556.329 594.274 541.62C586.232 521.479 580.042 504.632 573.853 487.792C567.288 469.926 560.725 452.067 551.959 430.291C534.353 396.215 519.384 393.369 481.937 399.059H232.581C194.757 393.553 179.942 399.943 164.575 427.773L118.23 528.523C107.565 551.971 101.733 557.234 91.5313 555.725L66.8475 552.199C100.174 466.576 122.941 418.488 157.409 345.689ZM189.133 326.917C189.133 299.095 211.686 276.542 239.508 276.542C267.329 276.542 289.883 299.095 289.883 326.917C289.883 354.738 267.329 377.292 239.508 377.292C211.686 377.292 189.133 354.738 189.133 326.917ZM422.495 327.023C422.495 299.201 444.823 276.647 472.366 276.647C499.91 276.647 522.237 299.201 522.237 327.023C522.237 354.844 499.91 377.398 472.366 377.398C444.823 377.398 422.495 354.844 422.495 327.023Z" fill="black"/>
<path fill-rule="evenodd" clip-rule="evenodd" d="M383.704 335.764C382.581 337.179 379.833 338.189 379.833 338.189L359.385 345.533V340.117L374.433 334.755C376.141 334.143 376.403 333.278 375.015 332.824C373.63 332.369 371.121 332.499 369.412 333.114L359.385 336.645V331.024L359.963 330.828C359.963 330.828 362.86 329.803 366.934 329.352C371.009 328.903 375.997 329.413 379.914 330.897C384.327 332.292 384.824 334.348 383.704 335.764ZM361.331 326.54V312.688C361.331 311.061 361.031 309.564 359.505 309.14C358.336 308.765 357.61 309.85 357.61 311.476V346.165L348.255 343.196V301.835C352.233 302.573 358.028 304.319 361.143 305.369C369.066 308.089 371.752 311.475 371.752 319.103C371.752 326.537 367.163 329.355 361.331 326.54ZM331.089 339.551C326.558 338.275 325.804 335.616 327.869 334.085C329.778 332.67 333.024 331.606 333.024 331.606L346.438 326.836V332.274L336.785 335.728C335.08 336.34 334.818 337.206 336.203 337.66C337.59 338.114 340.1 337.985 341.808 337.372L346.438 335.692V340.556C346.144 340.608 345.817 340.661 345.514 340.711C340.883 341.468 335.95 341.153 331.089 339.551Z" fill="white"/>
<g clip-path="url(#clip1_1_2)">
<path fill-rule="evenodd" clip-rule="evenodd" d="M554.858 292.675C554.858 278.982 565.959 267.881 579.652 267.881C593.346 267.881 604.446 278.982 604.446 292.675C604.446 306.368 593.346 317.469 579.652 317.469C565.959 317.469 554.858 306.368 554.858 292.675Z" fill="black"/>
<rect x="571" y="282" width="28.3359" height="3" transform="rotate(45 571 282)" fill="#1BE4D8"/>
<rect x="569" y="302" width="28.3359" height="3" transform="rotate(-45 569 302)" fill="#1BE4D8"/>
</g>
<g clip-path="url(#clip2_1_2)">
<path fill-rule="evenodd" clip-rule="evenodd" d="M605.858 241.675C605.858 227.982 616.959 216.881 630.652 216.881C644.346 216.881 655.446 227.982 655.446 241.675C655.446 255.368 644.346 266.469 630.652 266.469C616.959 266.469 605.858 255.368 605.858 241.675Z" fill="black"/>
<circle cx="630.5" cy="241.5" r="12.5" stroke="#FF3333" stroke-width="2.5"/>
</g>
<g clip-path="url(#clip3_1_2)">
<path fill-rule="evenodd" clip-rule="evenodd" d="M554.858 190.675C554.858 176.982 565.959 165.881 579.652 165.881C593.346 165.881 604.446 176.982 604.446 190.675C604.446 204.368 593.346 215.469 579.652 215.469C565.959 215.469 554.858 204.368 554.858 190.675Z" fill="black"/>
<path d="M569.175 197.25L580 178.5L590.825 197.25H569.175Z" stroke="#70FF00" stroke-width="2.5"/>
</g>
<g clip-path="url(#clip4_1_2)">
<path fill-rule="evenodd" clip-rule="evenodd" d="M503.858 241.675C503.858 227.982 514.959 216.881 528.652 216.881C542.346 216.881 553.446 227.982 553.446 241.675C553.446 255.368 542.346 266.469 528.652 266.469C514.959 266.469 503.858 255.368 503.858 241.675Z" fill="black"/>
<rect x="517.25" y="230.25" width="22.5" height="22.5" stroke="#F12AA2" stroke-width="2.5"/>
</g>
<path fill-rule="evenodd" clip-rule="evenodd" d="M248.055 103.269C275.943 97.0166 331.296 93.9323 361.938 93.9323C393.925 93.9323 436.365 95.7943 469.702 103.269C483.882 106.449 491.473 111.725 494.962 118.47C498.363 125.041 497.375 132.21 496.605 137.65C493.542 159.279 489.258 185.217 484.371 214.801L484.356 214.889C481.804 230.341 475.356 241.11 466.866 247.997C458.408 254.858 448.185 257.651 438.42 257.651H273.218C260.452 257.651 250.55 254.425 243.38 248.893C236.199 243.352 232.018 235.697 230.36 227.335C227.166 211.224 222.54 185.525 217.345 156.669C216.592 152.486 215.827 148.236 215.053 143.94C212.437 129.428 214.734 120.025 221.509 113.816C224.762 110.836 228.835 108.802 233.294 107.221C237.747 105.643 242.786 104.451 248.055 103.269ZM361.938 100.229C331.395 100.229 276.614 103.319 249.433 109.413C244.144 110.599 239.449 111.72 235.397 113.157C231.352 114.59 228.151 116.271 225.764 118.459C221.26 122.586 218.819 129.337 221.25 142.823C222.024 147.121 222.789 151.371 223.542 155.553C228.74 184.425 233.355 210.059 236.537 226.11C237.939 233.181 241.406 239.417 247.227 243.908C253.058 248.407 261.512 251.354 273.218 251.354H438.42C447.012 251.354 455.757 248.9 462.9 243.106C470.012 237.337 475.801 228.043 478.144 213.863L478.148 213.835C483.043 184.202 487.318 158.323 490.37 136.767C491.175 131.078 491.717 125.901 489.37 121.363C487.112 117 481.677 112.407 468.324 109.413C435.688 102.096 393.814 100.229 361.938 100.229Z" fill="black"/>
<g filter="url(#filter0_i_1_2)">
<path d="M265.512 139.916C265.318 139.252 264.986 138.81 264.516 138.589C264.046 138.34 263.576 138.298 263.106 138.464C262.636 138.603 262.277 138.893 262.028 139.335C261.779 139.778 261.751 140.331 261.945 140.994C262.138 141.575 262.36 142.308 262.608 143.193C262.885 144.05 263.175 144.948 263.479 145.889C263.784 146.829 264.06 147.714 264.309 148.543C264.641 149.677 264.973 150.81 265.304 151.944C265.636 153.05 265.954 154.129 266.258 155.179C266.59 156.23 266.894 157.225 267.171 158.166C267.309 158.636 267.447 159.106 267.586 159.576C267.724 160.018 267.862 160.461 268 160.903C268.139 161.345 268.277 161.802 268.415 162.272C268.581 162.714 268.733 163.184 268.871 163.682C269.037 164.18 269.203 164.705 269.369 165.258C269.535 165.811 269.784 166.267 270.116 166.627C270.447 166.959 270.821 167.18 271.236 167.29C271.65 167.401 272.051 167.401 272.438 167.29C272.853 167.18 273.226 166.945 273.558 166.585C273.89 166.226 274.139 165.742 274.305 165.134C274.471 164.525 274.623 163.958 274.761 163.433C274.899 162.908 275.038 162.41 275.176 161.94C275.314 161.47 275.438 161.014 275.549 160.571C275.687 160.129 275.812 159.686 275.922 159.244C276.061 158.802 276.185 158.345 276.296 157.875C276.434 157.295 276.586 156.659 276.752 155.967C276.945 155.248 277.139 154.474 277.333 153.645C277.554 152.815 277.789 151.916 278.038 150.949C278.287 149.981 278.549 148.944 278.826 147.838C279.019 147.036 279.268 146.359 279.572 145.806C279.876 145.253 280.153 144.755 280.402 144.312C280.651 143.87 280.83 143.4 280.941 142.902C281.052 142.377 281.024 141.755 280.858 141.036C280.692 140.317 280.402 139.778 279.987 139.418C279.6 139.059 279.185 138.879 278.743 138.879C278.3 138.879 277.872 139.059 277.457 139.418C277.07 139.75 276.793 140.275 276.627 140.994C276.462 141.686 276.434 142.294 276.545 142.819C276.655 143.345 276.835 143.842 277.084 144.312C277.36 144.783 277.651 145.308 277.955 145.889C278.259 146.442 278.508 147.119 278.701 147.921C278.978 149.027 279.24 150.064 279.489 151.032C279.738 151.999 279.959 152.898 280.153 153.728C280.374 154.557 280.582 155.331 280.775 156.05C280.969 156.742 281.135 157.378 281.273 157.958C281.383 158.428 281.494 158.898 281.605 159.368C281.743 159.838 281.867 160.308 281.978 160.779C282.088 161.249 282.199 161.733 282.31 162.23C282.448 162.7 282.572 163.198 282.683 163.723C282.821 164.221 282.946 164.746 283.056 165.299C283.195 165.825 283.416 166.253 283.72 166.585C284.052 166.917 284.425 167.124 284.84 167.207C285.282 167.318 285.725 167.318 286.167 167.207C286.609 167.097 287.01 166.876 287.37 166.544C287.757 166.212 288.047 165.77 288.241 165.217C288.462 164.664 288.656 164.124 288.821 163.599C288.987 163.074 289.153 162.576 289.319 162.106C289.485 161.608 289.637 161.138 289.775 160.696C289.914 160.226 290.038 159.769 290.149 159.327C290.287 158.884 290.425 158.456 290.563 158.041C290.812 157.239 291.061 156.437 291.31 155.636C291.559 154.834 291.808 154.018 292.057 153.188C292.305 152.359 292.568 151.488 292.845 150.575C293.121 149.635 293.412 148.64 293.716 147.589C293.965 146.815 294.2 146.041 294.421 145.266C294.67 144.465 294.905 143.704 295.126 142.985C295.347 142.239 295.541 141.575 295.707 140.994C295.928 140.331 295.9 139.778 295.624 139.335C295.375 138.893 295.015 138.603 294.545 138.464C294.075 138.298 293.605 138.34 293.135 138.589C292.693 138.81 292.361 139.252 292.14 139.916C291.974 140.497 291.766 141.16 291.517 141.907C291.296 142.626 291.061 143.4 290.812 144.23C290.563 145.059 290.315 145.902 290.066 146.76C289.789 147.727 289.499 148.723 289.195 149.746C288.891 150.741 288.6 151.709 288.324 152.649C288.047 153.562 287.798 154.377 287.577 155.096C287.356 155.788 287.19 156.327 287.079 156.714C286.997 156.963 286.914 157.212 286.831 157.46C286.748 157.709 286.665 157.972 286.582 158.249C286.499 158.497 286.416 158.746 286.333 158.995C286.278 159.216 286.222 159.424 286.167 159.617C286.112 159.811 286.056 159.977 286.001 160.115C285.973 160.253 285.946 160.364 285.918 160.447C285.89 160.502 285.863 160.544 285.835 160.571C285.835 160.599 285.821 160.599 285.794 160.571C285.794 160.544 285.78 160.488 285.752 160.405C285.752 160.322 285.738 160.226 285.711 160.115C285.683 160.004 285.642 159.866 285.586 159.7C285.531 159.507 285.476 159.299 285.42 159.078C285.365 158.829 285.296 158.58 285.213 158.331C285.158 158.055 285.089 157.792 285.006 157.543C284.923 157.267 284.854 156.99 284.798 156.714C284.688 156.299 284.494 155.608 284.218 154.64C283.969 153.645 283.692 152.58 283.388 151.446C283.112 150.285 282.863 149.262 282.642 148.377C282.531 147.935 282.406 147.437 282.268 146.884C282.158 146.331 282.019 145.75 281.853 145.142C281.715 144.506 281.549 143.842 281.356 143.151C281.19 142.46 281.024 141.755 280.858 141.036C280.692 140.317 280.402 139.778 279.987 139.418C279.6 139.059 279.185 138.879 278.743 138.879C278.3 138.879 277.872 139.059 277.457 139.418C277.07 139.75 276.793 140.275 276.627 140.994C276.462 141.686 276.282 142.377 276.088 143.068C275.922 143.759 275.756 144.423 275.591 145.059C275.452 145.695 275.314 146.303 275.176 146.884C275.038 147.465 274.899 147.99 274.761 148.46C274.623 149.068 274.443 149.787 274.222 150.617C274.028 151.419 273.835 152.234 273.641 153.064C273.448 153.894 273.268 154.626 273.102 155.262C272.936 155.898 272.825 156.354 272.77 156.631C272.687 156.907 272.604 157.184 272.521 157.46C272.466 157.709 272.411 157.958 272.355 158.207C272.3 158.428 272.245 158.649 272.189 158.871C272.134 159.064 272.079 159.244 272.024 159.41C271.996 159.576 271.968 159.714 271.941 159.825C271.913 159.935 271.885 160.032 271.858 160.115C271.83 160.17 271.802 160.212 271.775 160.239C271.775 160.239 271.761 160.226 271.733 160.198C271.706 160.17 271.678 160.115 271.65 160.032C271.623 159.949 271.595 159.852 271.567 159.742C271.54 159.631 271.498 159.507 271.443 159.368C271.388 159.202 271.332 159.037 271.277 158.871C271.222 158.677 271.153 158.484 271.07 158.29C271.014 158.069 270.945 157.834 270.862 157.585C270.807 157.336 270.738 157.073 270.655 156.797C270.517 156.354 270.282 155.622 269.95 154.599C269.646 153.548 269.3 152.373 268.913 151.073C268.553 149.774 268.194 148.543 267.834 147.382C267.613 146.58 267.351 145.709 267.046 144.769C266.742 143.829 266.452 142.93 266.175 142.073C265.927 141.188 265.705 140.469 265.512 139.916Z" fill="#FF5CE5"/>
<path d="M318.857 141.368C319.217 140.759 319.313 140.206 319.147 139.709C318.981 139.211 318.677 138.851 318.235 138.63C317.82 138.381 317.364 138.326 316.866 138.464C316.368 138.575 315.954 138.934 315.622 139.543C315.318 140.068 315.014 140.593 314.709 141.119C314.433 141.644 314.156 142.17 313.88 142.695C313.603 143.22 313.327 143.746 313.05 144.271C312.47 145.294 311.944 146.234 311.474 147.091C311.004 147.949 310.534 148.806 310.064 149.663C309.594 150.52 309.082 151.46 308.529 152.483C308.004 153.451 307.548 154.488 307.161 155.594C306.801 156.7 306.622 157.903 306.622 159.202C306.622 159.866 306.622 160.488 306.622 161.069C306.622 161.622 306.622 162.147 306.622 162.645C306.622 163.143 306.622 163.613 306.622 164.055C306.622 164.498 306.622 164.926 306.622 165.341C306.622 165.894 306.746 166.35 306.995 166.71C307.244 167.041 307.548 167.263 307.907 167.373C308.294 167.484 308.668 167.484 309.027 167.373C309.414 167.263 309.732 167.041 309.981 166.71C310.23 166.35 310.354 165.894 310.354 165.341C310.354 164.733 310.354 164.124 310.354 163.516C310.354 162.88 310.354 162.203 310.354 161.484C310.354 160.765 310.354 159.991 310.354 159.161C310.354 157.861 310.271 156.811 310.106 156.009C309.967 155.179 309.732 154.447 309.4 153.811C309.069 153.175 308.654 152.497 308.156 151.778C307.686 151.032 307.119 150.092 306.456 148.958C306.013 148.184 305.598 147.451 305.211 146.76C304.852 146.068 304.479 145.377 304.092 144.686C303.732 143.967 303.331 143.206 302.889 142.405C302.446 141.575 301.949 140.635 301.396 139.584C301.064 138.948 300.649 138.575 300.151 138.464C299.654 138.326 299.184 138.381 298.741 138.63C298.299 138.851 297.995 139.211 297.829 139.709C297.663 140.179 297.746 140.718 298.077 141.326C298.658 142.405 299.17 143.359 299.612 144.188C300.055 145.018 300.455 145.792 300.815 146.511C301.202 147.23 301.589 147.935 301.976 148.626C302.363 149.29 302.778 150.022 303.221 150.824C303.746 151.737 304.216 152.497 304.631 153.105C305.073 153.686 305.433 154.253 305.709 154.806C306.013 155.331 306.234 155.926 306.373 156.589C306.539 157.253 306.622 158.11 306.622 159.161C306.622 159.825 306.622 160.447 306.622 161.027C306.622 161.608 306.622 162.147 306.622 162.645C306.622 163.143 306.622 163.613 306.622 164.055C306.622 164.498 306.622 164.926 306.622 165.341C306.622 165.894 306.746 166.35 306.995 166.71C307.244 167.041 307.548 167.263 307.907 167.373C308.294 167.484 308.668 167.484 309.027 167.373C309.414 167.263 309.732 167.041 309.981 166.71C310.23 166.35 310.354 165.894 310.354 165.341C310.354 164.899 310.354 164.442 310.354 163.972C310.354 163.502 310.354 163.018 310.354 162.521C310.354 162.023 310.354 161.497 310.354 160.944C310.354 160.391 310.354 159.811 310.354 159.202C310.354 158.262 310.507 157.378 310.811 156.548C311.115 155.718 311.46 154.944 311.848 154.225C312.373 153.23 312.871 152.304 313.341 151.446C313.811 150.589 314.281 149.732 314.751 148.875C315.221 148.018 315.733 147.091 316.286 146.096C316.728 145.322 317.157 144.548 317.571 143.773C317.986 142.971 318.415 142.17 318.857 141.368Z" fill="#FF5CE5"/>
<path d="M345.071 141.036C345.293 140.372 345.279 139.819 345.03 139.377C344.781 138.934 344.422 138.63 343.951 138.464C343.481 138.298 343.011 138.326 342.541 138.547C342.071 138.769 341.726 139.211 341.504 139.875C341.283 140.538 341.062 141.188 340.841 141.824C340.62 142.46 340.412 143.096 340.219 143.732C340.025 144.34 339.818 144.948 339.596 145.557C339.403 146.137 339.196 146.718 338.974 147.299C338.725 147.935 338.435 148.709 338.103 149.621C337.772 150.534 337.426 151.516 337.066 152.566C336.707 153.589 336.348 154.599 335.988 155.594C335.629 156.589 335.311 157.488 335.034 158.29C334.923 158.622 334.813 158.926 334.702 159.202C334.619 159.451 334.536 159.686 334.453 159.908C334.398 160.101 334.329 160.295 334.246 160.488C334.191 160.682 334.122 160.875 334.039 161.069C333.983 161.235 333.914 161.415 333.831 161.608C333.748 161.857 333.679 162.078 333.624 162.272C333.569 162.438 333.527 162.562 333.499 162.645C333.472 162.728 333.444 162.783 333.417 162.811C333.389 162.811 333.361 162.769 333.334 162.686C333.306 162.576 333.251 162.438 333.168 162.272C333.112 162.106 333.029 161.885 332.919 161.608C332.836 161.387 332.753 161.193 332.67 161.027C332.587 160.834 332.504 160.64 332.421 160.447C332.338 160.253 332.255 160.06 332.172 159.866C332.117 159.645 332.048 159.424 331.965 159.202C331.882 158.954 331.785 158.691 331.675 158.414C331.37 157.585 331.052 156.686 330.721 155.718C330.389 154.751 330.057 153.755 329.725 152.732C329.393 151.709 329.062 150.714 328.73 149.746C328.398 148.75 328.08 147.838 327.776 147.008C327.527 146.29 327.264 145.515 326.988 144.686C326.739 143.829 326.462 142.985 326.158 142.156C325.882 141.299 325.591 140.497 325.287 139.75C325.011 139.086 324.624 138.672 324.126 138.506C323.656 138.312 323.186 138.312 322.716 138.506C322.273 138.699 321.941 139.031 321.72 139.501C321.527 139.971 321.554 140.524 321.803 141.16C322.107 141.879 322.398 142.64 322.674 143.441C322.951 144.243 323.213 145.059 323.462 145.889C323.739 146.69 324.001 147.479 324.25 148.253C324.554 149.11 324.886 150.036 325.246 151.032C325.605 152.027 325.965 153.05 326.324 154.101C326.711 155.124 327.084 156.147 327.444 157.17C327.803 158.166 328.121 159.106 328.398 159.991C328.591 160.516 328.744 160.958 328.854 161.318C328.965 161.65 329.075 161.968 329.186 162.272C329.324 162.576 329.476 162.977 329.642 163.475C330.002 164.47 330.375 165.299 330.762 165.963C331.177 166.599 331.578 167.069 331.965 167.373C332.38 167.677 332.794 167.816 333.209 167.788C333.652 167.788 334.08 167.622 334.495 167.29C334.937 166.959 335.366 166.475 335.781 165.839C336.195 165.175 336.61 164.373 337.025 163.433C337.219 162.963 337.371 162.59 337.481 162.313C337.592 162.037 337.702 161.733 337.813 161.401C337.951 161.041 338.131 160.571 338.352 159.991C338.684 159.133 339.03 158.193 339.389 157.17C339.776 156.119 340.149 155.069 340.509 154.018C340.896 152.967 341.256 151.972 341.587 151.032C341.919 150.092 342.209 149.29 342.458 148.626C342.68 148.018 342.901 147.409 343.122 146.801C343.343 146.193 343.551 145.584 343.744 144.976C343.965 144.34 344.187 143.704 344.408 143.068C344.629 142.405 344.85 141.727 345.071 141.036Z" fill="#FF5CE5"/>
<path d="M363.823 142.529C364.515 142.529 365.04 142.349 365.4 141.99C365.759 141.603 365.939 141.16 365.939 140.663C365.939 140.165 365.759 139.736 365.4 139.377C365.04 138.99 364.515 138.796 363.823 138.796C362.994 138.796 362.316 138.796 361.791 138.796C361.266 138.796 360.754 138.796 360.257 138.796C359.786 138.796 359.192 138.796 358.473 138.796C358.058 138.796 357.699 138.796 357.395 138.796C357.09 138.796 356.745 138.796 356.358 138.796C355.971 138.796 355.459 138.796 354.823 138.796C353.551 138.796 352.528 139.004 351.754 139.418C351.007 139.833 350.454 140.469 350.095 141.326C349.763 142.156 349.597 143.193 349.597 144.437C349.597 144.962 349.597 145.543 349.597 146.179C349.597 146.787 349.597 147.382 349.597 147.962C349.597 148.543 349.597 148.999 349.597 149.331C349.597 150.05 349.708 150.714 349.929 151.322C350.178 151.93 350.51 152.469 350.924 152.94C351.339 153.382 351.809 153.728 352.335 153.976C352.888 154.225 353.482 154.35 354.118 154.35C354.477 154.35 355.044 154.35 355.819 154.35C356.593 154.35 357.422 154.35 358.307 154.35C359.22 154.35 360.091 154.35 360.92 154.35C361.777 154.35 362.469 154.35 362.994 154.35C363.547 154.35 363.989 154.225 364.321 153.976C364.653 153.728 364.874 153.423 364.985 153.064C365.095 152.677 365.095 152.304 364.985 151.944C364.874 151.557 364.653 151.239 364.321 150.99C363.989 150.741 363.547 150.617 362.994 150.617C362.469 150.617 361.833 150.617 361.086 150.617C360.367 150.617 359.593 150.617 358.763 150.617C357.934 150.617 357.118 150.617 356.316 150.617C355.542 150.617 354.823 150.617 354.159 150.617C353.109 150.617 352.238 150.783 351.546 151.115C350.883 151.419 350.385 151.875 350.053 152.483C349.749 153.092 349.597 153.824 349.597 154.682C349.597 155.345 349.597 156.119 349.597 157.004C349.597 157.889 349.597 158.774 349.597 159.659C349.597 160.544 349.597 161.304 349.597 161.94C349.597 163.157 349.791 164.138 350.178 164.885C350.593 165.631 351.173 166.17 351.92 166.502C352.694 166.834 353.634 167 354.74 167C355.072 167 355.362 167 355.611 167C355.888 167 356.219 167 356.607 167C356.994 167 357.533 167 358.224 167C358.86 167 359.717 167 360.796 167C361.874 167 362.883 167 363.823 167C364.515 167 365.026 166.82 365.358 166.461C365.718 166.074 365.897 165.631 365.897 165.134C365.897 164.636 365.718 164.207 365.358 163.848C365.026 163.461 364.515 163.267 363.823 163.267C362.883 163.267 362.109 163.267 361.501 163.267C360.92 163.267 360.381 163.267 359.883 163.267C359.413 163.267 358.86 163.267 358.224 163.267C357.533 163.267 356.966 163.267 356.524 163.267C356.081 163.267 355.487 163.267 354.74 163.267C354.132 163.267 353.745 163.212 353.579 163.101C353.413 162.991 353.33 162.604 353.33 161.94C353.33 161.525 353.33 160.931 353.33 160.156C353.33 159.382 353.33 158.525 353.33 157.585C353.33 156.617 353.33 155.649 353.33 154.682C353.33 154.46 353.399 154.35 353.537 154.35C353.676 154.35 353.883 154.35 354.159 154.35C354.602 154.35 355.196 154.35 355.943 154.35C356.717 154.35 357.547 154.35 358.432 154.35C359.316 154.35 360.16 154.35 360.962 154.35C361.791 154.35 362.469 154.35 362.994 154.35C363.547 154.35 363.989 154.225 364.321 153.976C364.653 153.728 364.874 153.423 364.985 153.064C365.095 152.677 365.095 152.304 364.985 151.944C364.874 151.557 364.653 151.239 364.321 150.99C363.989 150.741 363.547 150.617 362.994 150.617C362.469 150.617 361.819 150.617 361.045 150.617C360.27 150.617 359.455 150.617 358.597 150.617C357.74 150.617 356.911 150.617 356.109 150.617C355.335 150.617 354.671 150.617 354.118 150.617C353.98 150.617 353.855 150.575 353.745 150.492C353.662 150.41 353.579 150.313 353.496 150.202C353.441 150.064 353.399 149.926 353.371 149.787C353.344 149.621 353.33 149.469 353.33 149.331C353.33 148.833 353.33 148.35 353.33 147.879C353.33 147.409 353.33 146.898 353.33 146.345C353.33 145.792 353.33 145.156 353.33 144.437C353.33 143.663 353.385 143.151 353.496 142.902C353.606 142.653 354.049 142.529 354.823 142.529C355.266 142.529 355.639 142.529 355.943 142.529C356.275 142.529 356.62 142.529 356.98 142.529C357.367 142.529 357.865 142.529 358.473 142.529C359.192 142.529 360.049 142.529 361.045 142.529C362.068 142.529 362.994 142.529 363.823 142.529Z" fill="#FF5CE5"/>
<path d="M371.307 165.341C371.307 166.032 371.487 166.558 371.847 166.917C372.234 167.277 372.676 167.456 373.174 167.456C373.671 167.456 374.1 167.277 374.46 166.917C374.847 166.558 375.04 166.032 375.04 165.341C375.04 164.65 375.04 164.028 375.04 163.475C375.04 162.894 375.04 162.355 375.04 161.857C375.04 161.332 375.04 160.82 375.04 160.322C375.04 159.41 375.04 158.414 375.04 157.336C375.04 156.258 375.04 155.096 375.04 153.852C375.04 152.608 375.04 151.308 375.04 149.953C375.04 148.571 375.04 147.133 375.04 145.64C375.04 145.142 375.026 144.7 374.999 144.312C374.999 143.925 375.013 143.607 375.04 143.359C375.095 143.082 375.206 142.875 375.372 142.736C375.538 142.598 375.801 142.529 376.16 142.529C376.575 142.529 377.045 142.529 377.57 142.529C378.123 142.529 378.801 142.529 379.603 142.529C380.709 142.529 381.663 142.723 382.464 143.11C383.266 143.497 383.888 144.05 384.331 144.769C384.773 145.46 384.994 146.29 384.994 147.257C384.994 148.225 384.787 149.068 384.372 149.787C383.958 150.479 383.377 151.018 382.63 151.405C381.911 151.764 381.068 151.944 380.1 151.944C379.879 151.944 379.658 151.944 379.437 151.944C379.215 151.944 379.008 151.944 378.815 151.944C378.621 151.944 378.414 151.944 378.192 151.944C377.971 151.944 377.75 151.944 377.529 151.944C376.976 151.944 376.519 152.069 376.16 152.317C375.828 152.566 375.607 152.884 375.496 153.271C375.386 153.631 375.386 154.004 375.496 154.391C375.607 154.751 375.828 155.055 376.16 155.304C376.519 155.553 376.976 155.677 377.529 155.677C378.635 155.677 379.478 155.76 380.059 155.926C380.639 156.092 381.123 156.368 381.51 156.755C381.925 157.142 382.381 157.682 382.879 158.373C383.322 158.954 383.736 159.562 384.123 160.198C384.538 160.834 384.953 161.484 385.368 162.147C385.783 162.811 386.197 163.502 386.612 164.221C387.054 164.912 387.511 165.617 387.981 166.336C388.368 166.945 388.81 167.29 389.308 167.373C389.833 167.456 390.29 167.359 390.677 167.083C391.091 166.834 391.368 166.461 391.506 165.963C391.645 165.465 391.52 164.926 391.133 164.346C390.663 163.599 390.207 162.88 389.764 162.189C389.349 161.497 388.935 160.82 388.52 160.156C388.105 159.465 387.677 158.802 387.234 158.166C386.819 157.502 386.391 156.852 385.948 156.216C385.534 155.636 385.077 155.096 384.58 154.599C384.11 154.073 383.543 153.617 382.879 153.23C382.243 152.815 381.483 152.497 380.598 152.276C379.741 152.055 378.718 151.944 377.529 151.944C376.976 151.944 376.519 152.069 376.16 152.317C375.828 152.566 375.607 152.884 375.496 153.271C375.386 153.631 375.386 154.004 375.496 154.391C375.607 154.751 375.828 155.055 376.16 155.304C376.519 155.553 376.976 155.677 377.529 155.677C377.612 155.677 377.722 155.677 377.861 155.677C378.026 155.677 378.206 155.677 378.4 155.677C378.593 155.677 378.801 155.677 379.022 155.677C379.243 155.677 379.464 155.677 379.686 155.677C381.345 155.677 382.852 155.318 384.206 154.599C385.589 153.88 386.681 152.898 387.483 151.654C388.313 150.382 388.727 148.916 388.727 147.257C388.727 146.041 388.506 144.921 388.064 143.898C387.649 142.875 387.041 141.99 386.239 141.243C385.437 140.469 384.469 139.875 383.335 139.46C382.229 139.017 380.985 138.796 379.603 138.796C379.077 138.796 378.455 138.796 377.736 138.796C377.045 138.796 376.381 138.796 375.745 138.796C374.805 138.796 374.045 138.934 373.464 139.211C372.883 139.487 372.427 139.902 372.095 140.455C371.791 141.008 371.584 141.727 371.473 142.612C371.363 143.469 371.307 144.478 371.307 145.64C371.307 146.635 371.307 147.838 371.307 149.248C371.307 150.658 371.307 152.096 371.307 153.562C371.307 155.027 371.307 156.368 371.307 157.585C371.307 158.802 371.307 159.714 371.307 160.322C371.307 160.737 371.307 161.235 371.307 161.815C371.307 162.368 371.307 162.963 371.307 163.599C371.307 164.207 371.307 164.788 371.307 165.341Z" fill="#FF5CE5"/>
<path d="M395.974 165.341C395.974 166.032 396.154 166.558 396.514 166.917C396.901 167.249 397.343 167.415 397.841 167.415C398.338 167.415 398.767 167.249 399.127 166.917C399.514 166.558 399.707 166.032 399.707 165.341C399.707 164.705 399.707 164.124 399.707 163.599C399.707 163.046 399.707 162.493 399.707 161.94C399.707 161.387 399.707 160.806 399.707 160.198C399.707 159.258 399.707 158.373 399.707 157.543C399.707 156.714 399.707 155.912 399.707 155.138C399.707 154.364 399.707 153.603 399.707 152.857C399.707 152.082 399.707 151.294 399.707 150.492C399.707 150.078 399.707 149.704 399.707 149.373C399.707 149.041 399.707 148.75 399.707 148.502C399.707 148.225 399.707 147.976 399.707 147.755C399.707 147.506 399.707 147.285 399.707 147.091C399.707 146.87 399.707 146.663 399.707 146.469C399.707 146.276 399.707 146.124 399.707 146.013C399.707 145.902 399.707 145.819 399.707 145.764C399.707 145.709 399.721 145.695 399.749 145.723C399.804 145.75 399.859 145.806 399.915 145.889C399.97 145.972 400.053 146.082 400.163 146.22C400.274 146.386 400.385 146.566 400.495 146.76C400.634 146.926 400.786 147.133 400.951 147.382C401.117 147.631 401.311 147.921 401.532 148.253C401.781 148.585 402.058 148.972 402.362 149.414C402.776 150.022 403.233 150.686 403.73 151.405C404.228 152.096 404.74 152.829 405.265 153.603C405.818 154.35 406.371 155.11 406.924 155.884C407.477 156.659 408.002 157.419 408.5 158.166C408.998 158.912 409.468 159.603 409.91 160.239C410.187 160.654 410.436 161.027 410.657 161.359C410.878 161.691 411.086 162.009 411.279 162.313C411.5 162.617 411.721 162.935 411.943 163.267C412.164 163.571 412.399 163.903 412.648 164.263C412.897 164.622 413.187 165.023 413.519 165.465C413.906 165.991 414.307 166.406 414.722 166.71C415.136 167.014 415.523 167.194 415.883 167.249C416.27 167.332 416.602 167.29 416.878 167.124C417.183 166.986 417.418 166.751 417.583 166.419C417.777 166.06 417.874 165.604 417.874 165.051C417.874 164.636 417.874 164.235 417.874 163.848C417.874 163.433 417.874 163.032 417.874 162.645C417.874 162.258 417.874 161.871 417.874 161.484C417.874 161.097 417.874 160.709 417.874 160.322C417.874 159.935 417.874 159.548 417.874 159.161C417.874 158.442 417.874 157.53 417.874 156.424C417.874 155.29 417.874 154.101 417.874 152.857C417.874 151.585 417.874 150.368 417.874 149.207C417.874 148.018 417.874 147.008 417.874 146.179C417.874 145.349 417.874 144.63 417.874 144.022C417.874 143.386 417.874 142.792 417.874 142.239C417.874 141.658 417.874 141.064 417.874 140.455C417.874 139.736 417.68 139.211 417.293 138.879C416.934 138.52 416.505 138.34 416.007 138.34C415.51 138.34 415.067 138.52 414.68 138.879C414.321 139.211 414.141 139.736 414.141 140.455C414.141 141.064 414.141 141.672 414.141 142.28C414.141 142.888 414.141 143.497 414.141 144.105C414.141 144.686 414.141 145.28 414.141 145.889C414.141 146.331 414.141 146.953 414.141 147.755C414.141 148.529 414.141 149.4 414.141 150.368C414.141 151.336 414.141 152.331 414.141 153.354C414.141 154.35 414.141 155.318 414.141 156.258C414.141 157.198 414.141 158.027 414.141 158.746C414.141 159.686 414.03 160.474 413.809 161.11C413.616 161.719 413.422 162.244 413.228 162.686C413.035 163.129 412.924 163.571 412.897 164.014C412.897 164.428 413.104 164.912 413.519 165.465C413.906 165.991 414.307 166.406 414.722 166.71C415.136 167.014 415.523 167.194 415.883 167.249C416.27 167.332 416.602 167.29 416.878 167.124C417.183 166.986 417.418 166.751 417.583 166.419C417.777 166.06 417.874 165.604 417.874 165.051C417.874 164.525 417.708 163.986 417.376 163.433C417.044 162.88 416.616 162.299 416.09 161.691C415.565 161.083 414.998 160.433 414.39 159.742C413.809 159.05 413.242 158.304 412.689 157.502C412.109 156.645 411.459 155.705 410.74 154.682C410.021 153.658 409.274 152.622 408.5 151.571C407.754 150.52 407.035 149.525 406.343 148.585C405.652 147.617 405.058 146.773 404.56 146.055C404.228 145.584 403.896 145.114 403.564 144.644C403.233 144.174 402.887 143.69 402.528 143.193C402.196 142.695 401.836 142.197 401.449 141.699C401.09 141.174 400.703 140.635 400.288 140.082C399.901 139.529 399.5 139.114 399.085 138.838C398.67 138.561 398.269 138.409 397.882 138.381C397.523 138.326 397.191 138.395 396.887 138.589C396.61 138.782 396.389 139.086 396.223 139.501C396.057 139.888 395.974 140.372 395.974 140.953C395.974 141.699 395.974 142.405 395.974 143.068C395.974 143.704 395.974 144.34 395.974 144.976C395.974 145.584 395.974 146.234 395.974 146.925C395.974 147.589 395.974 148.308 395.974 149.082C395.974 149.746 395.974 150.479 395.974 151.281C395.974 152.082 395.974 152.898 395.974 153.728C395.974 154.557 395.974 155.373 395.974 156.175C395.974 156.977 395.974 157.723 395.974 158.414C395.974 159.106 395.974 159.7 395.974 160.198C395.974 160.696 395.974 161.235 395.974 161.815C395.974 162.368 395.974 162.949 395.974 163.557C395.974 164.138 395.974 164.733 395.974 165.341Z" fill="#FF5CE5"/>
<path d="M433.655 167.083C434.346 167.221 434.885 167.138 435.272 166.834C435.687 166.53 435.936 166.143 436.019 165.673C436.129 165.175 436.046 164.719 435.77 164.304C435.493 163.862 435.009 163.571 434.318 163.433C433.682 163.295 433.102 163.129 432.576 162.935C432.078 162.714 431.553 162.424 431 162.064C430.115 161.456 429.355 160.696 428.719 159.783C428.083 158.843 427.599 157.792 427.267 156.631C426.963 155.442 426.811 154.184 426.811 152.857C426.811 151.281 427.032 149.843 427.475 148.543C427.945 147.216 428.608 146.082 429.465 145.142C430.323 144.174 431.346 143.428 432.535 142.902C433.724 142.377 435.037 142.114 436.475 142.114C437.913 142.114 439.212 142.377 440.374 142.902C441.535 143.428 442.53 144.174 443.36 145.142C444.19 146.11 444.825 147.243 445.268 148.543C445.738 149.843 445.973 151.281 445.973 152.857C445.973 154.156 445.807 155.387 445.475 156.548C445.171 157.682 444.715 158.705 444.107 159.617C443.526 160.53 442.807 161.304 441.95 161.94C441.424 162.327 440.885 162.645 440.332 162.894C439.807 163.115 439.226 163.295 438.59 163.433C437.899 163.571 437.415 163.862 437.139 164.304C436.89 164.719 436.807 165.175 436.89 165.673C437 166.143 437.263 166.53 437.678 166.834C438.092 167.138 438.645 167.221 439.337 167.083C440.222 166.917 441.051 166.668 441.825 166.336C442.627 165.977 443.415 165.507 444.189 164.926C445.323 164.069 446.305 163.046 447.134 161.857C447.964 160.64 448.6 159.272 449.042 157.751C449.485 156.23 449.706 154.599 449.706 152.857C449.706 150.036 449.139 147.548 448.005 145.391C446.872 143.206 445.309 141.492 443.318 140.248C441.328 139.004 439.046 138.381 436.475 138.381C433.903 138.381 431.608 139.004 429.59 140.248C427.571 141.464 425.981 143.165 424.82 145.349C423.659 147.534 423.078 150.036 423.078 152.857C423.078 154.654 423.313 156.341 423.783 157.917C424.253 159.465 424.931 160.848 425.816 162.064C426.7 163.281 427.737 164.304 428.926 165.134C429.673 165.631 430.419 166.046 431.166 166.378C431.94 166.682 432.77 166.917 433.655 167.083Z" fill="#FF5CE5"/>
<path d="M305.618 207.179C306.309 207.179 306.821 207 307.153 206.64C307.512 206.253 307.692 205.811 307.692 205.313C307.692 204.815 307.512 204.387 307.153 204.027C306.821 203.64 306.309 203.446 305.618 203.446C304.705 203.446 303.821 203.446 302.963 203.446C302.106 203.446 301.221 203.446 300.309 203.446C299.424 203.446 298.442 203.446 297.364 203.446C296.535 203.446 295.802 203.585 295.166 203.861C294.53 204.11 294.005 204.497 293.59 205.023C293.175 205.548 292.857 206.211 292.636 207.013C292.415 207.788 292.304 208.7 292.304 209.751C292.304 210.276 292.304 210.871 292.304 211.534C292.304 212.198 292.304 212.889 292.304 213.608C292.304 214.299 292.304 214.977 292.304 215.64C292.304 216.276 292.304 216.843 292.304 217.341C292.304 217.894 292.428 218.35 292.677 218.71C292.926 219.041 293.23 219.263 293.59 219.373C293.977 219.484 294.35 219.484 294.71 219.373C295.097 219.263 295.415 219.041 295.664 218.71C295.912 218.35 296.037 217.894 296.037 217.341C296.037 216.29 296.037 215.032 296.037 213.567C296.037 212.101 296.037 210.553 296.037 208.921C296.037 207.262 296.037 205.631 296.037 204.027C296.037 202.423 296.037 200.944 296.037 199.589C296.037 198.207 296.037 197.073 296.037 196.188C296.037 195.69 296.051 195.331 296.078 195.11C296.134 194.861 296.272 194.709 296.493 194.653C296.742 194.57 297.143 194.529 297.696 194.529C298.415 194.529 299.313 194.529 300.392 194.529C301.47 194.529 302.562 194.529 303.669 194.529C304.775 194.529 305.728 194.529 306.53 194.529C307.222 194.529 307.733 194.349 308.065 193.99C308.424 193.603 308.604 193.16 308.604 192.663C308.604 192.165 308.424 191.736 308.065 191.377C307.733 190.99 307.222 190.796 306.53 190.796C305.341 190.796 304.152 190.796 302.963 190.796C301.802 190.796 300.751 190.796 299.811 190.796C298.899 190.796 298.194 190.796 297.696 190.796C296.369 190.796 295.304 191.004 294.502 191.418C293.728 191.805 293.161 192.4 292.802 193.202C292.47 194.004 292.304 194.999 292.304 196.188C292.304 196.686 292.304 197.46 292.304 198.511C292.304 199.561 292.304 200.778 292.304 202.161C292.304 203.543 292.304 204.995 292.304 206.516C292.304 208.009 292.304 209.474 292.304 210.912C292.304 212.322 292.304 213.594 292.304 214.728C292.304 215.862 292.304 216.733 292.304 217.341C292.304 217.894 292.428 218.35 292.677 218.71C292.926 219.041 293.23 219.263 293.59 219.373C293.977 219.484 294.35 219.484 294.71 219.373C295.097 219.263 295.415 219.041 295.664 218.71C295.912 218.35 296.037 217.894 296.037 217.341C296.037 216.594 296.037 215.834 296.037 215.06C296.037 214.258 296.037 213.497 296.037 212.779C296.037 212.032 296.037 211.368 296.037 210.788C296.037 210.179 296.037 209.695 296.037 209.336C296.037 208.783 296.051 208.354 296.078 208.05C296.134 207.718 296.258 207.497 296.452 207.387C296.645 207.248 296.949 207.179 297.364 207.179C298.083 207.179 298.968 207.179 300.019 207.179C301.069 207.179 302.106 207.179 303.129 207.179C304.18 207.179 305.01 207.179 305.618 207.179Z" fill="#FF5CE5"/>
<path d="M310.332 216.719C310.083 217.382 310.069 217.949 310.29 218.419C310.539 218.862 310.899 219.166 311.369 219.332C311.839 219.498 312.309 219.47 312.779 219.249C313.249 219.055 313.595 218.627 313.816 217.963C314.009 217.41 314.189 216.899 314.355 216.428C314.549 215.931 314.728 215.447 314.894 214.977C315.06 214.479 315.24 213.954 315.433 213.401C315.599 213.014 315.751 212.709 315.89 212.488C316.028 212.239 316.222 212.073 316.47 211.991C316.719 211.88 317.079 211.825 317.549 211.825C318.129 211.825 318.71 211.825 319.291 211.825C319.871 211.825 320.452 211.825 321.033 211.825C321.641 211.825 322.249 211.825 322.858 211.825C323.466 211.825 324.102 211.825 324.766 211.825C325.319 211.825 325.761 211.7 326.093 211.451C326.452 211.202 326.687 210.898 326.798 210.539C326.909 210.152 326.909 209.778 326.798 209.419C326.687 209.032 326.452 208.714 326.093 208.465C325.761 208.216 325.319 208.092 324.766 208.092C324.351 208.092 323.798 208.092 323.107 208.092C322.443 208.092 321.779 208.092 321.116 208.092C320.48 208.092 319.982 208.092 319.623 208.092C319.125 208.092 318.738 208.023 318.461 207.884C318.212 207.718 318.06 207.497 318.005 207.221C317.95 206.917 317.95 206.571 318.005 206.184C318.088 205.769 318.212 205.327 318.378 204.857C318.627 204.11 318.89 203.35 319.166 202.575C319.443 201.801 319.719 201.027 319.996 200.253C320.272 199.479 320.549 198.704 320.825 197.93C321.102 197.156 321.365 196.395 321.613 195.649C321.752 195.234 321.848 194.958 321.904 194.819C321.987 194.653 322.056 194.626 322.111 194.736C322.194 194.847 322.305 195.11 322.443 195.524C322.913 196.796 323.411 198.207 323.936 199.755C324.489 201.303 325.028 202.88 325.554 204.483C326.107 206.087 326.632 207.636 327.13 209.129C327.655 210.594 328.125 211.908 328.54 213.069C328.706 213.511 328.886 214.009 329.079 214.562C329.273 215.115 329.466 215.696 329.66 216.304C329.881 216.885 330.088 217.438 330.282 217.963C330.503 218.627 330.849 219.055 331.319 219.249C331.789 219.47 332.259 219.498 332.729 219.332C333.199 219.166 333.545 218.862 333.766 218.419C334.015 217.949 334.015 217.382 333.766 216.719C333.572 216.166 333.365 215.599 333.144 215.018C332.95 214.41 332.757 213.829 332.563 213.276C332.37 212.723 332.19 212.239 332.024 211.825C331.692 210.912 331.333 209.889 330.946 208.755C330.558 207.594 330.144 206.377 329.701 205.105C329.287 203.834 328.858 202.548 328.416 201.248C327.973 199.921 327.531 198.621 327.088 197.349C326.646 196.077 326.217 194.875 325.803 193.741C325.36 192.552 324.793 191.667 324.102 191.086C323.438 190.478 322.733 190.174 321.987 190.174C321.24 190.174 320.535 190.478 319.871 191.086C319.235 191.667 318.71 192.538 318.295 193.699C317.991 194.64 317.687 195.552 317.383 196.437C317.079 197.294 316.775 198.137 316.47 198.967C316.194 199.769 315.904 200.557 315.599 201.331C315.323 202.105 315.06 202.866 314.811 203.612C314.424 204.746 314.231 205.811 314.231 206.806C314.258 207.801 314.466 208.672 314.853 209.419C315.268 210.166 315.862 210.76 316.636 211.202C317.438 211.617 318.434 211.825 319.623 211.825C319.788 211.825 320.065 211.825 320.452 211.825C320.839 211.825 321.268 211.825 321.738 211.825C322.236 211.825 322.747 211.825 323.273 211.825C323.798 211.825 324.296 211.825 324.766 211.825C325.319 211.825 325.761 211.7 326.093 211.451C326.452 211.202 326.687 210.898 326.798 210.539C326.909 210.152 326.909 209.778 326.798 209.419C326.687 209.032 326.452 208.714 326.093 208.465C325.761 208.216 325.319 208.092 324.766 208.092C324.323 208.092 323.77 208.092 323.107 208.092C322.471 208.092 321.793 208.092 321.074 208.092C320.383 208.092 319.719 208.092 319.083 208.092C318.447 208.092 317.936 208.092 317.549 208.092C316.526 208.092 315.641 208.258 314.894 208.589C314.175 208.894 313.581 209.35 313.111 209.958C312.641 210.539 312.254 211.272 311.949 212.156C311.756 212.709 311.562 213.235 311.369 213.733C311.203 214.203 311.037 214.686 310.871 215.184C310.705 215.654 310.525 216.166 310.332 216.719Z" fill="#FF5CE5"/>
<path d="M362.068 217.341C362.068 218.032 362.248 218.558 362.607 218.917C362.994 219.277 363.437 219.456 363.934 219.456C364.432 219.456 364.861 219.277 365.22 218.917C365.607 218.558 365.801 218.032 365.801 217.341C365.801 216.733 365.801 216.18 365.801 215.682C365.801 215.157 365.801 214.645 365.801 214.147C365.801 213.622 365.801 213.069 365.801 212.488C365.801 211.52 365.801 210.622 365.801 209.792C365.801 208.963 365.801 208.133 365.801 207.304C365.801 206.447 365.801 205.534 365.801 204.566C365.801 204.096 365.801 203.571 365.801 202.99C365.801 202.382 365.801 201.691 365.801 200.916C365.801 200.114 365.801 199.188 365.801 198.137C365.801 197.087 365.801 195.856 365.801 194.446C365.801 193.395 365.635 192.552 365.303 191.916C364.999 191.252 364.584 190.796 364.059 190.547C363.534 190.271 362.967 190.229 362.358 190.423C361.75 190.589 361.156 190.99 360.575 191.626C359.994 192.262 359.496 193.133 359.082 194.239C358.639 195.372 358.183 196.575 357.713 197.847C357.243 199.119 356.759 200.432 356.261 201.787C355.791 203.115 355.307 204.456 354.81 205.811C354.312 207.165 353.814 208.507 353.317 209.834C352.874 210.995 352.432 211.88 351.989 212.488C351.575 213.097 351.187 213.553 350.828 213.857C350.468 214.133 350.164 214.355 349.915 214.521C349.694 214.659 349.556 214.852 349.501 215.101C349.473 215.322 349.556 215.696 349.75 216.221C350.054 216.968 350.386 217.576 350.745 218.046C351.104 218.488 351.478 218.793 351.865 218.959C352.252 219.097 352.625 219.097 352.985 218.959C353.372 218.793 353.745 218.461 354.105 217.963C354.464 217.465 354.796 216.802 355.1 215.972C355.377 215.226 355.487 214.714 355.432 214.438C355.404 214.133 355.252 213.926 354.976 213.815C354.727 213.705 354.395 213.553 353.98 213.359C353.593 213.166 353.164 212.806 352.694 212.281C352.252 211.728 351.81 210.857 351.367 209.668C350.869 208.341 350.372 207.013 349.874 205.686C349.404 204.359 348.934 203.045 348.464 201.746C347.994 200.446 347.524 199.188 347.054 197.972C346.611 196.727 346.169 195.552 345.726 194.446C345.284 193.285 344.759 192.386 344.15 191.75C343.57 191.086 342.975 190.672 342.367 190.506C341.758 190.312 341.192 190.354 340.666 190.63C340.141 190.879 339.712 191.349 339.381 192.04C339.076 192.704 338.924 193.561 338.924 194.612C338.924 195.995 338.924 197.156 338.924 198.096C338.924 199.036 338.924 199.852 338.924 200.543C338.924 201.207 338.924 201.856 338.924 202.492C338.924 203.128 338.924 203.82 338.924 204.566C338.924 205.313 338.924 206.184 338.924 207.179C338.924 208.147 338.924 209.129 338.924 210.124C338.924 211.092 338.924 211.949 338.924 212.696C338.924 213.138 338.924 213.636 338.924 214.189C338.924 214.742 338.924 215.295 338.924 215.848C338.924 216.373 338.924 216.871 338.924 217.341C338.924 218.032 339.104 218.558 339.463 218.917C339.851 219.277 340.293 219.456 340.791 219.456C341.288 219.456 341.717 219.277 342.076 218.917C342.464 218.558 342.657 218.032 342.657 217.341C342.657 216.76 342.657 216.235 342.657 215.765C342.657 215.267 342.657 214.769 342.657 214.272C342.657 213.774 342.657 213.249 342.657 212.696C342.657 212.032 342.657 211.437 342.657 210.912C342.657 210.359 342.657 209.848 342.657 209.378C342.657 208.88 342.657 208.396 342.657 207.926C342.657 207.428 342.657 206.917 342.657 206.391C342.657 205.838 342.657 205.23 342.657 204.566C342.657 204.234 342.657 203.889 342.657 203.529C342.657 203.142 342.657 202.755 342.657 202.368C342.657 201.981 342.657 201.608 342.657 201.248C342.657 200.861 342.657 200.502 342.657 200.17C342.657 199.81 342.657 199.492 342.657 199.216C342.657 198.912 342.657 198.649 342.657 198.428C342.657 198.207 342.657 198.027 342.657 197.889C342.685 197.75 342.699 197.654 342.699 197.598C342.726 197.543 342.754 197.543 342.782 197.598C342.837 197.626 342.892 197.709 342.947 197.847C343.003 197.958 343.072 198.124 343.155 198.345C343.265 198.621 343.39 198.939 343.528 199.299C343.666 199.658 343.818 200.059 343.984 200.502C344.15 200.944 344.316 201.414 344.482 201.912C344.676 202.382 344.855 202.866 345.021 203.363C345.215 203.861 345.395 204.345 345.56 204.815C345.754 205.285 345.92 205.741 346.058 206.184C346.224 206.626 346.376 207.027 346.514 207.387C346.763 208.078 346.971 208.686 347.137 209.212C347.33 209.709 347.524 210.249 347.717 210.829C347.911 211.382 348.16 212.087 348.464 212.944C348.796 213.774 349.224 214.866 349.75 216.221C350.054 216.968 350.386 217.576 350.745 218.046C351.104 218.488 351.478 218.793 351.865 218.959C352.252 219.097 352.625 219.097 352.985 218.959C353.372 218.793 353.745 218.461 354.105 217.963C354.464 217.465 354.796 216.802 355.1 215.972C355.57 214.673 355.943 213.608 356.22 212.779C356.524 211.949 356.787 211.258 357.008 210.705C357.229 210.124 357.436 209.571 357.63 209.046C357.824 208.493 358.045 207.871 358.294 207.179C358.432 206.82 358.57 206.433 358.708 206.018C358.874 205.576 359.04 205.119 359.206 204.649C359.4 204.152 359.579 203.668 359.745 203.198C359.911 202.7 360.077 202.216 360.243 201.746C360.437 201.276 360.616 200.833 360.782 200.419C360.948 199.976 361.086 199.575 361.197 199.216C361.335 198.829 361.46 198.497 361.57 198.22C361.653 198.027 361.722 197.875 361.778 197.764C361.833 197.626 361.874 197.529 361.902 197.474C361.957 197.419 361.985 197.419 361.985 197.474C362.013 197.501 362.027 197.584 362.027 197.723C362.054 197.833 362.068 198.013 362.068 198.262C362.068 198.621 362.068 198.953 362.068 199.257C362.068 199.561 362.068 199.852 362.068 200.128C362.068 200.405 362.068 200.681 362.068 200.958C362.068 201.234 362.068 201.511 362.068 201.787C362.068 202.064 362.068 202.354 362.068 202.658C362.068 202.935 362.068 203.239 362.068 203.571C362.068 203.875 362.068 204.207 362.068 204.566C362.068 205.064 362.068 205.576 362.068 206.101C362.068 206.626 362.068 207.165 362.068 207.718C362.068 208.271 362.068 208.825 362.068 209.378C362.068 209.931 362.068 210.47 362.068 210.995C362.068 211.52 362.068 212.018 362.068 212.488C362.068 213.207 362.068 214.023 362.068 214.935C362.068 215.82 362.068 216.622 362.068 217.341Z" fill="#FF5CE5"/>
<path d="M372.633 217.341C372.633 218.06 372.813 218.599 373.173 218.959C373.56 219.29 374.002 219.456 374.5 219.456C374.998 219.456 375.426 219.29 375.786 218.959C376.173 218.599 376.366 218.06 376.366 217.341C376.366 216.428 376.366 215.599 376.366 214.852C376.366 214.106 376.366 213.428 376.366 212.82C376.366 212.184 376.366 211.603 376.366 211.078C376.366 209.751 376.366 208.396 376.366 207.013C376.366 205.631 376.366 204.248 376.366 202.866C376.366 201.456 376.366 200.101 376.366 198.801C376.366 198.165 376.366 197.543 376.366 196.935C376.366 196.299 376.366 195.621 376.366 194.902C376.366 194.183 376.366 193.368 376.366 192.455C376.366 191.764 376.173 191.252 375.786 190.921C375.426 190.561 374.998 190.381 374.5 190.381C374.002 190.381 373.56 190.561 373.173 190.921C372.813 191.252 372.633 191.764 372.633 192.455C372.633 193.368 372.633 194.183 372.633 194.902C372.633 195.621 372.633 196.299 372.633 196.935C372.633 197.543 372.633 198.165 372.633 198.801C372.633 200.101 372.633 201.456 372.633 202.866C372.633 204.248 372.633 205.631 372.633 207.013C372.633 208.396 372.633 209.751 372.633 211.078C372.633 211.603 372.633 212.184 372.633 212.82C372.633 213.428 372.633 214.106 372.633 214.852C372.633 215.599 372.633 216.428 372.633 217.341Z" fill="#FF5CE5"/>
<path d="M397.007 219C397.698 219 398.21 218.82 398.541 218.461C398.901 218.074 399.081 217.631 399.081 217.134C399.081 216.636 398.901 216.207 398.541 215.848C398.21 215.461 397.698 215.267 397.007 215.267C396.288 215.267 395.597 215.267 394.933 215.267C394.269 215.267 393.62 215.267 392.984 215.267C392.375 215.267 391.767 215.267 391.159 215.267C390.55 215.267 389.914 215.267 389.251 215.267C388.587 215.267 388.089 215.239 387.758 215.184C387.426 215.129 387.205 214.963 387.094 214.686C386.983 214.382 386.928 213.912 386.928 213.276C386.928 212.64 386.928 211.742 386.928 210.58C386.928 209.253 386.928 208.009 386.928 206.847C386.928 205.658 386.928 204.539 386.928 203.488C386.928 202.41 386.928 201.373 386.928 200.377C386.928 199.382 386.928 198.4 386.928 197.432C386.928 196.824 386.928 196.257 386.928 195.732C386.928 195.206 386.928 194.681 386.928 194.156C386.928 193.63 386.928 193.064 386.928 192.455C386.928 191.764 386.735 191.252 386.347 190.921C385.988 190.561 385.559 190.381 385.062 190.381C384.564 190.381 384.122 190.561 383.734 190.921C383.375 191.252 383.195 191.764 383.195 192.455C383.195 193.064 383.195 193.644 383.195 194.197C383.195 194.75 383.195 195.289 383.195 195.815C383.195 196.312 383.195 196.852 383.195 197.432C383.195 198.76 383.195 200.197 383.195 201.746C383.195 203.267 383.195 204.843 383.195 206.474C383.195 208.106 383.195 209.765 383.195 211.451C383.195 213.027 383.237 214.313 383.32 215.309C383.403 216.304 383.61 217.064 383.942 217.59C384.274 218.115 384.799 218.488 385.518 218.71C386.237 218.903 387.218 219 388.463 219C389.652 219 390.758 219 391.781 219C392.804 219 393.744 219 394.601 219C395.486 219 396.288 219 397.007 219Z" fill="#FF5CE5"/>
<path d="M421.312 193.368C421.672 192.759 421.769 192.206 421.603 191.709C421.437 191.211 421.133 190.851 420.69 190.63C420.275 190.381 419.819 190.326 419.321 190.464C418.824 190.575 418.409 190.934 418.077 191.543C417.773 192.068 417.469 192.593 417.165 193.119C416.888 193.644 416.612 194.17 416.335 194.695C416.059 195.22 415.782 195.746 415.506 196.271C414.925 197.294 414.4 198.234 413.93 199.091C413.459 199.949 412.989 200.806 412.519 201.663C412.049 202.52 411.538 203.46 410.985 204.483C410.459 205.451 410.003 206.488 409.616 207.594C409.257 208.7 409.077 209.903 409.077 211.202C409.077 211.866 409.077 212.488 409.077 213.069C409.077 213.622 409.077 214.147 409.077 214.645C409.077 215.143 409.077 215.613 409.077 216.055C409.077 216.498 409.077 216.926 409.077 217.341C409.077 217.894 409.201 218.35 409.45 218.71C409.699 219.041 410.003 219.263 410.363 219.373C410.75 219.484 411.123 219.484 411.482 219.373C411.87 219.263 412.188 219.041 412.436 218.71C412.685 218.35 412.81 217.894 412.81 217.341C412.81 216.733 412.81 216.124 412.81 215.516C412.81 214.88 412.81 214.203 412.81 213.484C412.81 212.765 412.81 211.991 412.81 211.161C412.81 209.861 412.727 208.811 412.561 208.009C412.423 207.179 412.187 206.447 411.856 205.811C411.524 205.175 411.109 204.497 410.611 203.778C410.141 203.032 409.575 202.092 408.911 200.958C408.468 200.184 408.054 199.451 407.667 198.76C407.307 198.068 406.934 197.377 406.547 196.686C406.187 195.967 405.786 195.206 405.344 194.405C404.902 193.575 404.404 192.635 403.851 191.584C403.519 190.948 403.104 190.575 402.606 190.464C402.109 190.326 401.639 190.381 401.196 190.63C400.754 190.851 400.45 191.211 400.284 191.709C400.118 192.179 400.201 192.718 400.533 193.326C401.113 194.405 401.625 195.359 402.067 196.188C402.51 197.018 402.911 197.792 403.27 198.511C403.657 199.23 404.044 199.935 404.431 200.626C404.819 201.29 405.233 202.022 405.676 202.824C406.201 203.737 406.671 204.497 407.086 205.105C407.528 205.686 407.888 206.253 408.164 206.806C408.468 207.331 408.69 207.926 408.828 208.589C408.994 209.253 409.077 210.11 409.077 211.161C409.077 211.825 409.077 212.447 409.077 213.027C409.077 213.608 409.077 214.147 409.077 214.645C409.077 215.143 409.077 215.613 409.077 216.055C409.077 216.498 409.077 216.926 409.077 217.341C409.077 217.894 409.201 218.35 409.45 218.71C409.699 219.041 410.003 219.263 410.363 219.373C410.75 219.484 411.123 219.484 411.482 219.373C411.87 219.263 412.188 219.041 412.436 218.71C412.685 218.35 412.81 217.894 412.81 217.341C412.81 216.899 412.81 216.442 412.81 215.972C412.81 215.502 412.81 215.018 412.81 214.521C412.81 214.023 412.81 213.497 412.81 212.944C412.81 212.391 412.81 211.811 412.81 211.202C412.81 210.262 412.962 209.378 413.266 208.548C413.57 207.718 413.916 206.944 414.303 206.225C414.828 205.23 415.326 204.304 415.796 203.446C416.266 202.589 416.736 201.732 417.206 200.875C417.676 200.018 418.188 199.091 418.741 198.096C419.183 197.322 419.612 196.548 420.027 195.773C420.441 194.971 420.87 194.17 421.312 193.368Z" fill="#FF5CE5"/>
</g>
<path fill-rule="evenodd" clip-rule="evenodd" d="M154.424 109.754C181.74 106.658 207.658 106.187 223.229 106.709C224.796 106.762 226.087 107.961 226.254 109.522C226.42 111.082 225.412 112.526 223.891 112.909C220.83 113.679 218.646 116.893 217.485 122.311C216.383 127.455 216.502 133.381 216.977 137.293C219.059 147.779 224.394 176.496 229.321 208.711C234.416 242.028 220.882 265.571 213.014 273.487L213.007 273.494C202.498 284.066 191.599 295.031 176.322 316.547C160.77 338.451 138.534 387.754 118.531 435.832C103.504 471.952 89.8557 507.08 81.3851 528.882C78.6095 536.027 76.3898 541.74 74.8597 545.588C74.8275 545.669 74.7923 545.749 74.7532 545.826C74.604 546.127 74.4453 546.462 74.2734 546.823C73.7143 548.002 73.0197 549.466 72.0846 550.946L91.7372 553.603C95.152 553.578 97.7494 552.917 99.9256 551.714C102.164 550.482 104.181 548.557 106.222 545.696C109.751 540.747 112.965 533.609 117.425 523.7C118.284 521.794 119.188 519.784 120.149 517.669C127.755 500.935 135.546 480.909 142.284 463.588L142.869 462.084C146.296 453.277 149.44 445.217 152.116 438.775C154.748 432.438 157.047 427.359 158.788 424.732C163.201 418.072 169.673 408.377 180.779 401.577C191.95 394.738 207.449 391.025 229.602 395.386H481.915C499.583 391.013 515.164 393.15 528.016 400.488C540.913 407.851 550.762 420.28 557.259 435.904C564.748 453.914 569.494 467.365 573.937 480.224C574.357 481.443 574.776 482.657 575.194 483.868C579.177 495.425 583.09 506.777 588.758 520.95C589.35 522.422 589.916 523.886 590.483 525.334C593.399 532.825 596.15 539.884 600.382 545.243C602.831 548.344 605.703 550.744 609.279 552.23C612.843 553.704 617.333 554.359 623.158 553.634L639.825 550.807C638.937 549.372 638.27 547.964 637.728 546.823C637.552 546.462 637.395 546.127 637.244 545.826C637.206 545.749 637.174 545.669 637.143 545.588C635.613 541.74 633.39 536.028 630.613 528.884C622.144 507.082 608.498 471.953 593.468 435.832C573.466 387.754 551.23 338.451 535.678 316.547C520.401 295.031 509.502 284.066 498.993 273.494L498.986 273.487C491.118 265.571 477.584 242.028 482.679 208.711C487.606 176.497 492.941 147.779 495.023 137.293C495.498 133.381 495.617 127.455 494.515 122.311C493.354 116.893 491.17 113.679 488.109 112.909C486.588 112.526 485.58 111.082 485.746 109.522C485.913 107.961 487.204 106.762 488.772 106.709C504.342 106.187 530.26 106.658 557.576 109.754C584.828 112.844 613.788 118.581 635.241 128.739C635.858 129.029 636.356 129.51 636.677 130.11C653.269 161.403 690.018 248.033 704.891 345.289C714.179 406.055 713.442 453.786 706.402 488.403C699.4 522.838 686 545.021 669.251 553.446C658.395 558.905 650.99 559.465 645.688 556.619C645.493 556.512 645.304 556.405 645.121 556.292L624.146 559.856C624.102 559.862 624.052 559.868 624.008 559.875C617.276 560.718 611.641 560.019 606.868 558.042C602.101 556.071 598.411 552.904 595.445 549.147C590.565 542.974 587.41 534.847 584.514 527.379C583.978 525.987 583.443 524.618 582.914 523.289C577.184 508.967 573.224 497.478 569.242 485.924C568.824 484.711 568.405 483.498 567.985 482.28C563.56 469.469 558.861 456.158 551.444 438.321C545.347 423.656 536.305 412.471 524.894 405.956C513.529 399.467 499.516 397.437 483.073 401.587C482.822 401.651 482.563 401.683 482.303 401.683H229.293C229.086 401.683 228.88 401.663 228.677 401.622C207.685 397.43 193.751 401.019 184.067 406.948C174.268 412.947 168.454 421.546 164.037 428.21C162.693 430.239 160.617 434.722 157.931 441.19C155.288 447.554 152.171 455.543 148.738 464.367L148.125 465.942C141.408 483.21 133.562 503.378 125.882 520.274C124.962 522.298 124.084 524.251 123.239 526.13C118.801 536.001 115.272 543.851 111.348 549.352C108.95 552.715 106.275 555.404 102.965 557.23C99.6354 559.062 95.8856 559.9 91.5313 559.9C91.3902 559.9 91.2492 559.894 91.1094 559.875L66.4533 556.537C66.4061 556.569 66.3589 556.594 66.3116 556.619C61.0116 559.465 53.6058 558.905 42.75 553.446C26.0003 545.021 12.5974 522.838 5.59624 488.403C-1.44216 453.786 -2.18047 406.055 7.11221 345.289C21.9854 248.033 58.7334 161.403 75.3231 130.11C75.6411 129.51 76.1442 129.029 76.7582 128.739C98.2148 118.581 127.17 112.844 154.424 109.754ZM64.0681 550.616C64.0152 550.65 63.9629 550.686 63.9119 550.725C63.7249 550.845 63.5309 550.965 63.3288 551.072C60.8 552.432 55.8639 552.992 45.5798 547.821C31.4736 540.725 18.65 521.003 11.7669 487.149C4.92071 453.477 4.11647 406.533 13.3367 346.241C27.9385 250.757 63.8458 165.547 80.3971 133.988C100.817 124.55 128.498 119.03 155.134 116.011C177.568 113.468 199.049 112.72 214.439 112.834C212.88 115.331 211.917 118.245 211.328 120.992C210.023 127.077 210.199 133.814 210.742 138.181C210.751 138.257 210.763 138.332 210.778 138.407C212.827 148.711 218.167 177.43 223.096 209.662C227.874 240.909 215.078 262.478 208.548 269.048C197.943 279.717 186.763 290.966 171.188 312.902C155.144 335.499 132.64 385.526 112.717 433.413C97.655 469.617 83.9467 504.901 75.4818 526.689C72.7502 533.719 70.5652 539.344 69.0558 543.142C68.8871 543.483 68.7227 543.819 68.5615 544.149C67.2304 546.875 66.0988 549.193 64.0681 550.616ZM647.829 550.543C648.093 550.738 648.376 550.914 648.672 551.072C651.197 552.432 656.134 552.992 666.423 547.821C680.528 540.725 693.349 521.003 700.231 487.149C707.082 453.477 707.882 406.533 698.663 346.241C684.061 250.757 648.156 165.547 631.602 133.988C611.181 124.55 583.5 119.03 556.866 116.011C534.432 113.468 512.952 112.72 497.561 112.834C499.12 115.331 500.083 118.245 500.672 120.992C501.977 127.077 501.8 133.814 501.258 138.181C501.254 138.218 501.248 138.254 501.243 138.29C501.236 138.329 501.229 138.368 501.222 138.407C499.173 148.711 493.833 177.43 488.904 209.662C484.126 240.909 496.922 262.478 503.452 269.048C514.057 279.717 525.237 290.966 540.812 312.902C556.856 335.499 579.36 385.526 599.28 433.413C614.342 469.617 628.05 504.9 636.52 526.689C639.252 533.719 641.437 539.344 642.942 543.143C643.112 543.483 643.276 543.82 643.44 544.149C644.699 546.734 645.782 548.951 647.621 550.388C647.696 550.437 647.766 550.489 647.829 550.543Z" fill="black"/>
<path fill-rule="evenodd" clip-rule="evenodd" d="M472.492 282.839C448.148 282.839 428.414 302.573 428.414 326.917C428.414 351.26 448.148 370.995 472.492 370.995C496.836 370.995 516.57 351.26 516.57 326.917C516.57 302.573 496.836 282.839 472.492 282.839ZM422.117 326.917C422.117 299.095 444.671 276.542 472.492 276.542C500.314 276.542 522.867 299.095 522.867 326.917C522.867 354.738 500.314 377.292 472.492 377.292C444.671 377.292 422.117 354.738 422.117 326.917Z" fill="white"/>
<path fill-rule="evenodd" clip-rule="evenodd" d="M239.508 282.839C215.164 282.839 195.43 302.573 195.43 326.917C195.43 351.26 215.164 370.995 239.508 370.995C263.852 370.995 283.586 351.26 283.586 326.917C283.586 302.573 263.852 282.839 239.508 282.839ZM189.133 326.917C189.133 299.095 211.686 276.542 239.508 276.542C267.329 276.542 289.883 299.095 289.883 326.917C289.883 354.738 267.329 377.292 239.508 377.292C211.686 377.292 189.133 354.738 189.133 326.917Z" fill="white"/>
<path fill-rule="evenodd" clip-rule="evenodd" d="M616.867 114.027V119.534C586.082 110.076 551.058 107.188 533.683 106.871V96.3271C550.726 92.3418 567.987 94.314 582.889 98.5927C597.542 102.798 609.714 109.177 616.867 114.027ZM584.627 92.5401C568.33 87.8615 548.953 85.6992 529.723 90.8274C528.345 91.1951 527.386 92.4431 527.386 93.8694V109.989C527.386 111.728 528.796 113.138 530.535 113.138C546.802 113.138 586.195 115.956 619.02 126.831C619.984 127.149 621.035 126.987 621.854 126.395C622.679 125.803 623.164 124.854 623.164 123.843V112.382C623.164 111.366 622.673 110.411 621.841 109.821C614.354 104.473 600.917 97.2174 584.627 92.5401Z" fill="black"/>
<path fill-rule="evenodd" clip-rule="evenodd" d="M92.9027 114.027V119.534C123.689 110.076 158.709 107.188 176.084 106.871V96.3271C159.041 92.3418 141.781 94.314 126.877 98.5927C112.228 102.798 100.054 109.177 92.9027 114.027ZM125.14 92.5401C141.438 87.8615 160.815 85.6992 180.045 90.8274C181.422 91.1951 182.381 92.4431 182.381 93.8694V109.989C182.381 111.728 180.972 113.138 179.233 113.138C162.966 113.138 123.572 115.956 90.7441 126.831C89.7845 127.149 88.7304 126.987 87.9105 126.395C87.0913 125.803 86.6058 124.854 86.6058 123.843V112.382C86.6058 111.366 87.097 110.411 87.9244 109.821C95.4114 104.473 108.849 97.2174 125.14 92.5401Z" fill="black"/>
<path fill-rule="evenodd" clip-rule="evenodd" d="M555.692 109.719C528.044 106.656 501.81 106.191 486.053 106.707C484.48 106.759 483.187 107.962 483.024 109.527C482.861 111.091 483.877 112.536 485.404 112.912C488.542 113.683 490.737 116.875 491.905 122.2C493.017 127.273 492.897 133.122 492.417 136.985C490.309 147.364 484.908 175.778 479.921 207.649C474.757 240.656 488.476 263.974 496.443 271.807L496.449 271.813C507.089 282.274 518.122 293.123 533.588 314.411C549.329 336.079 571.838 384.855 592.089 432.427C607.302 468.164 621.117 502.92 629.694 524.492C632.502 531.561 634.75 537.215 636.299 541.024C636.331 541.106 636.368 541.186 636.412 541.264C636.564 541.561 636.721 541.893 636.897 542.251C638.27 545.084 640.455 549.58 644.951 551.947C650.278 554.743 657.734 554.207 668.722 548.805C685.66 540.476 699.243 518.524 706.333 484.427C713.461 450.16 714.21 402.919 704.803 342.787C689.741 246.543 652.532 160.82 635.739 129.852C635.411 129.257 634.907 128.781 634.29 128.496C612.579 118.451 583.279 112.776 555.692 109.719ZM630.701 133.778C647.457 165.002 683.803 249.301 698.581 343.76C707.913 403.409 707.101 449.844 700.168 483.145C693.204 516.617 680.239 536.127 665.938 543.155C655.523 548.275 650.486 547.738 647.885 546.371C645.335 545.03 644.082 542.529 642.583 539.526C642.42 539.2 642.256 538.867 642.086 538.529C640.556 534.773 638.346 529.209 635.581 522.255C627.011 500.697 613.133 465.783 597.882 429.96C577.713 382.58 554.928 333.073 538.682 310.71C522.913 289.004 511.594 277.874 500.858 267.317C494.247 260.817 481.311 239.499 486.143 208.623C491.132 176.732 496.538 148.318 498.612 138.124C498.627 138.047 498.64 137.97 498.65 137.893C499.2 133.564 499.379 126.886 498.056 120.851C497.462 118.144 496.496 115.288 494.946 112.834C510.532 112.721 532.283 113.461 554.999 115.978C581.974 118.967 610.016 124.431 630.701 133.778Z" fill="black"/>
<path fill-rule="evenodd" clip-rule="evenodd" d="M156.308 109.719C183.956 106.656 210.19 106.191 225.947 106.707C227.52 106.759 228.813 107.962 228.976 109.527C229.139 111.091 228.123 112.536 226.596 112.912C223.458 113.683 221.263 116.875 220.095 122.2C218.983 127.273 219.103 133.122 219.583 136.985C221.691 147.364 227.092 175.777 232.079 207.649C237.243 240.656 223.524 263.974 215.557 271.807L215.551 271.813C204.911 282.274 193.878 293.123 178.412 314.411C162.671 336.079 140.162 384.855 119.911 432.427C104.698 468.164 90.882 502.919 82.307 524.491C79.4967 531.561 77.2487 537.215 75.6997 541.024C75.6663 541.106 75.6298 541.186 75.5895 541.264C75.4383 541.561 75.2778 541.893 75.1033 542.251C73.7275 545.084 71.5431 549.58 67.0459 551.947C61.7219 554.743 54.267 554.207 43.2808 548.805C26.3385 540.476 12.758 518.524 5.66481 484.427C-1.46395 450.16 -2.21032 402.919 7.19866 342.787C22.2581 246.543 59.4657 160.82 76.2632 129.852C76.5863 129.257 77.0932 128.781 77.7084 128.496C99.4187 118.451 128.72 112.776 156.308 109.719ZM81.3001 133.778C64.5454 165.002 28.1998 249.301 13.4198 343.76C4.08662 403.409 4.90194 449.844 11.8297 483.145C18.7929 516.617 31.7638 536.127 46.059 543.155C56.4753 548.275 61.5153 547.738 64.1159 546.371C66.6662 545.03 67.9155 542.529 69.4154 539.527C69.5791 539.2 69.7453 538.867 69.916 538.529C71.4436 534.773 73.6551 529.209 76.4194 522.255C84.9894 500.697 98.8684 465.783 114.118 429.96C134.287 382.58 157.072 333.073 173.318 310.71C189.087 289.004 200.406 277.874 211.142 267.317C217.753 260.817 230.689 239.5 225.857 208.623C220.868 176.732 215.462 148.318 213.388 138.124C213.373 138.047 213.36 137.97 213.35 137.893C212.8 133.564 212.621 126.886 213.944 120.851C214.538 118.144 215.504 115.288 217.054 112.834C201.468 112.721 179.717 113.461 157.001 115.978C130.026 118.967 101.986 124.431 81.3001 133.778Z" fill="black"/>
<path fill-rule="evenodd" clip-rule="evenodd" d="M333.961 361.55C333.961 359.811 335.371 358.401 337.109 358.401H374.891C376.629 358.401 378.039 359.811 378.039 361.55C378.039 363.288 376.629 364.698 374.891 364.698H337.109C335.371 364.698 333.961 363.288 333.961 361.55Z" fill="white"/>
<path fill-rule="evenodd" clip-rule="evenodd" d="M128.719 244.656C132.45 240.675 138.769 240.675 142.5 244.656L155.094 258.089C156.735 259.84 157.648 262.15 157.648 264.549V285.987C157.648 291.203 153.419 295.432 148.203 295.432H123.016C117.799 295.432 113.57 291.203 113.57 285.987V264.549C113.57 262.15 114.484 259.84 116.125 258.089L128.719 244.656Z" fill="black"/>
<path fill-rule="evenodd" clip-rule="evenodd" d="M142.5 213.975C138.769 217.955 132.45 217.955 128.719 213.975L116.125 200.541C114.484 198.79 113.57 196.481 113.57 194.081V172.643C113.57 167.427 117.799 163.198 123.016 163.198H148.203C153.419 163.198 157.648 167.427 157.648 172.643V194.081C157.648 196.481 156.735 198.79 155.094 200.541L142.5 213.975Z" fill="black"/>
<path fill-rule="evenodd" clip-rule="evenodd" d="M120.269 222.424C124.249 226.156 124.249 232.474 120.269 236.206L106.836 248.8C105.085 250.441 102.775 251.354 100.375 251.354H78.9375C73.7212 251.354 69.4922 247.125 69.4922 241.909V216.721C69.4922 211.505 73.7212 207.276 78.9375 207.276H100.375C102.775 207.276 105.085 208.189 106.836 209.831L120.269 222.424Z" fill="black"/>
<path fill-rule="evenodd" clip-rule="evenodd" d="M150.95 236.206C146.97 232.474 146.97 226.156 150.95 222.424L164.383 209.831C166.134 208.189 168.444 207.276 170.844 207.276H192.281C197.498 207.276 201.727 211.505 201.727 216.721V241.909C201.727 247.125 197.498 251.354 192.281 251.354H170.844C168.444 251.354 166.134 250.441 164.383 248.8L150.95 236.206Z" fill="black"/>
<path fill-rule="evenodd" clip-rule="evenodd" d="M527.543 128.753C524.169 127.91 520.75 129.961 519.907 133.335L513.61 158.522C512.766 161.896 514.818 165.315 518.192 166.159C521.566 167.002 524.984 164.95 525.828 161.577L532.125 136.39C532.968 133.016 530.916 129.597 527.543 128.753Z" fill="black"/>
<path fill-rule="evenodd" clip-rule="evenodd" d="M184.457 128.753C187.831 127.91 191.25 129.961 192.093 133.335L198.39 158.522C199.234 161.896 197.182 165.315 193.808 166.159C190.434 167.002 187.016 164.95 186.172 161.577L179.875 136.39C179.032 133.016 181.084 129.597 184.457 128.753Z" fill="black"/>
<path fill-rule="evenodd" clip-rule="evenodd" d="M327.664 285.987C327.664 284.248 329.074 282.839 330.812 282.839H381.188C382.926 282.839 384.336 284.248 384.336 285.987C384.336 287.726 382.926 289.135 381.188 289.135H330.812C329.074 289.135 327.664 287.726 327.664 285.987Z" fill="white"/>
<path fill-rule="evenodd" clip-rule="evenodd" d="M315.07 273.393C315.07 271.655 316.48 270.245 318.219 270.245H393.781C395.52 270.245 396.93 271.655 396.93 273.393C396.93 275.132 395.52 276.542 393.781 276.542H318.219C316.48 276.542 315.07 275.132 315.07 273.393Z" fill="white"/>
<path d="M527.082 86.4432C527.102 86.1665 527.126 85.8279 527.154 85.4328C527.24 84.2286 527.364 82.5004 527.519 80.4043C527.828 76.2118 528.257 70.5483 528.738 64.663C529.218 58.7771 529.751 52.6726 530.266 47.5971C530.784 42.4988 531.279 38.4973 531.68 36.7765C532.491 33.2919 534.341 28.1682 537.099 23.1215C539.861 18.0684 543.496 13.1606 547.848 10.0385C549.227 9.04939 550.448 8.14048 551.565 7.30878C554.133 5.39688 556.153 3.89303 558.284 2.76089C561.271 1.17376 564.457 0.340616 569.62 0.340616C579.874 0.340616 593.856 6.43508 602.683 20.8282C604.872 24.396 607.175 30.3703 609.402 37.3907C611.624 44.3919 613.751 52.3686 615.6 59.8985C617.448 67.4268 619.017 74.5002 620.124 79.6919C620.678 82.2876 621.116 84.4125 621.415 85.888C621.52 86.4061 621.608 86.8442 621.678 87.1944C621.557 87.183 621.426 87.1705 621.285 87.1572C620.379 87.0719 619.065 86.95 617.434 86.8038C614.173 86.5113 609.643 86.1213 604.567 85.7313C594.422 84.9519 582.073 84.1704 573.322 84.1704C564.578 84.1704 552.795 84.7562 543.209 85.3408C538.414 85.6333 534.164 85.9258 531.113 86.1451C529.588 86.2548 528.362 86.3462 527.517 86.4102C527.359 86.4222 527.214 86.4332 527.082 86.4432Z" stroke="black" stroke-width="1.51125"/>
<path d="M526.755 80.6395C526.755 80.6395 552.182 76.3529 574.491 76.3529C596.8 76.3529 621.156 80.6395 621.156 80.6395C622.13 85.2183 622.715 88.0435 622.715 88.0435C622.715 88.0435 590.858 84.926 573.419 84.926C555.981 84.926 526.365 87.2641 526.365 87.2641C526.365 87.2641 526.365 84.6337 526.755 80.6395Z" fill="black"/>
<path d="M575.465 63.5908L572.348 66.1237C571.166 67.2853 570.47 68.8523 570.399 70.5077H579.947V67.9747H573.809C574.352 67.2192 575.049 66.5882 575.855 66.1237C576.821 65.5659 577.707 64.8774 578.485 64.0779C579.305 63.2089 579.758 62.0576 579.752 60.863C579.774 60.2599 579.664 59.6592 579.428 59.1035C579.192 58.5479 578.837 58.051 578.388 57.6481C577.436 56.8478 576.221 56.431 574.978 56.479C571.958 56.479 570.399 58.1352 570.399 61.3501H573.03C573.03 59.5965 573.712 58.7197 575.076 58.7197C575.347 58.6912 575.621 58.7253 575.878 58.8195C576.134 58.9138 576.365 59.0656 576.553 59.2632C576.741 59.4609 576.882 59.6991 576.963 59.9596C577.045 60.2201 577.066 60.4958 577.024 60.7656C577.018 61.3286 576.872 61.8813 576.6 62.3742C576.328 62.8672 575.938 63.2852 575.465 63.5908Z" fill="black"/>
<path d="M558.319 65.0521H561.242C562.703 65.0521 563.482 65.6366 563.58 66.9031C563.677 68.1696 563.775 69.3386 563.872 70.6051H567.087V70.2154C566.6 70.0206 566.405 69.5335 566.405 68.7541C566.4 68.491 566.433 68.2285 566.502 67.9747V67.2928C566.578 66.615 566.452 65.93 566.14 65.3235C565.828 64.7171 565.344 64.216 564.749 63.883C565.428 63.655 566.01 63.2032 566.399 62.6015C566.789 61.9998 566.962 61.2839 566.892 60.5707C566.932 60.0176 566.837 59.4632 566.617 58.9544C566.396 58.4456 566.056 57.9975 565.626 57.6481C564.741 56.9528 563.632 56.6062 562.508 56.6739H555.396V70.6051H558.319V65.0521ZM558.319 58.9146H561.924C563.288 58.9146 563.97 59.4991 563.97 60.7656C563.97 62.032 563.19 62.6166 561.729 62.6166H558.319V58.9146Z" fill="black"/>
<path d="M181.632 86.8583C181.612 86.5815 181.588 86.2429 181.56 85.8478C181.475 84.6436 181.35 82.9154 181.196 80.8193C180.887 76.6268 180.458 70.9633 179.977 65.078C179.496 59.1921 178.964 53.0876 178.448 48.0121C177.931 42.9138 177.436 38.9123 177.035 37.1915C176.223 33.707 174.374 28.5832 171.616 23.5365C168.854 18.4834 165.218 13.5756 160.866 10.4535C159.487 9.4644 158.267 8.55549 157.15 7.72379C154.582 5.81189 152.562 4.30804 150.431 3.1759C147.443 1.58876 144.258 0.755625 139.095 0.755625C128.84 0.755625 114.859 6.85009 106.031 21.2432C103.843 24.811 101.54 30.7853 99.312 37.8057C97.0905 44.8069 94.964 52.7836 93.115 60.3135C91.2663 67.8418 89.6971 74.9152 88.59 80.1069C88.0365 82.7026 87.5987 84.8275 87.2992 86.303C87.1941 86.8211 87.106 87.2592 87.036 87.6094C87.157 87.598 87.2883 87.5855 87.4295 87.5723C88.3356 87.4869 89.6493 87.365 91.2801 87.2188C94.5414 86.9263 99.0718 86.5363 104.148 86.1464C114.292 85.3669 126.642 84.5854 135.393 84.5854C144.137 84.5854 155.92 85.1712 165.505 85.7559C170.3 86.0483 174.55 86.3408 177.601 86.5601C179.127 86.6698 180.353 86.7612 181.198 86.8252C181.356 86.8372 181.501 86.8482 181.632 86.8583Z" stroke="black" stroke-width="1.51125"/>
<path d="M181.96 81.0545C181.96 81.0545 156.533 76.7679 134.223 76.7679C111.914 76.7679 87.5587 81.0545 87.5587 81.0545C86.5845 85.6333 85.9999 88.4585 85.9999 88.4585C85.9999 88.4585 117.857 85.341 135.295 85.341C152.734 85.341 182.35 87.6791 182.35 87.6791C182.35 87.6791 182.35 85.0487 181.96 81.0545Z" fill="black"/>
<path d="M148.795 64.0324L145.734 66.5196C144.573 67.6602 143.89 69.1989 143.821 70.8244H153.195V68.3372H147.264C147.797 67.5953 148.482 66.9757 149.273 66.5196C150.222 65.9718 151.091 65.2958 151.856 64.5107C152.661 63.6574 153.106 62.5269 153.1 61.3539C153.122 60.7617 153.013 60.1718 152.782 59.6262C152.55 59.0806 152.202 58.5927 151.76 58.1971C150.826 57.4112 149.632 57.002 148.412 57.0491C145.447 57.0491 143.916 58.6754 143.916 61.8322H146.499C146.499 60.1103 147.169 59.2493 148.508 59.2493C148.774 59.2213 149.044 59.2548 149.295 59.3473C149.547 59.4399 149.774 59.5889 149.959 59.783C150.144 59.9771 150.282 60.2111 150.362 60.4668C150.442 60.7226 150.462 60.9934 150.421 61.2582C150.394 61.8175 150.232 62.3619 149.949 62.8449C149.665 63.328 149.27 63.7354 148.795 64.0324Z" fill="#020202"/>
<path d="M140.664 68.2415H133.872V57.1448H131.002V70.8244H140.664V68.2415Z" fill="#020202"/>
</g>
<defs>
<filter id="filter0_i_1_2" x="261.818" y="138.34" width="187.888" height="85.1163" filterUnits="userSpaceOnUse" color-interpolation-filters="sRGB">
<feFlood flood-opacity="0" result="BackgroundImageFix"/>
<feBlend mode="normal" in="SourceGraphic" in2="BackgroundImageFix" result="shape"/>
<feColorMatrix in="SourceAlpha" type="matrix" values="0 0 0 0 0 0 0 0 0 0 0 0 0 0 0 0 0 0 127 0" result="hardAlpha"/>
<feOffset dy="4"/>
<feGaussianBlur stdDeviation="2"/>
<feComposite in2="hardAlpha" operator="arithmetic" k2="-1" k3="1"/>
<feColorMatrix type="matrix" values="0 0 0 0 0 0 0 0 0 0 0 0 0 0 0 0 0 0 0.5 0"/>
<feBlend mode="normal" in2="shape" result="effect1_innerShadow_1_2"/>
</filter>
<clipPath id="clip0_1_2">
<rect width="712" height="560" fill="white"/>
</clipPath>
<clipPath id="clip1_1_2">
<rect width="49.8713" height="49.8713" fill="white" transform="translate(555 268)"/>
</clipPath>
<clipPath id="clip2_1_2">
<rect width="49.8713" height="49.8713" fill="white" transform="translate(606 217)"/>
</clipPath>
<clipPath id="clip3_1_2">
<rect width="49.8713" height="49.8713" fill="white" transform="translate(555 166)"/>
</clipPath>
<clipPath id="clip4_1_2">
<rect width="49.8713" height="49.8713" fill="white" transform="translate(504 217)"/>
</clipPath>
</defs>
</svg>
