<svg width="712" height="560" viewBox="0 0 712 560" fill="none" xmlns="http://www.w3.org/2000/svg">
<g clip-path="url(#clip0_1_2)">
<path d="M60.0001 551.5C18.1432 541.059 5.84194 510.495 3.50006 412.5C11.9352 296.307 29.2117 235.764 77.0001 134C78.8651 133.216 87.8031 129.126 89.0001 126.5C91.509 120.996 85.6182 115.134 89.0001 112C101.52 100.396 116.564 96.0365 131 93.5001C139.36 92.0313 166.169 88.001 176 93.5001C182.154 96.9425 170.53 109.592 178 112C188.344 115.334 202.011 111.727 214 112H229C322.852 91.9294 378.955 93.3065 483.5 112C500.408 111.443 515.125 111.314 528.5 111.725C531.22 111.809 527.884 93.8706 530.5 94.0001C559.211 86.6907 591.556 94.3182 616 111C617.817 111.555 615.649 126.32 617.5 126.915C622.351 128.472 627.333 130.165 632.5 132C678.282 226.127 690.219 281.144 704 380.5C710.777 447.349 708.921 482.812 683 538L647.5 552.5L520.5 388L402 392.5L201.5 388L145.5 412.5L80.0001 551.5H60.0001Z" fill="url(#paint0_linear_1_2)"/>
<path d="M108.5 16.5C97.5914 38.294 93.6531 53.2063 88 81.5002L181.5 83.0002L178 39.5001C174.989 27.3104 171.772 21.651 163 12C152.484 2.26257 146.686 -0.0951702 133.5 1.00003C122.35 4.41977 116.937 7.92906 108.5 16.5Z" fill="url(#paint1_linear_1_2)"/>
<path d="M528.5 80.0001L620 82.0001C616.114 58.9652 613.191 46.1717 604 24C603.099 11.2204 576.931 -0.789802 572 1C569.455 -0.419362 553 3 549 10C546.125 10.7945 533.166 23.7397 531 40L528.5 80.0001Z" fill="url(#paint2_linear_1_2)"/>
<path fill-rule="evenodd" clip-rule="evenodd" d="M157.409 345.689C159.742 340.762 162.128 335.722 164.575 330.549C178.364 306.235 188.993 291.786 218.476 263.046C223.737 256.575 226.862 247.638 232.581 227.28C239.967 243.645 246.651 250.391 265.829 255.49H443.149C461.373 250.494 470.018 244.614 481.937 227.28L493.02 263.046C525.643 297.858 542.101 317.38 559.515 352.21C595.811 428.373 614.975 471.386 643.137 549.68L629.536 555.725C614.163 559.148 606.394 556.329 594.274 541.62C586.232 521.479 580.042 504.632 573.853 487.792C567.288 469.926 560.725 452.067 551.959 430.291C534.353 396.215 519.384 393.369 481.937 399.059H232.581C194.757 393.553 179.942 399.943 164.575 427.773L118.23 528.523C107.565 551.971 101.733 557.234 91.5313 555.725L66.8475 552.199C100.174 466.576 122.941 418.488 157.409 345.689ZM315.07 273.393C315.07 271.655 316.48 270.245 318.219 270.245H393.781C395.52 270.245 396.93 271.655 396.93 273.393C396.93 275.132 395.52 276.542 393.781 276.542H318.219C316.48 276.542 315.07 275.132 315.07 273.393ZM330.812 282.839C329.074 282.839 327.664 284.248 327.664 285.987C327.664 287.726 329.074 289.135 330.812 289.135H381.188C382.926 289.135 384.336 287.726 384.336 285.987C384.336 284.248 382.926 282.839 381.188 282.839H330.812ZM337.109 358.401C335.371 358.401 333.961 359.811 333.961 361.55C333.961 363.288 335.371 364.698 337.109 364.698H374.891C376.629 364.698 378.039 363.288 378.039 361.55C378.039 359.811 376.629 358.401 374.891 358.401H337.109ZM472.366 276.647C444.823 276.647 422.495 299.201 422.495 327.023C422.495 354.844 444.823 377.398 472.366 377.398C499.91 377.398 522.237 354.844 522.237 327.023C522.237 299.201 499.91 276.647 472.366 276.647ZM189.133 326.917C189.133 299.095 211.686 276.542 239.508 276.542C267.329 276.542 289.883 299.095 289.883 326.917C289.883 354.738 267.329 377.292 239.508 377.292C211.686 377.292 189.133 354.738 189.133 326.917Z" fill="black"/>
<path fill-rule="evenodd" clip-rule="evenodd" d="M383.704 335.764C382.581 337.179 379.833 338.189 379.833 338.189L359.385 345.533V340.117L374.433 334.755C376.141 334.143 376.403 333.278 375.015 332.824C373.63 332.369 371.121 332.499 369.412 333.114L359.385 336.645V331.024L359.963 330.828C359.963 330.828 362.86 329.803 366.934 329.352C371.009 328.903 375.997 329.413 379.914 330.897C384.327 332.292 384.824 334.348 383.704 335.764ZM361.331 326.54V312.688C361.331 311.061 361.031 309.564 359.505 309.14C358.336 308.765 357.61 309.85 357.61 311.476V346.165L348.255 343.196V301.835C352.233 302.573 358.028 304.319 361.143 305.369C369.066 308.089 371.752 311.475 371.752 319.103C371.752 326.537 367.163 329.355 361.331 326.54ZM331.089 339.551C326.558 338.275 325.804 335.616 327.869 334.085C329.778 332.67 333.024 331.606 333.024 331.606L346.438 326.836V332.274L336.785 335.728C335.08 336.34 334.818 337.206 336.203 337.66C337.59 338.114 340.1 337.985 341.808 337.372L346.438 335.692V340.556C346.144 340.608 345.817 340.661 345.514 340.711C340.883 341.468 335.95 341.153 331.089 339.551Z" fill="white"/>
<g clip-path="url(#clip1_1_2)">
<path d="M556.358 279.675C556.358 266.81 566.787 256.381 579.652 256.381C592.517 256.381 602.946 266.81 602.946 279.675C602.946 292.54 592.517 302.969 579.652 302.969C566.787 302.969 556.358 292.54 556.358 279.675Z" fill="#141414" stroke="black" stroke-width="3"/>
<rect x="571" y="269" width="28.3359" height="3" transform="rotate(45 571 269)" fill="#1BE4D8"/>
<rect x="569" y="289" width="28.3359" height="3" transform="rotate(-45 569 289)" fill="#1BE4D8"/>
</g>
<g clip-path="url(#clip2_1_2)">
<path d="M607.358 228.675C607.358 215.81 617.787 205.381 630.652 205.381C643.517 205.381 653.946 215.81 653.946 228.675C653.946 241.54 643.517 251.969 630.652 251.969C617.787 251.969 607.358 241.54 607.358 228.675Z" fill="#141414" stroke="black" stroke-width="3"/>
<circle cx="630.5" cy="228.5" r="12.5" stroke="#FF3333" stroke-width="2.5"/>
</g>
<g clip-path="url(#clip3_1_2)">
<path d="M556.358 177.675C556.358 164.81 566.787 154.381 579.652 154.381C592.517 154.381 602.946 164.81 602.946 177.675C602.946 190.54 592.517 200.969 579.652 200.969C566.787 200.969 556.358 190.54 556.358 177.675Z" fill="#141414" stroke="black" stroke-width="3"/>
<path d="M569.175 184.25L580 165.5L590.825 184.25H569.175Z" stroke="#70FF00" stroke-width="2.5"/>
</g>
<g clip-path="url(#clip4_1_2)">
<path d="M505.358 228.675C505.358 215.81 515.787 205.381 528.652 205.381C541.517 205.381 551.946 215.81 551.946 228.675C551.946 241.54 541.517 251.969 528.652 251.969C515.787 251.969 505.358 241.54 505.358 228.675Z" fill="#141414" stroke="black" stroke-width="3"/>
<rect x="517.25" y="217.25" width="22.5" height="22.5" stroke="#F12AA2" stroke-width="2.5"/>
</g>
<path fill-rule="evenodd" clip-rule="evenodd" d="M248.055 103.269C275.943 97.0166 331.296 93.9323 361.938 93.9323C393.925 93.9323 436.365 95.7943 469.702 103.269C483.882 106.449 491.472 111.725 494.962 118.47C498.363 125.041 497.375 132.21 496.605 137.65C493.542 159.279 489.258 185.217 484.371 214.801L484.356 214.889C481.804 230.341 475.356 241.11 466.866 247.997C458.408 254.858 448.185 257.651 438.42 257.651H273.218C260.452 257.651 250.55 254.425 243.38 248.893C236.199 243.352 232.018 235.697 230.36 227.335C227.166 211.224 222.54 185.525 217.345 156.669C216.592 152.486 215.827 148.236 215.053 143.94C212.437 129.428 214.734 120.025 221.509 113.816C224.762 110.836 228.835 108.802 233.294 107.221C237.747 105.643 242.786 104.451 248.055 103.269ZM361.938 100.229C331.395 100.229 276.614 103.319 249.433 109.413C244.144 110.599 239.449 111.72 235.397 113.157C231.352 114.59 228.151 116.271 225.764 118.459C221.26 122.586 218.819 129.337 221.25 142.823C222.024 147.121 222.789 151.371 223.542 155.553C228.74 184.425 233.355 210.059 236.537 226.11C237.939 233.181 241.406 239.417 247.227 243.908C253.058 248.407 261.512 251.354 273.218 251.354H438.42C447.012 251.354 455.757 248.9 462.9 243.106C470.012 237.337 475.801 228.043 478.144 213.863L478.148 213.835C483.043 184.202 487.318 158.323 490.37 136.767C491.175 131.078 491.717 125.901 489.37 121.363C487.112 117 481.677 112.407 468.324 109.413C435.688 102.096 393.814 100.229 361.938 100.229Z" fill="black"/>
<path fill-rule="evenodd" clip-rule="evenodd" d="M154.424 109.754C181.74 106.658 207.658 106.187 223.229 106.709C224.796 106.762 226.087 107.961 226.254 109.522C226.42 111.082 225.412 112.526 223.891 112.909C220.83 113.679 218.646 116.893 217.485 122.311C216.383 127.455 216.502 133.381 216.977 137.293C219.059 147.779 224.394 176.496 229.321 208.711C234.416 242.028 220.882 265.571 213.014 273.487L213.007 273.494C202.498 284.066 191.599 295.031 176.322 316.547C160.77 338.451 138.534 387.754 118.531 435.832C103.504 471.952 89.8557 507.08 81.3851 528.882C78.6094 536.027 76.3898 541.74 74.8597 545.588C74.8275 545.669 74.7923 545.749 74.7532 545.826C74.604 546.127 74.4453 546.462 74.2734 546.823C73.7143 548.002 73.0197 549.466 72.0846 550.946L91.7372 553.603C95.152 553.578 97.7494 552.917 99.9256 551.714C102.164 550.482 104.181 548.557 106.222 545.696C109.751 540.747 112.965 533.609 117.425 523.7C118.284 521.794 119.188 519.784 120.149 517.669C127.755 500.935 135.546 480.909 142.284 463.588L142.869 462.084C146.296 453.277 149.44 445.217 152.116 438.775C154.748 432.438 157.047 427.359 158.788 424.732C163.201 418.072 169.673 408.378 180.779 401.578C191.95 394.738 207.449 391.025 229.602 395.386H481.915C499.583 391.013 515.164 393.15 528.016 400.487C540.913 407.851 550.762 420.28 557.259 435.904C564.748 453.914 569.494 467.365 573.937 480.224C574.357 481.443 574.776 482.657 575.194 483.868C579.177 495.425 583.091 506.777 588.758 520.95C589.35 522.422 589.916 523.886 590.483 525.334C593.399 532.825 596.15 539.884 600.382 545.243C602.831 548.344 605.703 550.744 609.279 552.23C612.843 553.704 617.333 554.359 623.158 553.634L639.825 550.807C638.937 549.372 638.27 547.964 637.728 546.823C637.552 546.462 637.395 546.127 637.244 545.826C637.206 545.749 637.174 545.669 637.143 545.588C635.613 541.74 633.39 536.028 630.613 528.884C622.144 507.082 608.498 471.953 593.468 435.832C573.466 387.754 551.23 338.451 535.678 316.547C520.401 295.031 509.502 284.066 498.993 273.494L498.986 273.487C491.118 265.571 477.584 242.028 482.679 208.711C487.606 176.497 492.941 147.779 495.023 137.293C495.498 133.381 495.617 127.455 494.515 122.311C493.354 116.893 491.17 113.679 488.109 112.909C486.588 112.526 485.58 111.082 485.746 109.522C485.913 107.961 487.204 106.762 488.772 106.709C504.342 106.187 530.26 106.658 557.576 109.754C584.828 112.844 613.788 118.581 635.241 128.739C635.858 129.029 636.356 129.51 636.677 130.11C653.269 161.403 690.018 248.033 704.891 345.289C714.179 406.055 713.442 453.786 706.402 488.403C699.4 522.838 686 545.021 669.251 553.446C658.395 558.905 650.99 559.465 645.688 556.619C645.493 556.512 645.304 556.405 645.121 556.292L624.146 559.856C624.102 559.862 624.052 559.868 624.008 559.875C617.276 560.718 611.641 560.019 606.868 558.042C602.101 556.071 598.411 552.904 595.445 549.147C590.565 542.974 587.41 534.847 584.514 527.379C583.978 525.987 583.443 524.618 582.914 523.289C577.184 508.967 573.224 497.478 569.242 485.924C568.824 484.711 568.405 483.498 567.985 482.28C563.56 469.469 558.861 456.158 551.444 438.321C545.347 423.656 536.305 412.471 524.894 405.956C513.529 399.467 499.516 397.437 483.073 401.587C482.822 401.651 482.563 401.683 482.303 401.683H229.293C229.086 401.683 228.88 401.663 228.677 401.622C207.685 397.43 193.751 401.019 184.067 406.948C174.268 412.947 168.454 421.546 164.037 428.21C162.693 430.239 160.617 434.722 157.931 441.19C155.288 447.554 152.171 455.543 148.738 464.367L148.125 465.942C141.408 483.21 133.562 503.378 125.882 520.274C124.962 522.298 124.084 524.251 123.239 526.13C118.801 536.001 115.272 543.851 111.348 549.352C108.95 552.715 106.275 555.404 102.965 557.23C99.6354 559.062 95.8856 559.9 91.5313 559.9C91.3902 559.9 91.2492 559.894 91.1094 559.875L66.4533 556.537C66.4061 556.569 66.3589 556.594 66.3116 556.619C61.0116 559.465 53.6058 558.905 42.75 553.446C26.0003 545.021 12.5974 522.838 5.59624 488.403C-1.44216 453.786 -2.18047 406.055 7.11221 345.289C21.9854 248.033 58.7334 161.403 75.3231 130.11C75.6411 129.51 76.1442 129.029 76.7582 128.739C98.2148 118.581 127.17 112.844 154.424 109.754ZM64.0681 550.616C64.0152 550.65 63.9629 550.686 63.9119 550.725C63.7249 550.845 63.5309 550.965 63.3288 551.072C60.8 552.432 55.8639 552.992 45.5798 547.821C31.4736 540.725 18.65 521.003 11.7669 487.149C4.92071 453.477 4.11647 406.533 13.3367 346.241C27.9385 250.757 63.8458 165.547 80.3971 133.988C100.817 124.55 128.498 119.03 155.134 116.011C177.568 113.468 199.049 112.72 214.439 112.834C212.88 115.331 211.917 118.245 211.328 120.992C210.023 127.077 210.199 133.814 210.742 138.181C210.751 138.257 210.763 138.332 210.778 138.407C212.827 148.711 218.167 177.43 223.096 209.662C227.874 240.909 215.078 262.478 208.548 269.048C197.943 279.717 186.763 290.966 171.188 312.902C155.144 335.499 132.64 385.526 112.717 433.413C97.655 469.617 83.9467 504.901 75.4818 526.69C72.7502 533.719 70.5652 539.344 69.0558 543.142C68.8871 543.483 68.7227 543.819 68.5615 544.149C67.2304 546.875 66.0988 549.193 64.0681 550.616ZM647.829 550.543C648.093 550.738 648.377 550.914 648.672 551.072C651.198 552.432 656.134 552.992 666.423 547.821C680.528 540.725 693.349 521.003 700.231 487.149C707.082 453.477 707.882 406.533 698.663 346.241C684.061 250.757 648.156 165.547 631.602 133.988C611.181 124.55 583.5 119.03 556.866 116.011C534.432 113.468 512.952 112.72 497.561 112.834C499.12 115.331 500.083 118.245 500.672 120.992C501.977 127.077 501.8 133.814 501.258 138.181C501.254 138.218 501.248 138.254 501.243 138.29C501.236 138.329 501.229 138.368 501.222 138.407C499.173 148.711 493.833 177.43 488.904 209.662C484.126 240.909 496.922 262.478 503.452 269.048C514.057 279.717 525.237 290.966 540.812 312.902C556.856 335.499 579.36 385.526 599.28 433.413C614.342 469.617 628.05 504.9 636.52 526.689C639.252 533.719 641.437 539.344 642.942 543.143C643.112 543.483 643.276 543.82 643.44 544.149C644.699 546.734 645.782 548.951 647.621 550.388C647.696 550.437 647.766 550.489 647.829 550.543Z" fill="black"/>
<path fill-rule="evenodd" clip-rule="evenodd" d="M616.867 114.027V119.534C586.082 110.076 551.058 107.188 533.683 106.871V96.3271C550.726 92.3418 567.987 94.314 582.889 98.5927C597.542 102.798 609.714 109.177 616.867 114.027ZM584.627 92.5401C568.33 87.8615 548.953 85.6992 529.723 90.8274C528.345 91.1951 527.386 92.4431 527.386 93.8694V109.989C527.386 111.728 528.796 113.138 530.535 113.138C546.802 113.138 586.195 115.956 619.02 126.831C619.984 127.149 621.035 126.987 621.854 126.395C622.679 125.803 623.164 124.854 623.164 123.843V112.382C623.164 111.366 622.673 110.411 621.841 109.821C614.354 104.473 600.917 97.2174 584.627 92.5401Z" fill="black"/>
<path fill-rule="evenodd" clip-rule="evenodd" d="M92.9027 114.027V119.534C123.689 110.076 158.709 107.188 176.084 106.871V96.3271C159.041 92.3418 141.781 94.314 126.877 98.5927C112.228 102.798 100.054 109.177 92.9027 114.027ZM125.14 92.5401C141.438 87.8615 160.815 85.6992 180.045 90.8274C181.422 91.1951 182.381 92.4431 182.381 93.8694V109.989C182.381 111.728 180.972 113.138 179.233 113.138C162.966 113.138 123.572 115.956 90.7441 126.831C89.7845 127.149 88.7304 126.987 87.9105 126.395C87.0913 125.803 86.6058 124.854 86.6058 123.843V112.382C86.6058 111.366 87.097 110.411 87.9244 109.821C95.4114 104.473 108.849 97.2174 125.14 92.5401Z" fill="black"/>
<path fill-rule="evenodd" clip-rule="evenodd" d="M555.692 109.719C528.044 106.656 501.81 106.191 486.053 106.707C484.48 106.759 483.187 107.962 483.024 109.527C482.861 111.091 483.877 112.536 485.404 112.912C488.542 113.683 490.737 116.875 491.905 122.2C493.017 127.273 492.897 133.122 492.417 136.985C490.309 147.364 484.908 175.778 479.921 207.649C474.757 240.656 488.476 263.974 496.443 271.807L496.449 271.813C507.089 282.274 518.122 293.123 533.588 314.411C549.329 336.079 571.838 384.855 592.089 432.427C607.302 468.164 621.117 502.92 629.694 524.492C632.502 531.561 634.75 537.215 636.299 541.024C636.331 541.106 636.368 541.186 636.412 541.264C636.564 541.561 636.721 541.893 636.897 542.251C638.27 545.084 640.455 549.58 644.951 551.947C650.278 554.743 657.734 554.207 668.722 548.805C685.66 540.476 699.243 518.524 706.333 484.427C713.461 450.16 714.21 402.919 704.803 342.787C689.741 246.543 652.532 160.82 635.739 129.852C635.411 129.257 634.907 128.781 634.29 128.496C612.579 118.451 583.279 112.776 555.692 109.719ZM630.701 133.778C647.457 165.002 683.803 249.301 698.581 343.76C707.913 403.409 707.101 449.844 700.168 483.145C693.204 516.617 680.239 536.127 665.938 543.155C655.523 548.275 650.486 547.738 647.885 546.371C645.335 545.03 644.082 542.529 642.583 539.526C642.42 539.2 642.256 538.867 642.086 538.529C640.556 534.773 638.346 529.209 635.581 522.255C627.011 500.697 613.133 465.783 597.882 429.96C577.713 382.58 554.928 333.073 538.682 310.71C522.913 289.004 511.594 277.873 500.858 267.317C494.247 260.817 481.311 239.499 486.143 208.623C491.132 176.732 496.538 148.318 498.612 138.124C498.627 138.047 498.64 137.97 498.65 137.893C499.2 133.564 499.379 126.886 498.056 120.851C497.462 118.144 496.496 115.288 494.946 112.834C510.532 112.721 532.283 113.461 554.999 115.978C581.974 118.967 610.016 124.431 630.701 133.778Z" fill="black"/>
<path fill-rule="evenodd" clip-rule="evenodd" d="M156.308 109.719C183.956 106.656 210.19 106.191 225.947 106.707C227.52 106.759 228.813 107.962 228.976 109.527C229.139 111.091 228.123 112.536 226.596 112.912C223.458 113.683 221.263 116.875 220.095 122.2C218.983 127.273 219.103 133.122 219.583 136.985C221.691 147.364 227.092 175.777 232.079 207.649C237.243 240.656 223.524 263.974 215.557 271.807L215.551 271.813C204.912 282.274 193.878 293.123 178.412 314.411C162.671 336.079 140.162 384.855 119.911 432.427C104.698 468.164 90.8821 502.919 82.307 524.491C79.4967 531.561 77.2487 537.215 75.6997 541.024C75.6663 541.106 75.6298 541.186 75.5895 541.264C75.4383 541.561 75.2778 541.893 75.1033 542.251C73.7275 545.084 71.5431 549.58 67.0459 551.947C61.7218 554.743 54.267 554.207 43.2808 548.805C26.3385 540.476 12.758 518.524 5.66481 484.427C-1.46395 450.16 -2.21032 402.919 7.19866 342.787C22.2581 246.543 59.4657 160.82 76.2632 129.852C76.5863 129.257 77.0932 128.781 77.7084 128.496C99.4187 118.451 128.72 112.776 156.308 109.719ZM81.3001 133.778C64.5454 165.002 28.1998 249.301 13.4198 343.76C4.08662 403.409 4.90194 449.844 11.8297 483.145C18.7929 516.617 31.7638 536.127 46.059 543.155C56.4753 548.275 61.5153 547.738 64.1159 546.371C66.6662 545.03 67.9155 542.529 69.4154 539.527C69.5791 539.2 69.7453 538.867 69.916 538.529C71.4436 534.773 73.6551 529.209 76.4194 522.255C84.9894 500.697 98.8684 465.783 114.118 429.96C134.287 382.58 157.072 333.073 173.318 310.71C189.087 289.004 200.406 277.873 211.142 267.317C217.753 260.817 230.689 239.5 225.857 208.623C220.868 176.732 215.462 148.318 213.388 138.124C213.373 138.047 213.36 137.97 213.35 137.893C212.8 133.564 212.621 126.886 213.944 120.851C214.538 118.144 215.504 115.288 217.054 112.834C201.468 112.721 179.717 113.461 157.001 115.978C130.026 118.967 101.986 124.431 81.3001 133.778Z" fill="black"/>
<path fill-rule="evenodd" clip-rule="evenodd" d="M128.989 244.18C132.7 240.197 138.985 240.197 142.696 244.18L155.223 257.625C156.855 259.377 157.764 261.689 157.764 264.091V285.547C157.764 290.767 153.558 295 148.369 295H123.316C118.127 295 113.921 290.767 113.921 285.547V264.091C113.921 261.689 114.83 259.377 116.462 257.625L128.989 244.18Z" fill="black"/>
<path fill-rule="evenodd" clip-rule="evenodd" d="M142.696 213.82C138.985 217.803 132.7 217.803 128.989 213.82L116.462 200.375C114.83 198.623 113.921 196.311 113.921 193.909V172.453C113.921 167.233 118.127 163 123.316 163H148.369C153.558 163 157.764 167.233 157.764 172.453V193.909C157.764 196.311 156.855 198.623 155.223 200.375L142.696 213.82Z" fill="black"/>
<path fill-rule="evenodd" clip-rule="evenodd" d="M120.82 221.989C124.803 225.7 124.803 231.985 120.82 235.696L107.375 248.223C105.623 249.855 103.311 250.764 100.909 250.764H79.4533C74.2326 250.764 70 246.558 70 241.369V216.316C70 211.127 74.2326 206.921 79.4533 206.921H100.909C103.311 206.921 105.623 207.829 107.375 209.462L120.82 221.989Z" fill="black"/>
<path fill-rule="evenodd" clip-rule="evenodd" d="M151.18 235.696C147.197 231.985 147.197 225.7 151.18 221.989L164.625 209.462C166.377 207.829 168.689 206.921 171.091 206.921H192.547C197.767 206.921 202 211.127 202 216.316V241.369C202 246.558 197.767 250.764 192.547 250.764H171.091C168.689 250.764 166.377 249.855 164.625 248.223L151.18 235.696Z" fill="black"/>
<path fill-rule="evenodd" clip-rule="evenodd" d="M527.543 128.753C524.169 127.91 520.75 129.961 519.907 133.335L513.61 158.522C512.766 161.896 514.818 165.315 518.192 166.159C521.566 167.002 524.984 164.95 525.828 161.577L532.125 136.39C532.968 133.016 530.916 129.597 527.543 128.753Z" fill="black"/>
<path fill-rule="evenodd" clip-rule="evenodd" d="M184.457 128.753C187.831 127.91 191.25 129.961 192.093 133.335L198.39 158.522C199.234 161.896 197.182 165.315 193.808 166.159C190.434 167.002 187.016 164.95 186.172 161.577L179.875 136.39C179.032 133.016 181.084 129.597 184.457 128.753Z" fill="black"/>
<path d="M527.082 86.4432C527.102 86.1665 527.126 85.8279 527.154 85.4328C527.24 84.2286 527.364 82.5004 527.519 80.4043C527.828 76.2118 528.257 70.5483 528.738 64.663C529.218 58.7771 529.751 52.6726 530.266 47.5971C530.784 42.4988 531.279 38.4973 531.68 36.7765C532.491 33.2919 534.341 28.1682 537.099 23.1215C539.861 18.0684 543.496 13.1606 547.848 10.0385C549.227 9.04939 550.448 8.14048 551.565 7.30878C554.133 5.39688 556.153 3.89303 558.284 2.76089C561.271 1.17376 564.457 0.340616 569.62 0.340616C579.874 0.340616 593.856 6.43508 602.683 20.8282C604.872 24.396 607.175 30.3703 609.402 37.3907C611.624 44.3919 613.751 52.3686 615.6 59.8985C617.448 67.4268 619.017 74.5002 620.124 79.6919C620.678 82.2876 621.116 84.4125 621.415 85.888C621.52 86.4061 621.608 86.8442 621.678 87.1944C621.557 87.183 621.426 87.1705 621.285 87.1572C620.379 87.0719 619.065 86.95 617.434 86.8038C614.173 86.5113 609.643 86.1213 604.567 85.7314C594.422 84.9519 582.073 84.1704 573.322 84.1704C564.578 84.1704 552.795 84.7562 543.209 85.3408C538.414 85.6333 534.164 85.9258 531.113 86.1451C529.588 86.2548 528.362 86.3462 527.517 86.4102C527.359 86.4222 527.214 86.4332 527.082 86.4432Z" stroke="black" stroke-width="1.51125"/>
<path d="M526.755 80.6395C526.755 80.6395 552.182 76.3529 574.491 76.3529C596.8 76.3529 621.156 80.6395 621.156 80.6395C622.13 85.2183 622.715 88.0435 622.715 88.0435C622.715 88.0435 590.858 84.926 573.419 84.926C555.981 84.926 526.365 87.2641 526.365 87.2641C526.365 87.2641 526.365 84.6337 526.755 80.6395Z" fill="black"/>
<path d="M575.465 63.5908L572.348 66.1237C571.166 67.2853 570.47 68.8523 570.399 70.5077H579.947V67.9747H573.809C574.352 67.2192 575.049 66.5882 575.855 66.1237C576.821 65.5659 577.707 64.8774 578.485 64.0779C579.305 63.2089 579.758 62.0576 579.752 60.863C579.774 60.2599 579.664 59.6592 579.428 59.1035C579.192 58.5479 578.837 58.051 578.388 57.6481C577.436 56.8478 576.221 56.431 574.978 56.479C571.958 56.479 570.399 58.1352 570.399 61.3501H573.03C573.03 59.5965 573.712 58.7197 575.076 58.7197C575.347 58.6912 575.621 58.7253 575.878 58.8195C576.134 58.9138 576.365 59.0656 576.553 59.2632C576.741 59.4609 576.882 59.6991 576.963 59.9596C577.045 60.2201 577.066 60.4958 577.024 60.7656C577.018 61.3286 576.872 61.8813 576.6 62.3742C576.328 62.8672 575.938 63.2852 575.465 63.5908Z" fill="black"/>
<path d="M558.319 65.0521H561.242C562.703 65.0521 563.482 65.6366 563.58 66.9031C563.677 68.1696 563.775 69.3386 563.872 70.6051H567.087V70.2154C566.6 70.0206 566.405 69.5335 566.405 68.7541C566.4 68.491 566.433 68.2285 566.502 67.9747V67.2928C566.578 66.615 566.452 65.93 566.14 65.3235C565.828 64.7171 565.344 64.216 564.749 63.883C565.428 63.655 566.01 63.2032 566.399 62.6015C566.789 61.9998 566.962 61.2839 566.892 60.5707C566.932 60.0176 566.837 59.4632 566.617 58.9544C566.396 58.4456 566.056 57.9975 565.626 57.6481C564.741 56.9528 563.632 56.6062 562.508 56.6739H555.396V70.6051H558.319V65.0521ZM558.319 58.9146H561.924C563.288 58.9146 563.97 59.4991 563.97 60.7656C563.97 62.032 563.19 62.6166 561.729 62.6166H558.319V58.9146Z" fill="black"/>
<path d="M181.632 86.8583C181.612 86.5815 181.588 86.2429 181.56 85.8478C181.475 84.6436 181.35 82.9154 181.196 80.8193C180.887 76.6268 180.458 70.9633 179.977 65.078C179.496 59.1921 178.964 53.0876 178.448 48.0121C177.931 42.9138 177.436 38.9123 177.035 37.1915C176.223 33.707 174.374 28.5832 171.616 23.5365C168.854 18.4834 165.218 13.5756 160.866 10.4535C159.487 9.4644 158.267 8.55549 157.15 7.72379C154.582 5.81189 152.562 4.30804 150.431 3.1759C147.443 1.58876 144.258 0.755625 139.095 0.755625C128.84 0.755625 114.859 6.85009 106.031 21.2432C103.843 24.811 101.54 30.7853 99.312 37.8057C97.0905 44.8069 94.964 52.7836 93.1149 60.3135C91.2663 67.8418 89.6971 74.9152 88.59 80.107C88.0365 82.7026 87.5987 84.8275 87.2992 86.303C87.1941 86.8211 87.106 87.2592 87.036 87.6094C87.1571 87.598 87.2883 87.5855 87.4295 87.5723C88.3356 87.4869 89.6493 87.365 91.2801 87.2188C94.5414 86.9263 99.0718 86.5363 104.148 86.1464C114.292 85.3669 126.642 84.5854 135.393 84.5854C144.137 84.5854 155.92 85.1712 165.505 85.7559C170.3 86.0483 174.55 86.3408 177.601 86.5601C179.127 86.6698 180.353 86.7612 181.198 86.8252C181.356 86.8372 181.501 86.8482 181.632 86.8583Z" stroke="black" stroke-width="1.51125"/>
<path d="M181.96 81.0545C181.96 81.0545 156.533 76.7679 134.223 76.7679C111.914 76.7679 87.5587 81.0545 87.5587 81.0545C86.5845 85.6333 85.9999 88.4585 85.9999 88.4585C85.9999 88.4585 117.857 85.341 135.295 85.341C152.734 85.341 182.35 87.6791 182.35 87.6791C182.35 87.6791 182.35 85.0487 181.96 81.0545Z" fill="black"/>
<path d="M148.795 64.0324L145.734 66.5196C144.573 67.6602 143.89 69.1989 143.821 70.8244H153.195V68.3372H147.264C147.797 67.5953 148.482 66.9757 149.273 66.5196C150.222 65.9718 151.091 65.2958 151.856 64.5107C152.661 63.6574 153.106 62.5269 153.1 61.3539C153.122 60.7617 153.013 60.1718 152.782 59.6262C152.55 59.0806 152.202 58.5927 151.76 58.1971C150.826 57.4112 149.632 57.002 148.412 57.0491C145.447 57.0491 143.916 58.6754 143.916 61.8322H146.499C146.499 60.1103 147.169 59.2493 148.508 59.2493C148.774 59.2213 149.044 59.2548 149.295 59.3473C149.547 59.4399 149.774 59.5889 149.959 59.783C150.144 59.9771 150.282 60.2111 150.362 60.4668C150.442 60.7226 150.462 60.9934 150.421 61.2582C150.394 61.8175 150.232 62.3619 149.949 62.8449C149.665 63.328 149.27 63.7354 148.795 64.0324Z" fill="#020202"/>
<path d="M140.664 68.2415H133.872V57.1448H131.002V70.8244H140.664V68.2415Z" fill="#020202"/>
</g>
<defs>
<linearGradient id="paint0_linear_1_2" x1="355.427" y1="0.683655" x2="355.427" y2="552.5" gradientUnits="userSpaceOnUse">
<stop stop-color="#FF9C06"/>
<stop offset="1" stop-color="#FFC806"/>
</linearGradient>
<linearGradient id="paint1_linear_1_2" x1="355.427" y1="0.683655" x2="355.427" y2="552.5" gradientUnits="userSpaceOnUse">
<stop stop-color="#FF9C06"/>
<stop offset="1" stop-color="#FFC806"/>
</linearGradient>
<linearGradient id="paint2_linear_1_2" x1="355.427" y1="0.683655" x2="355.427" y2="552.5" gradientUnits="userSpaceOnUse">
<stop stop-color="#FF9C06"/>
<stop offset="1" stop-color="#FFC806"/>
</linearGradient>
<clipPath id="clip0_1_2">
<rect width="712" height="560" fill="white"/>
</clipPath>
<clipPath id="clip1_1_2">
<rect width="49.8713" height="49.8713" fill="white" transform="translate(555 255)"/>
</clipPath>
<clipPath id="clip2_1_2">
<rect width="49.8713" height="49.8713" fill="white" transform="translate(606 204)"/>
</clipPath>
<clipPath id="clip3_1_2">
<rect width="49.8713" height="49.8713" fill="white" transform="translate(555 153)"/>
</clipPath>
<clipPath id="clip4_1_2">
<rect width="49.8713" height="49.8713" fill="white" transform="translate(504 204)"/>
</clipPath>
</defs>
</svg>
