<svg width="197" height="84" viewBox="0 0 197 84" fill="none" xmlns="http://www.w3.org/2000/svg">
<path d="M193.275 80C157.677 69.3782 138.52 66.2575 105.775 65.5V50.5C137.343 45.3536 156.53 49.2023 193.275 67.5V80Z" fill="#EAEAEA"/>
<path fill-rule="evenodd" clip-rule="evenodd" d="M190.479 70.16V75.6666C159.692 66.2093 124.672 63.3209 107.297 63.0042V52.4601C124.34 48.4748 141.6 50.447 156.504 54.7257C171.153 58.9314 183.327 65.3101 190.479 70.16ZM158.242 48.6732C141.943 43.9946 122.566 41.8322 103.337 46.9604C101.959 47.3281 101 48.5762 101 50.0024V66.1224C101 67.861 102.409 69.2709 104.148 69.2709C120.415 69.2709 159.81 72.0887 192.637 82.9641C193.597 83.2821 194.651 83.1202 195.471 82.5283C196.29 81.9364 196.775 80.9868 196.775 79.9756V68.5152C196.775 67.4989 196.284 66.5443 195.457 65.9537C187.97 60.6057 174.532 53.3505 158.242 48.6732Z" fill="black"/>
<path d="M3.5 80C39.0984 69.3782 58.2554 66.2575 91 65.5V50.5C59.4319 45.3536 40.2458 49.2023 3.5 67.5V80Z" fill="#EAEAEA"/>
<path fill-rule="evenodd" clip-rule="evenodd" d="M6.29687 70.16V75.6666C37.0829 66.2093 72.1036 63.3209 89.4786 63.0042V52.4601C72.4355 48.4748 55.1751 50.447 40.2717 54.7257C25.6226 58.9314 13.4482 65.3101 6.29687 70.16ZM38.5337 48.6732C54.8319 43.9946 74.2093 41.8322 93.4387 46.9604C94.8165 47.3281 95.7755 48.5762 95.7755 50.0024V66.1224C95.7755 67.861 94.3662 69.2709 92.627 69.2709C76.3603 69.2709 36.9658 72.0887 4.13831 82.9641C3.17866 83.2821 2.12456 83.1202 1.30471 82.5283C0.485483 81.9364 0 80.9868 0 79.9756V68.5152C0 67.4989 0.491157 66.5443 1.31857 65.9537C8.80555 60.6057 22.2431 53.3505 38.5337 48.6732Z" fill="black"/>
<path fill-rule="evenodd" clip-rule="evenodd" d="M190.481 26.16V31.6666C159.695 22.2093 124.672 19.3209 107.297 19.0042V8.4601C124.34 4.47481 141.6 6.44699 156.503 10.7257C171.155 14.9314 183.327 21.3101 190.481 26.16ZM158.24 4.67316C141.944 -0.00541966 122.567 -2.16776 103.337 2.96041C101.959 3.32815 101 4.57618 101 6.00243V22.1224C101 23.861 102.409 25.2709 104.148 25.2709C120.415 25.2709 159.808 28.0887 192.634 38.9641C193.597 39.2821 194.649 39.1202 195.468 38.5283C196.293 37.9364 196.777 36.9868 196.777 35.9756V24.5152C196.777 23.4989 196.286 22.5443 195.455 21.9537C187.968 16.6057 174.531 9.35048 158.24 4.67316Z" fill="black"/>
<path fill-rule="evenodd" clip-rule="evenodd" d="M6.29687 26.16V31.6666C37.0829 22.2093 72.1036 19.3209 89.4786 19.0042V8.4601C72.4355 4.47481 55.1751 6.44699 40.2717 10.7257C25.6226 14.9314 13.4482 21.3101 6.29687 26.16ZM38.5337 4.67316C54.8319 -0.00541966 74.2093 -2.16776 93.4387 2.96041C94.8165 3.32815 95.7755 4.57618 95.7755 6.00243V22.1224C95.7755 23.861 94.3662 25.2709 92.627 25.2709C76.3603 25.2709 36.9658 28.0887 4.13831 38.9641C3.17866 39.2821 2.12456 39.1202 1.30471 38.5283C0.485483 37.9364 0 36.9868 0 35.9756V24.5152C0 23.4989 0.491157 22.5443 1.31857 21.9537C8.80555 16.6057 22.2431 9.35048 38.5337 4.67316Z" fill="black"/>
</svg>
