<svg width="214" height="115" viewBox="0 0 214 115" fill="none" xmlns="http://www.w3.org/2000/svg">
<path fill-rule="evenodd" clip-rule="evenodd" d="M162.998 89.9566C159.001 86.2317 159.001 79.9246 162.998 76.1997L176.491 63.6282C178.25 61.9902 180.57 61.0781 182.98 61.0781L204.513 61.0781C209.752 61.0781 214 65.2996 214 70.5067V95.6496C214 100.857 209.752 105.078 204.513 105.078H182.98C180.57 105.078 178.25 104.166 176.491 102.528L162.998 89.9566Z" fill="#DADADA"/>
<path fill-rule="evenodd" clip-rule="evenodd" d="M167.397 94.0552L162.998 89.9566C159.001 86.2317 159.001 79.9246 162.998 76.1997L168.424 71.1441C170.659 73.8745 172.053 77.7466 172.053 82.041C172.053 86.9603 170.223 91.3256 167.397 94.0552Z" fill="#ADADAD"/>
<path fill-rule="evenodd" clip-rule="evenodd" d="M150.764 76.1215C154.761 79.8465 154.761 86.1535 150.764 89.8785L137.271 102.45C135.512 104.088 133.192 105 130.782 105H109.249C104.01 105 99.7619 100.779 99.7619 95.5714V70.4286C99.7619 65.2215 104.01 61 109.249 61H130.782C133.192 61 135.512 61.9121 137.271 63.5501L150.764 76.1215Z" fill="#DADADA"/>
<path fill-rule="evenodd" clip-rule="evenodd" d="M146.447 72.0994L150.764 76.1215C154.761 79.8464 154.761 86.1535 150.764 89.8784L145.51 94.7736C143.315 92.048 141.948 88.2105 141.948 83.9592C141.948 79.1316 143.71 74.8376 146.447 72.0994Z" fill="#ADADAD"/>
<path fill-rule="evenodd" clip-rule="evenodd" d="M78.9566 111.764C75.2317 115.761 68.9246 115.761 65.1997 111.764L52.6282 98.2709C50.9902 96.512 50.0781 94.1921 50.0781 91.7817L50.0781 70.2491C50.0781 65.0097 54.2996 60.762 59.5067 60.762L84.6496 60.762C89.8566 60.762 94.0781 65.0097 94.0781 70.2491V91.7817C94.0781 94.1921 93.1661 96.512 91.528 98.2709L78.9566 111.764Z" fill="#DADADA"/>
<path fill-rule="evenodd" clip-rule="evenodd" d="M83.4103 106.984L78.9566 111.764C75.2317 115.761 68.9246 115.761 65.1997 111.764L60.7105 106.945C63.4561 104.497 67.5131 102.948 72.0391 102.948C76.5886 102.948 80.6641 104.513 83.4103 106.984Z" fill="#ADADAD"/>
<path fill-rule="evenodd" clip-rule="evenodd" d="M15.1215 63.9984C18.8465 60.0005 25.1535 60.0005 28.8785 63.9984L41.4499 77.491C43.0879 79.2499 44 81.5699 44 83.9802V105.513C44 110.752 39.7785 115 34.5714 115H9.42857C4.22149 115 0 110.752 0 105.513V83.9802C0 81.5699 0.912061 79.2499 2.55012 77.491L15.1215 63.9984Z" fill="#DADADA"/>
<path fill-rule="evenodd" clip-rule="evenodd" d="M10.5114 68.9464L15.1215 63.9984C18.8465 60.0005 25.1535 60.0005 28.8785 63.9984L33.4526 68.9078C30.706 71.4415 26.5774 73.0531 21.961 73.0531C17.368 73.0531 13.2581 71.4579 10.5114 68.9464Z" fill="#ADADAD"/>
<path fill-rule="evenodd" clip-rule="evenodd" d="M162.998 28.9566C159.001 25.2317 159.001 18.9246 162.998 15.1997L176.491 2.62824C178.25 0.990185 180.57 0.0781242 182.98 0.0781242L204.513 0.0781242C209.752 0.0781242 214 4.29961 214 9.5067V34.6496C214 39.8566 209.752 44.0781 204.513 44.0781L182.98 44.0781C180.57 44.0781 178.25 43.1661 176.491 41.528L162.998 28.9566Z" fill="#1A1A1A"/>
<path fill-rule="evenodd" clip-rule="evenodd" d="M167.397 33.0552L162.998 28.9566C159.001 25.2317 159.001 18.9246 162.998 15.1997L168.424 10.1441C170.659 12.8745 172.053 16.7466 172.053 21.041C172.053 25.9603 170.223 30.3256 167.397 33.0552Z" fill="#131313"/>
<path fill-rule="evenodd" clip-rule="evenodd" d="M150.764 15.1215C154.761 18.8465 154.761 25.1535 150.764 28.8785L137.271 41.4499C135.512 43.0879 133.192 44 130.782 44H109.249C104.01 44 99.7619 39.7785 99.7619 34.5714V9.42857C99.7619 4.22149 104.01 0 109.249 0L130.782 0C133.192 0 135.512 0.912061 137.271 2.55012L150.764 15.1215Z" fill="#1A1A1A"/>
<path fill-rule="evenodd" clip-rule="evenodd" d="M146.447 11.0994L150.764 15.1215C154.761 18.8464 154.761 25.1535 150.764 28.8784L145.51 33.7736C143.315 31.048 141.948 27.2105 141.948 22.9592C141.948 18.1316 143.71 13.8376 146.447 11.0994Z" fill="#131313"/>
<path fill-rule="evenodd" clip-rule="evenodd" d="M78.9566 50.7636C75.2317 54.7614 68.9246 54.7614 65.1997 50.7636L52.6282 37.2709C50.9902 35.512 50.0781 33.1921 50.0781 30.7817L50.0781 9.24911C50.0781 4.00968 54.2996 -0.238035 59.5067 -0.238035L84.6496 -0.238035C89.8566 -0.238035 94.0781 4.00968 94.0781 9.24911V30.7817C94.0781 33.1921 93.1661 35.512 91.528 37.2709L78.9566 50.7636Z" fill="#1A1A1A"/>
<path fill-rule="evenodd" clip-rule="evenodd" d="M83.4103 45.9835L78.9566 50.7636C75.2317 54.7614 68.9246 54.7614 65.1997 50.7636L60.7105 45.9454C63.4561 43.497 67.5131 41.9479 72.0391 41.9479C76.5886 41.9479 80.6641 43.5131 83.4103 45.9835Z" fill="#131313"/>
<path fill-rule="evenodd" clip-rule="evenodd" d="M15.1215 2.99841C18.8465 -0.99947 25.1535 -0.99947 28.8785 2.99841L41.4499 16.491C43.0879 18.2499 44 20.5699 44 22.9802V44.5129C44 49.7523 39.7785 54 34.5714 54H9.42857C4.22149 54 0 49.7523 0 44.5129V22.9802C0 20.5699 0.912061 18.2499 2.55012 16.491L15.1215 2.99841Z" fill="#1A1A1A"/>
<path fill-rule="evenodd" clip-rule="evenodd" d="M10.5114 7.94638L15.1215 2.99841C18.8465 -0.99947 25.1535 -0.99947 28.8785 2.99841L33.4526 7.90777C30.706 10.4415 26.5774 12.0531 21.961 12.0531C17.368 12.0531 13.2581 10.4579 10.5114 7.94638Z" fill="#131313"/>
</svg>
