<svg width="214" height="115" viewBox="0 0 214 115" fill="none" xmlns="http://www.w3.org/2000/svg">
<path fill-rule="evenodd" clip-rule="evenodd" d="M78.9297 111.777C75.1982 115.757 68.8799 115.757 65.1484 111.777L52.5546 98.343C50.9137 96.5925 50 94.2828 50 91.883V70.4453C50 65.229 54.229 61 59.4453 61H84.6328C89.8491 61 94.0781 65.229 94.0781 70.4453V91.883C94.0781 94.2828 93.1644 96.5925 91.5235 98.343L78.9297 111.777Z" fill="black"/>
<path fill-rule="evenodd" clip-rule="evenodd" d="M15.1484 63.9852C18.8799 60.0049 25.1982 60.0049 28.9297 63.9852L41.5235 77.4183C43.1644 79.1695 44.0781 81.4792 44.0781 83.8789V105.317C44.0781 110.533 39.8491 114.762 34.6328 114.762H9.44531C4.22898 114.762 0 110.533 0 105.317V83.8789C0 81.4792 0.913681 79.1695 2.55465 77.4183L15.1484 63.9852Z" fill="black"/>
<path fill-rule="evenodd" clip-rule="evenodd" d="M150.777 76.1484C154.757 79.8799 154.757 86.1982 150.777 89.9297L137.344 102.523C135.592 104.164 133.283 105.078 130.883 105.078H109.445C104.229 105.078 100 100.849 100 95.6328V70.4453C100 65.229 104.229 61 109.445 61H130.883C133.283 61 135.592 61.9137 137.344 63.5546L150.777 76.1484Z" fill="black"/>
<path fill-rule="evenodd" clip-rule="evenodd" d="M162.985 89.9297C159.005 86.1982 159.005 79.8799 162.985 76.1484L176.418 63.5546C178.169 61.9137 180.479 61 182.879 61H204.317C209.533 61 213.762 65.229 213.762 70.4453V95.6328C213.762 100.849 209.533 105.078 204.317 105.078H182.879C180.479 105.078 178.169 104.164 176.418 102.523L162.985 89.9297Z" fill="black"/>
<path fill-rule="evenodd" clip-rule="evenodd" d="M167.292 18.742C165.966 19.9862 165.966 22.0919 167.292 23.3362L180.725 35.9299C181.309 36.4765 182.079 36.7812 182.879 36.7812H204.317C206.056 36.7812 207.465 35.3714 207.465 33.6328V8.44531C207.465 6.70675 206.056 5.29688 204.317 5.29688H182.879C182.079 5.29688 181.309 5.60102 180.725 6.14822L167.292 18.742ZM162.985 27.9297C159.005 24.1982 159.005 17.8799 162.985 14.1484L176.418 1.55465C178.169 -0.0869487 180.479 -1 182.879 -1H204.317C209.533 -1 213.762 3.22898 213.762 8.44531V33.6328C213.762 38.8491 209.533 43.0781 204.317 43.0781H182.879C180.479 43.0781 178.169 42.1644 176.418 40.5235L162.985 27.9297Z" fill="black"/>
<path fill-rule="evenodd" clip-rule="evenodd" d="M146.47 23.3362C147.796 22.0919 147.796 19.9862 146.47 18.742L133.037 6.14822C132.453 5.60102 131.683 5.29688 130.883 5.29688H109.445C107.706 5.29688 106.297 6.70675 106.297 8.44531V33.6328C106.297 35.3714 107.706 36.7812 109.445 36.7812H130.883C131.683 36.7812 132.453 36.4765 133.037 35.9299L146.47 23.3362ZM150.777 14.1484C154.757 17.8799 154.757 24.1982 150.777 27.9297L137.344 40.5235C135.592 42.1644 133.283 43.0781 130.883 43.0781H109.445C104.229 43.0781 100 38.8491 100 33.6328V8.44531C100 3.22898 104.229 -1 109.445 -1H130.883C133.283 -1 135.592 -0.0869487 137.344 1.55465L150.777 14.1484Z" fill="black"/>
<path fill-rule="evenodd" clip-rule="evenodd" d="M69.742 46.4697C70.9862 47.7964 73.0919 47.7964 74.3362 46.4697L86.9299 33.0366C87.4765 32.4528 87.7812 31.6833 87.7812 30.883V9.44531C87.7812 7.70611 86.3714 6.29687 84.6328 6.29687H59.4453C57.7067 6.29687 56.2969 7.70611 56.2969 9.44531V30.883C56.2969 31.6833 56.6016 32.4528 57.1482 33.0366L69.742 46.4697ZM78.9297 50.7767C75.1982 54.757 68.8799 54.757 65.1484 50.7767L52.5546 37.343C50.9137 35.5925 50 33.2828 50 30.883V9.44531C50 4.22898 54.229 0 59.4453 0H84.6328C89.8491 0 94.0781 4.22898 94.0781 9.44531V30.883C94.0781 33.2828 93.1644 35.5925 91.5235 37.343L78.9297 50.7767Z" fill="black"/>
<path fill-rule="evenodd" clip-rule="evenodd" d="M24.3362 7.29226C23.0919 5.96488 20.9862 5.96488 19.742 7.29226L7.14822 20.7254C6.60165 21.3091 6.29688 22.0786 6.29688 22.8789V44.3166C6.29688 46.0558 7.70675 47.4651 9.44531 47.4651H34.6328C36.3714 47.4651 37.7812 46.0558 37.7812 44.3166V22.8789C37.7812 22.0786 37.4765 21.3091 36.9299 20.7254L24.3362 7.29226ZM15.1484 2.98519C18.8799 -0.995063 25.1982 -0.995063 28.9297 2.98519L41.5235 16.4183C43.1644 18.1695 44.0781 20.4792 44.0781 22.8789V44.3166C44.0781 49.5329 39.8491 53.7619 34.6328 53.7619H9.44531C4.22898 53.7619 0 49.5329 0 44.3166V22.8789C0 20.4792 0.913681 18.1695 2.55465 16.4183L15.1484 2.98519Z" fill="black"/>
</svg>
