<svg width="214" height="115" viewBox="0 0 214 115" fill="none" xmlns="http://www.w3.org/2000/svg">
<path fill-rule="evenodd" clip-rule="evenodd" d="M162.985 89.9297C159.005 86.1982 159.005 79.8799 162.985 76.1484L176.418 63.5546C178.169 61.9137 180.479 61 182.879 61L204.317 61C209.533 61 213.762 65.229 213.762 70.4453V95.6328C213.762 100.849 209.533 105.078 204.317 105.078H182.879C180.479 105.078 178.169 104.164 176.418 102.523L162.985 89.9297Z" fill="#DADADA"/>
<path fill-rule="evenodd" clip-rule="evenodd" d="M167.365 94.0356L162.985 89.9298C159.005 86.1982 159.005 79.8799 162.985 76.1484L168.387 71.0839C170.612 73.8191 172 77.6981 172 82C172 86.9281 170.178 91.3012 167.365 94.0356Z" fill="#ADADAD"/>
<path fill-rule="evenodd" clip-rule="evenodd" d="M150.777 76.1484C154.757 79.8799 154.757 86.1982 150.777 89.9297L137.344 102.523C135.592 104.164 133.283 105.078 130.883 105.078H109.445C104.229 105.078 100 100.849 100 95.6328V70.4453C100 65.229 104.229 61 109.445 61H130.883C133.283 61 135.592 61.9137 137.344 63.5546L150.777 76.1484Z" fill="#DADADA"/>
<path fill-rule="evenodd" clip-rule="evenodd" d="M146.479 72.1191L150.777 76.1484C154.757 79.8799 154.757 86.1982 150.777 89.9297L145.546 94.8336C143.361 92.1031 142 88.2588 142 84C142 79.1638 143.755 74.8622 146.479 72.1191Z" fill="#ADADAD"/>
<path fill-rule="evenodd" clip-rule="evenodd" d="M78.9297 111.777C75.1982 115.757 68.8799 115.757 65.1484 111.777L52.5546 98.3436C50.9137 96.5925 50 94.2828 50 91.883L50 70.4453C50 65.229 54.229 61 59.4453 61L84.6328 61C89.8491 61 94.0781 65.229 94.0781 70.4453V91.883C94.0781 94.2828 93.1644 96.5925 91.5235 98.3436L78.9297 111.777Z" fill="#DADADA"/>
<path fill-rule="evenodd" clip-rule="evenodd" d="M83.3913 107.018L78.9297 111.777C75.1982 115.757 68.8799 115.757 65.1484 111.777L60.6512 106.98C63.4017 104.542 67.4659 103 72 103C76.5575 103 80.6403 104.558 83.3913 107.018Z" fill="#ADADAD"/>
<path fill-rule="evenodd" clip-rule="evenodd" d="M15.1484 63.9852C18.8799 60.0049 25.1982 60.0049 28.9297 63.9852L41.5235 77.4183C43.1644 79.1695 44.0781 81.4792 44.0781 83.8789V105.317C44.0781 110.533 39.8491 114.762 34.6328 114.762H9.44531C4.22898 114.762 0 110.533 0 105.317V83.8789C0 81.4792 0.913681 79.1695 2.55465 77.4183L15.1484 63.9852Z" fill="#DADADA"/>
<path fill-rule="evenodd" clip-rule="evenodd" d="M10.5301 68.9113L15.1484 63.9852C18.8799 60.0049 25.1982 60.0049 28.9297 63.9852L33.512 68.8729C30.7605 71.3955 26.6246 73 22 73C17.3989 73 13.2816 71.4118 10.5301 68.9113Z" fill="#ADADAD"/>
<path fill-rule="evenodd" clip-rule="evenodd" d="M162.985 28.9297C159.005 25.1982 159.005 18.8799 162.985 15.1484L176.418 2.55465C178.169 0.91368 180.479 0 182.879 0L204.317 0C209.533 0 213.762 4.22898 213.762 9.44531V34.6328C213.762 39.8491 209.533 44.0781 204.317 44.0781L182.879 44.0781C180.479 44.0781 178.169 43.1644 176.418 41.5235L162.985 28.9297Z" fill="#1A1A1A"/>
<path fill-rule="evenodd" clip-rule="evenodd" d="M167.365 33.0356L162.985 28.9298C159.005 25.1982 159.005 18.8799 162.985 15.1484L168.387 10.0839C170.612 12.8191 172 16.6981 172 21C172 25.9281 170.178 30.3012 167.365 33.0356Z" fill="#131313"/>
<path fill-rule="evenodd" clip-rule="evenodd" d="M150.777 15.1484C154.757 18.8799 154.757 25.1982 150.777 28.9297L137.344 41.5235C135.592 43.1644 133.283 44.0781 130.883 44.0781H109.445C104.229 44.0781 100 39.8491 100 34.6328V9.44531C100 4.22898 104.229 0 109.445 0L130.883 0C133.283 0 135.592 0.913681 137.344 2.55465L150.777 15.1484Z" fill="#1A1A1A"/>
<path fill-rule="evenodd" clip-rule="evenodd" d="M146.479 11.1191L150.777 15.1484C154.757 18.8799 154.757 25.1982 150.777 28.9297L145.546 33.8336C143.361 31.1031 142 27.2588 142 23C142 18.1638 143.755 13.8622 146.479 11.1191Z" fill="#131313"/>
<path fill-rule="evenodd" clip-rule="evenodd" d="M78.9297 50.7768C75.1982 54.757 68.8799 54.757 65.1484 50.7768L52.5546 37.3436C50.9137 35.5925 50 33.2828 50 30.883L50 9.44535C50 4.22902 54.229 3.05176e-05 59.4453 3.05176e-05L84.6328 3.05176e-05C89.8491 3.05176e-05 94.0781 4.22902 94.0781 9.44535V30.883C94.0781 33.2828 93.1644 35.5925 91.5235 37.3436L78.9297 50.7768Z" fill="#1A1A1A"/>
<path fill-rule="evenodd" clip-rule="evenodd" d="M83.3913 46.0178L78.9297 50.7768C75.1982 54.757 68.8799 54.757 65.1484 50.7768L60.6512 45.9799C63.4017 43.5423 67.4659 42 72 42C76.5575 42 80.6403 43.5583 83.3913 46.0178Z" fill="#131313"/>
<path fill-rule="evenodd" clip-rule="evenodd" d="M15.1484 2.98519C18.8799 -0.995064 25.1982 -0.995064 28.9297 2.98519L41.5235 16.4183C43.1644 18.1695 44.0781 20.4792 44.0781 22.8789V44.3166C44.0781 49.5329 39.8491 53.7619 34.6328 53.7619H9.44531C4.22898 53.7619 0 49.5329 0 44.3166V22.8789C0 20.4792 0.913681 18.1695 2.55465 16.4183L15.1484 2.98519Z" fill="#1A1A1A"/>
<path fill-rule="evenodd" clip-rule="evenodd" d="M10.5301 7.91135L15.1484 2.98519C18.8799 -0.995063 25.1982 -0.995063 28.9297 2.98519L33.512 7.87291C30.7605 10.3955 26.6246 12 22 12C17.3989 12 13.2816 10.4118 10.5301 7.91135Z" fill="#131313"/>
</svg>
