<svg width="195" height="95" viewBox="0 0 195 95" fill="none" xmlns="http://www.w3.org/2000/svg">
<g clip-path="url(#clip0_12_83)">
<path fill-rule="evenodd" clip-rule="evenodd" d="M99.8741 71.9333C99.8741 59.7614 109.741 49.8942 121.913 49.8942C134.085 49.8942 143.952 59.7614 143.952 71.9333C143.952 84.1051 134.085 93.9724 121.913 93.9724C109.741 93.9724 99.8741 84.1051 99.8741 71.9333Z" fill="black"/>
<rect x="114.357" y="64.3569" width="14.6088" height="14.6088" stroke="#F12AA2" stroke-width="2.51875"/>
</g>
<g clip-path="url(#clip1_12_83)">
<path fill-rule="evenodd" clip-rule="evenodd" d="M149.874 71.9333C149.874 59.7614 159.741 49.8942 171.913 49.8942C184.085 49.8942 193.952 59.7614 193.952 71.9333C193.952 84.1051 184.085 93.9724 171.913 93.9724C159.741 93.9724 149.874 84.1051 149.874 71.9333Z" fill="black"/>
<path d="M164.245 76.9506L171.661 64.105L179.078 76.9506H164.245Z" stroke="#70FF00" stroke-width="3.0225"/>
</g>
<g clip-path="url(#clip2_12_83)">
<path fill-rule="evenodd" clip-rule="evenodd" d="M49.8741 71.9333C49.8741 59.7614 59.7413 49.8942 71.9131 49.8942C84.085 49.8942 93.9522 59.7614 93.9522 71.9333C93.9522 84.1051 84.085 93.9724 71.9131 93.9724C59.7413 93.9724 49.8741 84.1051 49.8741 71.9333Z" fill="black"/>
<circle cx="72.165" cy="72.165" r="10.075" stroke="#FF3333" stroke-width="3.0225"/>
</g>
<g clip-path="url(#clip3_12_83)">
<path fill-rule="evenodd" clip-rule="evenodd" d="M-0.125916 71.9333C-0.125916 59.7614 9.74129 49.8942 21.9131 49.8942C34.085 49.8942 43.9522 59.7614 43.9522 71.9333C43.9522 84.1051 34.085 93.9724 21.9131 93.9724C9.74129 93.9724 -0.125916 84.1051 -0.125916 71.9333Z" fill="black"/>
<rect x="15.1125" y="61.0825" width="25.1875" height="5.0375" transform="rotate(45 15.1125 61.0825)" fill="#1BE4D8"/>
<rect x="11.0825" y="79.2175" width="25.1875" height="5.0375" transform="rotate(-45 11.0825 79.2175)" fill="#1BE4D8"/>
</g>
<g clip-path="url(#clip4_12_83)">
<rect x="114.357" y="14.3569" width="14.6088" height="14.6088" stroke="#F12AA2" stroke-width="2.51875"/>
<path fill-rule="evenodd" clip-rule="evenodd" d="M121.913 6.1911C113.219 6.1911 106.171 13.2392 106.171 21.9333C106.171 30.6274 113.219 37.6755 121.913 37.6755C130.607 37.6755 137.655 30.6274 137.655 21.9333C137.655 13.2392 130.607 6.1911 121.913 6.1911ZM99.8741 21.9333C99.8741 9.76143 109.741 -0.105774 121.913 -0.105774C134.085 -0.105774 143.952 9.76143 143.952 21.9333C143.952 34.1051 134.085 43.9724 121.913 43.9724C109.741 43.9724 99.8741 34.1051 99.8741 21.9333Z" fill="black"/>
</g>
<g clip-path="url(#clip5_12_83)">
<path d="M164.245 26.9506L171.661 14.105L179.078 26.9506H164.245Z" stroke="#70FF00" stroke-width="3.0225"/>
<path fill-rule="evenodd" clip-rule="evenodd" d="M171.913 6.1911C163.219 6.1911 156.171 13.2392 156.171 21.9333C156.171 30.6274 163.219 37.6755 171.913 37.6755C180.609 37.6755 187.655 30.6274 187.655 21.9333C187.655 13.2392 180.609 6.1911 171.913 6.1911ZM149.874 21.9333C149.874 9.76143 159.741 -0.105774 171.913 -0.105774C184.085 -0.105774 193.952 9.76143 193.952 21.9333C193.952 34.1051 184.085 43.9724 171.913 43.9724C159.741 43.9724 149.874 34.1051 149.874 21.9333Z" fill="black"/>
</g>
<g clip-path="url(#clip6_12_83)">
<circle cx="72.165" cy="22.165" r="10.075" stroke="#FF3333" stroke-width="3.0225"/>
<path fill-rule="evenodd" clip-rule="evenodd" d="M71.9131 6.1911C63.2172 6.1911 56.171 13.2392 56.171 21.9333C56.171 30.6274 63.2172 37.6755 71.9131 37.6755C80.6091 37.6755 87.6553 30.6274 87.6553 21.9333C87.6553 13.2392 80.6091 6.1911 71.9131 6.1911ZM49.8741 21.9333C49.8741 9.76143 59.7413 -0.105774 71.9131 -0.105774C84.085 -0.105774 93.9522 9.76143 93.9522 21.9333C93.9522 34.1051 84.085 43.9724 71.9131 43.9724C59.7413 43.9724 49.8741 34.1051 49.8741 21.9333Z" fill="black"/>
</g>
<g clip-path="url(#clip7_12_83)">
<rect x="15.1125" y="11.0825" width="25.1875" height="5.0375" transform="rotate(45 15.1125 11.0825)" fill="#1BE4D8"/>
<rect x="11.0825" y="29.2175" width="25.1875" height="5.0375" transform="rotate(-45 11.0825 29.2175)" fill="#1BE4D8"/>
<path fill-rule="evenodd" clip-rule="evenodd" d="M21.9131 6.1911C13.2191 6.1911 6.17096 13.2392 6.17096 21.9333C6.17096 30.6274 13.2191 37.6755 21.9131 37.6755C30.6091 37.6755 37.6553 30.6274 37.6553 21.9333C37.6553 13.2392 30.6091 6.1911 21.9131 6.1911ZM-0.125916 21.9333C-0.125916 9.76143 9.74129 -0.105774 21.9131 -0.105774C34.085 -0.105774 43.9522 9.76143 43.9522 21.9333C43.9522 34.1051 34.085 43.9724 21.9131 43.9724C9.74129 43.9724 -0.125916 34.1051 -0.125916 21.9333Z" fill="black"/>
</g>
<defs>
<clipPath id="clip0_12_83">
<rect width="44.33" height="44.33" fill="white" transform="translate(100 50)"/>
</clipPath>
<clipPath id="clip1_12_83">
<rect width="44.33" height="44.33" fill="white" transform="translate(150 50)"/>
</clipPath>
<clipPath id="clip2_12_83">
<rect width="44.33" height="44.33" fill="white" transform="translate(50 50)"/>
</clipPath>
<clipPath id="clip3_12_83">
<rect width="44.33" height="44.33" fill="white" transform="translate(0 50)"/>
</clipPath>
<clipPath id="clip4_12_83">
<rect width="44.33" height="44.33" fill="white" transform="translate(100)"/>
</clipPath>
<clipPath id="clip5_12_83">
<rect width="44.33" height="44.33" fill="white" transform="translate(150)"/>
</clipPath>
<clipPath id="clip6_12_83">
<rect width="44.33" height="44.33" fill="white" transform="translate(50)"/>
</clipPath>
<clipPath id="clip7_12_83">
<rect width="44.33" height="44.33" fill="white"/>
</clipPath>
</defs>
</svg>
