<svg width="43" height="81" viewBox="0 0 43 81" fill="none" xmlns="http://www.w3.org/2000/svg">
<path d="M37.7581 44.6448L37.7584 44.6449C40.3284 45.2871 41.8914 47.8918 41.2491 50.4622L34.9523 75.6493C34.9523 75.6494 34.9522 75.6495 34.9522 75.6495C34.3093 78.2192 31.705 79.782 29.1349 79.1397C26.5646 78.4967 25.0021 75.8925 25.6448 73.3226L25.6448 73.3225L31.9417 48.135L31.9417 48.1349C32.584 45.5647 35.1882 44.0021 37.7581 44.6448Z" fill="#EAEAEA" stroke="black" stroke-width="3"/>
<path d="M5.13553 44.6448L5.13527 44.6449C2.56531 45.2871 1.00232 47.8918 1.64458 50.462L5.13553 44.6448ZM5.13553 44.6448C7.7055 44.0021 10.3096 45.5647 10.9519 48.1349L10.952 48.135L17.2489 73.3225L17.2489 73.3226C17.8916 75.8925 16.3291 78.4967 13.7588 79.1397C11.1887 79.782 8.58434 78.2192 7.94145 75.6495C7.94144 75.6495 7.94142 75.6494 7.9414 75.6493L1.64461 50.4622L5.13553 44.6448Z" fill="#EAEAEA" stroke="black" stroke-width="3"/>
<path d="M37.7581 1.64479L37.7584 1.64485C40.3284 2.28712 41.8914 4.89185 41.2491 7.46215L34.9523 32.6493C34.9523 32.6494 34.9522 32.6495 34.9522 32.6495C34.3093 35.2192 31.705 36.782 29.1349 36.1397C26.5646 35.4967 25.0021 32.8925 25.6448 30.3226L25.6448 30.3225L31.9417 5.13502L31.9417 5.13489C32.584 2.56472 35.1882 1.00206 37.7581 1.64479Z" stroke="black" stroke-width="3"/>
<path d="M5.13553 1.64479L5.13527 1.64485C2.56531 2.28711 1.00232 4.89176 1.64458 7.46202L5.13553 1.64479ZM5.13553 1.64479C7.7055 1.00206 10.3096 2.56472 10.9519 5.13489L10.952 5.13502L17.2489 30.3225L17.2489 30.3226C17.8916 32.8925 16.3291 35.4967 13.7588 36.1397C11.1887 36.782 8.58434 35.2192 7.94145 32.6495C7.94144 32.6495 7.94142 32.6494 7.9414 32.6493L1.64461 7.46215L5.13553 1.64479Z" stroke="black" stroke-width="3"/>
</svg>
