<svg width="284" height="164" viewBox="0 0 284 164" fill="none" xmlns="http://www.w3.org/2000/svg">
<path fill-rule="evenodd" clip-rule="evenodd" d="M34.0554 9.33638C61.943 3.08421 117.296 0 147.938 0C179.925 0 222.365 1.86199 255.702 9.33638C269.882 12.5163 277.472 17.7931 280.962 24.5377C284.363 31.1085 283.375 38.2781 282.605 43.7173C279.542 65.3464 275.258 91.2845 270.371 120.869L270.356 120.957C267.804 136.409 261.356 147.177 252.866 154.064C244.408 160.925 234.185 163.719 224.42 163.719H59.2184C46.4521 163.719 36.5503 160.493 29.38 154.96C22.199 149.42 18.0179 141.765 16.3599 133.402C13.1662 117.292 8.53985 91.5925 3.34492 62.7364C2.59182 58.5534 1.82676 54.3036 1.05287 50.0079C-1.56285 35.4955 0.734243 26.093 7.50905 19.8836C10.762 16.9033 14.8355 14.8694 19.2943 13.2889C23.7468 11.7109 28.7856 10.5183 34.0554 9.33638Z" fill="#D9D9D9"/>
</svg>
