<svg width="284" height="164" viewBox="0 0 284 164" fill="none" xmlns="http://www.w3.org/2000/svg">
<path fill-rule="evenodd" clip-rule="evenodd" d="M35.4332 15.4809C62.6143 9.38675 117.395 6.29688 147.938 6.29688C179.814 6.29688 221.688 8.16327 254.324 15.4809C267.677 18.475 273.112 23.0673 275.37 27.4311C277.717 31.9686 277.175 37.1459 276.37 42.8345C273.321 64.3697 269.051 90.2194 264.163 119.817L264.148 119.903L264.144 119.93C261.801 134.11 256.012 143.405 248.9 149.174C241.757 154.968 233.012 157.422 224.42 157.422H59.2184C47.5118 157.422 39.0583 154.474 33.2267 149.975C27.4059 145.484 23.9388 139.249 22.5365 132.178C19.3547 116.126 14.7397 90.4924 9.5423 61.6206C9.33269 60.4567 9.12215 59.2875 8.91073 58.1135C8.36257 55.0694 7.80854 51.9927 7.2496 48.8908C4.81901 35.4042 7.25967 28.6539 11.7638 24.5263C14.151 22.3388 17.3517 20.6582 21.3974 19.2244C25.4495 17.788 30.1444 16.6666 35.4332 15.4809Z" fill="black"/>
</svg>
