<svg width="284" height="164" viewBox="0 0 284 164" fill="none" xmlns="http://www.w3.org/2000/svg">
<path fill-rule="evenodd" clip-rule="evenodd" d="M34.0554 9.33638C61.943 3.08421 117.296 0 147.938 0C179.925 0 222.365 1.86199 255.702 9.33638C269.882 12.5163 277.472 17.7931 280.962 24.5377C284.363 31.1085 283.375 38.2781 282.605 43.7173C279.542 65.3464 275.258 91.2845 270.371 120.869L270.356 120.957C267.804 136.409 261.356 147.177 252.866 154.064C244.408 160.925 234.185 163.719 224.42 163.719H59.2184C46.4521 163.719 36.5503 160.493 29.38 154.96C22.199 149.42 18.0179 141.765 16.3599 133.402C13.1662 117.292 8.53985 91.5925 3.34492 62.7364C2.59182 58.5534 1.82676 54.3036 1.05287 50.0079C-1.56285 35.4955 0.734243 26.093 7.50905 19.8836C10.762 16.9033 14.8355 14.8694 19.2943 13.2889C23.7468 11.7109 28.7856 10.5183 34.0554 9.33638Z" fill="#D9D9D9"/>
<path fill-rule="evenodd" clip-rule="evenodd" d="M34.0554 9.33638C61.943 3.08421 117.296 0 147.938 0C179.925 0 222.365 1.86199 255.702 9.33638C269.882 12.5163 277.472 17.7931 280.962 24.5377C284.363 31.1085 283.375 38.2781 282.605 43.7173C279.542 65.3464 275.258 91.2845 270.371 120.869L270.356 120.957C267.804 136.409 261.356 147.177 252.866 154.064C244.408 160.925 234.185 163.719 224.42 163.719H59.2184C46.4521 163.719 36.5503 160.493 29.38 154.96C22.199 149.42 18.0179 141.765 16.3599 133.402C13.1662 117.292 8.53985 91.5925 3.34492 62.7364C2.59182 58.5534 1.82676 54.3036 1.05287 50.0079C-1.56285 35.4955 0.734243 26.093 7.50905 19.8836C10.762 16.9033 14.8355 14.8694 19.2943 13.2889C23.7468 11.7109 28.7856 10.5183 34.0554 9.33638ZM147.938 6.29688C117.395 6.29688 62.6143 9.38675 35.4332 15.4809C30.1444 16.6666 25.4495 17.788 21.3974 19.2244C17.3517 20.6582 14.151 22.3388 11.7638 24.5263C7.25968 28.6539 4.81901 35.4042 7.2496 48.8908C8.02412 53.1891 8.7892 57.4388 9.54231 61.6206C14.7397 90.4924 19.3547 116.126 22.5365 132.178C23.9388 139.249 27.4059 145.484 33.2267 149.975C39.0583 154.474 47.5118 157.422 59.2184 157.422H224.42C233.012 157.422 241.757 154.968 248.9 149.174C256.012 143.405 261.801 134.11 264.144 119.93L264.148 119.903C269.043 90.2695 273.318 64.3906 276.37 42.8345C277.175 37.1459 277.717 31.9686 275.37 27.4311C273.112 23.0673 267.677 18.475 254.324 15.4809C221.688 8.16327 179.814 6.29688 147.938 6.29688Z" fill="black"/>
</svg>
