<svg width="200" height="91" viewBox="0 0 200 91" fill="none" xmlns="http://www.w3.org/2000/svg">
<g clip-path="url(#clip0_47_61)">
<path d="M101.815 89.8583C101.835 89.5815 101.859 89.2429 101.887 88.8478C101.972 87.6436 102.097 85.9154 102.251 83.8193C102.56 79.6268 102.989 73.9633 103.47 68.078C103.951 62.1921 104.483 56.0876 104.999 51.0121C105.516 45.9138 106.011 41.9123 106.412 40.1915C107.224 36.707 109.073 31.5832 111.831 26.5365C114.593 21.4834 118.229 16.5756 122.581 13.4535C123.96 12.4644 125.18 11.5555 126.298 10.7238C128.865 8.81189 130.885 7.30804 133.016 6.1759C136.004 4.58876 139.189 3.75562 144.352 3.75562C154.607 3.75562 168.588 9.85009 177.416 24.2432C179.604 27.811 181.908 33.7853 184.135 40.8057C186.357 47.8069 188.483 55.7836 190.332 63.3135C192.181 70.8418 193.75 77.9152 194.857 83.107C195.411 85.7026 195.848 87.8275 196.148 89.303C196.253 89.8211 196.341 90.2592 196.411 90.6094C196.29 90.598 196.159 90.5855 196.018 90.5723C195.111 90.4869 193.798 90.365 192.167 90.2188C188.906 89.9263 184.375 89.5363 179.299 89.1464C169.155 88.3669 156.805 87.5854 148.054 87.5854C139.311 87.5854 127.527 88.1712 117.942 88.7559C113.147 89.0483 108.897 89.3408 105.846 89.5601C104.32 89.6698 103.094 89.7612 102.25 89.8252C102.091 89.8372 101.946 89.8482 101.815 89.8583Z" fill="#D9D9D9" stroke="black" stroke-width="1.51125"/>
<path d="M101.487 84.0545C101.487 84.0545 126.914 79.7679 149.224 79.7679C171.533 79.7679 195.888 84.0545 195.888 84.0545C196.863 88.6333 197.447 91.4585 197.447 91.4585C197.447 91.4585 165.59 88.341 148.152 88.341C130.714 88.341 101.097 90.6791 101.097 90.6791C101.097 90.6791 101.097 88.0487 101.487 84.0545Z" fill="black"/>
<path d="M150.198 67.0058L147.08 69.5388C145.899 70.7003 145.202 72.2673 145.132 73.9227H154.679V71.3898H148.542C149.084 70.6342 149.782 70.0032 150.587 69.5388C151.554 68.9809 152.439 68.2924 153.218 67.4929C154.037 66.6239 154.491 65.4726 154.484 64.278C154.507 63.6749 154.396 63.0742 154.161 62.5185C153.925 61.9629 153.57 61.466 153.12 61.0631C152.169 60.2628 150.953 59.846 149.711 59.8941C146.691 59.8941 145.132 61.5502 145.132 64.7651H147.762C147.762 63.0115 148.444 62.1347 149.808 62.1347C150.08 62.1062 150.354 62.1403 150.61 62.2345C150.866 62.3288 151.097 62.4806 151.286 62.6782C151.474 62.8759 151.614 63.1141 151.696 63.3746C151.778 63.6351 151.798 63.9108 151.756 64.1806C151.75 64.7436 151.604 65.2963 151.332 65.7892C151.06 66.2822 150.671 66.7002 150.198 67.0058Z" fill="black"/>
<path d="M133.052 68.4671H135.974C137.436 68.4671 138.215 69.0516 138.312 70.3181C138.41 71.5845 138.507 72.7536 138.605 74.0201H141.82V73.6304C141.332 73.4356 141.138 72.9484 141.138 72.1691C141.132 71.906 141.165 71.6435 141.235 71.3897V70.7078C141.31 70.03 141.184 69.345 140.872 68.7385C140.56 68.132 140.077 67.631 139.481 67.298C140.161 67.0699 140.743 66.6181 141.132 66.0165C141.521 65.4148 141.695 64.6989 141.625 63.9857C141.664 63.4326 141.57 62.8782 141.349 62.3694C141.129 61.8606 140.789 61.4125 140.358 61.063C139.473 60.3678 138.364 60.0211 137.241 60.0888H130.129V74.0201H133.052V68.4671ZM133.052 62.3295H136.656C138.02 62.3295 138.702 62.9141 138.702 64.1805C138.702 65.447 137.923 66.0315 136.461 66.0315H133.052V62.3295Z" fill="black"/>
<path d="M95.632 89.2733C95.6124 88.9966 95.5885 88.6579 95.5603 88.2628C95.4745 87.0587 95.3501 85.3305 95.1957 83.2343C94.8868 79.0419 94.4577 73.3783 93.9769 67.4931C93.496 61.6071 92.9637 55.5026 92.4484 50.4272C91.9308 45.3288 91.4356 41.3273 91.0349 39.6065C90.2234 36.122 88.3739 30.9983 85.6156 25.9515C82.8539 20.8985 79.2181 15.9906 74.8661 12.8686C73.4874 11.8794 72.2666 10.9705 71.1495 10.1388C68.5816 8.22693 66.5617 6.72308 64.4306 5.59094C61.4431 4.0038 58.2576 3.17066 53.0946 3.17066C42.8405 3.17066 28.8587 9.26513 20.031 23.6582C17.8427 27.226 15.5395 33.2003 13.3119 40.2208C11.0905 47.2219 8.96393 55.1987 7.11491 62.7285C5.26629 70.2568 3.69711 77.3302 2.59002 82.522C2.03651 85.1177 1.59863 87.2425 1.29919 88.7181C1.19405 89.2362 1.10597 89.6742 1.03596 90.0245C1.15701 90.013 1.2883 90.0006 1.42948 89.9873C2.33562 89.902 3.64927 89.7801 5.28002 89.6338C8.54142 89.3414 13.0718 88.9514 18.1477 88.5614C28.2924 87.782 40.6417 87.0004 49.3926 87.0004C58.1365 87.0004 69.9197 87.5863 79.5052 88.1709C84.3004 88.4634 88.5502 88.7558 91.6012 88.9752C93.1268 89.0848 94.3527 89.1762 95.1975 89.2402C95.3559 89.2522 95.5009 89.2633 95.632 89.2733Z" fill="#D9D9D9" stroke="black" stroke-width="1.51125"/>
<path d="M95.9598 83.4695C95.9598 83.4695 70.5329 79.183 48.2234 79.183C25.914 79.183 1.55868 83.4695 1.55868 83.4695C0.584469 88.0483 -9.43921e-05 90.8735 -9.43921e-05 90.8735C-9.43921e-05 90.8735 31.8567 87.756 49.2951 87.756C66.7335 87.756 96.3495 90.0942 96.3495 90.0942C96.3495 90.0942 96.3495 87.4638 95.9598 83.4695Z" fill="black"/>
<path d="M62.7949 66.4475L59.7337 68.9347C58.5735 70.0753 57.8896 71.6139 57.8205 73.2394H67.1953V70.7522H61.2643C61.797 70.0104 62.4819 69.3907 63.2732 68.9347C64.2223 68.3869 65.0915 67.7109 65.8561 66.9258C66.661 66.0725 67.1063 64.942 67.0997 63.7689C67.1218 63.1767 67.0133 62.5868 66.7819 62.0413C66.5504 61.4957 66.2017 61.0077 65.7604 60.6121C64.826 59.8263 63.6322 59.417 62.4122 59.4642C59.4467 59.4642 57.9161 61.0904 57.9161 64.2473H60.499C60.499 62.5253 61.1686 61.6644 62.5079 61.6644C62.7745 61.6363 63.0439 61.6699 63.2955 61.7624C63.547 61.8549 63.774 62.004 63.9588 62.1981C64.1437 62.3922 64.2815 62.6261 64.3617 62.8819C64.4418 63.1376 64.4622 63.4084 64.4211 63.6733C64.3938 64.2326 64.2317 64.7769 63.9485 65.26C63.6653 65.743 63.2695 66.1504 62.7949 66.4475Z" fill="#020202"/>
<path d="M54.6636 70.6566H47.8717V59.5599H45.0018V73.2395H54.6636V70.6566Z" fill="#020202"/>
</g>
<defs>
<clipPath id="clip0_47_61">
<rect width="200" height="90.8" fill="white"/>
</clipPath>
</defs>
</svg>
