<svg id="Layer_1" data-name="Layer 1" xmlns="http://www.w3.org/2000/svg" width="178.53" height="103.93" viewBox="0 0 178.53 103.93">
  <defs>
    <style>
      .cls-1 {
        fill: #1a1a1a;
      }

      .cls-2, .cls-4 {
        isolation: isolate;
        opacity: 0.25;
      }

      .cls-3 {
        fill: #e6e6e6;
      }

      .cls-4 {
        fill: #fff;
      }
    </style>
  </defs>
  <g>
    <g>
      <path class="cls-1" d="M124.5,20.6c1.4-2,1.2-2.9,1.2-2.9s.2-.9-1.2-2.9-15-13.6-15.7-14S80.3-1.4,77.4,2.1s-2.6,15.6-2.6,15.6-.3,12.1,2.6,15.6,30.7,1.7,31.4,1.3S123.1,22.6,124.5,20.6Z" transform="translate(0.02 0.02)"/>
      <path class="cls-2" d="M124.5,20.6c1.4-2,1.2-2.9,1.2-2.9s.2-.9-1.2-2.9c-.9-1.3-6.9-6.6-11.2-10.3a27.84,27.84,0,0,0-3.4,13.2,26.73,26.73,0,0,0,3.4,13.2C117.6,27.2,123.6,21.9,124.5,20.6Z" transform="translate(0.02 0.02)"/>
    </g>
    <g>
      <path class="cls-1" d="M52.2,49.7c2,1.4,2.9,1.2,2.9,1.2s.9.2,2.9-1.2S71.6,34.7,72,34,74.2,5.5,70.7,2.6,55.1,0,55.1,0,43-.2,39.5,2.6,37.8,33.3,38.2,34,50.2,48.3,52.2,49.7Z" transform="translate(0.02 0.02)"/>
      <path class="cls-2" d="M52.2,49.7c2,1.4,2.9,1.2,2.9,1.2s.9.2,2.9-1.2c1.3-.9,6.6-6.9,10.3-11.2a27.84,27.84,0,0,0-13.2-3.4,26.73,26.73,0,0,0-13.2,3.4C45.6,42.8,50.9,48.8,52.2,49.7Z" transform="translate(0.02 0.02)"/>
    </g>
    <g>
      <path class="cls-1" d="M175.9,2.2C173-1.3,145.2.5,144.5.9s-14.3,12-15.7,14-1.2,2.9-1.2,2.9-.2.9,1.2,2.9,15,13.6,15.7,14,28.5,2.2,31.4-1.3,2.6-15.6,2.6-15.6S178.8,5.7,175.9,2.2Z" transform="translate(0.02 0.02)"/>
      <path class="cls-2" d="M140.1,4.6c-4.3,3.7-10.3,9-11.2,10.3-1.4,2-1.2,2.9-1.2,2.9s-.2.9,1.2,2.9c.9,1.3,6.9,6.6,11.2,10.3a27.84,27.84,0,0,0,3.4-13.2A27.84,27.84,0,0,0,140.1,4.6Z" transform="translate(0.02 0.02)"/>
    </g>
    <g>
      <path class="cls-1" d="M20.6,1.2C18.6-.2,17.7,0,17.7,0s-.9-.2-2.9,1.2S1.2,16.2.8,16.9-1.4,45.4,2.1,48.3s15.6,2.6,15.6,2.6,12.1.3,15.6-2.6S35,17.6,34.6,16.9,22.6,2.6,20.6,1.2Z" transform="translate(0.02 0.02)"/>
      <path class="cls-2" d="M20.6,1.2C18.6-.2,17.7,0,17.7,0s-.9-.2-2.9,1.2c-1.3.9-6.6,6.9-10.3,11.2a27.84,27.84,0,0,0,13.2,3.4,26.73,26.73,0,0,0,13.2-3.4C27.2,8.1,21.9,2.1,20.6,1.2Z" transform="translate(0.02 0.02)"/>
    </g>
  </g>
  <g>
    <g>
      <path class="cls-3" d="M124.5,73.6c1.4-2,1.2-2.9,1.2-2.9s.2-.9-1.2-2.9-15-13.6-15.7-14-28.5-2.2-31.4,1.3-2.6,15.6-2.6,15.6-.3,12.1,2.6,15.6,30.7,1.7,31.4,1.3S123.1,75.6,124.5,73.6Z" transform="translate(0.02 0.02)"/>
      <path class="cls-4" d="M124.5,73.6c1.4-2,1.2-2.9,1.2-2.9s.2-.9-1.2-2.9c-.9-1.3-6.9-6.6-11.2-10.3a27.84,27.84,0,0,0-3.4,13.2,26.73,26.73,0,0,0,3.4,13.2C117.6,80.2,123.6,74.9,124.5,73.6Z" transform="translate(0.02 0.02)"/>
    </g>
    <g>
      <path class="cls-3" d="M52.2,102.7c2,1.4,2.9,1.2,2.9,1.2s.9.2,2.9-1.2S71.6,87.7,72,87s2.2-28.5-1.3-31.4S55.1,53,55.1,53,43,52.8,39.5,55.6,37.8,86.3,38.2,87,50.2,101.3,52.2,102.7Z" transform="translate(0.02 0.02)"/>
      <path class="cls-4" d="M52.2,102.7c2,1.4,2.9,1.2,2.9,1.2s.9.2,2.9-1.2c1.3-.9,6.6-6.9,10.3-11.2a27.84,27.84,0,0,0-13.2-3.4,26.73,26.73,0,0,0-13.2,3.4C45.6,95.8,50.9,101.8,52.2,102.7Z" transform="translate(0.02 0.02)"/>
    </g>
    <g>
      <path class="cls-3" d="M175.9,55.1c-2.9-3.5-30.7-1.7-31.4-1.3s-14.3,12-15.7,14-1.2,2.9-1.2,2.9-.2.9,1.2,2.9,15,13.6,15.7,14,28.5,2.2,31.4-1.3,2.6-15.6,2.6-15.6S178.8,58.6,175.9,55.1Z" transform="translate(0.02 0.02)"/>
      <path class="cls-4" d="M140.1,57.6c-4.3,3.7-10.3,9-11.2,10.3-1.4,2-1.2,2.9-1.2,2.9s-.2.9,1.2,2.9c.9,1.3,6.9,6.6,11.2,10.3a27.32,27.32,0,0,0,0-26.4Z" transform="translate(0.02 0.02)"/>
    </g>
    <g>
      <path class="cls-3" d="M20.6,54.2c-2-1.4-2.9-1.2-2.9-1.2s-.9-.2-2.9,1.2S1.2,69.2.8,69.9s-2.2,28.5,1.3,31.4,15.6,2.6,15.6,2.6,12.1.3,15.6-2.6S35,70.6,34.6,69.9,22.6,55.6,20.6,54.2Z" transform="translate(0.02 0.02)"/>
      <path class="cls-4" d="M20.6,54.2c-2-1.4-2.9-1.2-2.9-1.2s-.9-.2-2.9,1.2c-1.3.9-6.6,6.9-10.3,11.2a27.84,27.84,0,0,0,13.2,3.4,26.73,26.73,0,0,0,13.2-3.4C27.2,61.1,21.9,55.1,20.6,54.2Z" transform="translate(0.02 0.02)"/>
    </g>
  </g>
</svg>
